<svg width="213" height="118" viewBox="0 0 213 118" fill="none" xmlns="http://www.w3.org/2000/svg">
<path d="M34.0449 60.7051L33.998 61.0176H32.1777L32.2012 60.7129L32.7988 60.5645V56.7441L32.1973 56.5645L32.2441 56.2637L33.3809 56.1191L33.4629 56.1934L33.4082 56.6973H33.4355C33.5605 56.5228 33.7142 56.3717 33.8965 56.2441C34.0788 56.1165 34.2845 56.0527 34.5137 56.0527C34.7454 56.0527 34.9499 56.1126 35.127 56.2324C35.304 56.3522 35.4434 56.5384 35.5449 56.791C35.6465 57.041 35.6973 57.3574 35.6973 57.7402C35.6973 58.1048 35.6217 58.4316 35.4707 58.7207C35.3223 59.0098 35.1152 59.235 34.8496 59.3965C34.5866 59.5579 34.2897 59.6387 33.959 59.6387C33.8444 59.6387 33.722 59.627 33.5918 59.6035L33.5684 59.1309C33.6569 59.1647 33.7402 59.1882 33.8184 59.2012C33.8965 59.2116 34.0124 59.2168 34.166 59.2168C34.429 59.2168 34.6309 59.1048 34.7715 58.8809C34.9121 58.6569 34.9824 58.3561 34.9824 57.9785C34.9824 57.5124 34.9199 57.1608 34.7949 56.9238C34.6699 56.6842 34.4837 56.5645 34.2363 56.5645C34.0853 56.5645 33.9395 56.6035 33.7988 56.6816C33.6608 56.7598 33.5397 56.8535 33.4355 56.9629V60.5684L34.0449 60.7051ZM38.2598 59.2246L38.2207 59.5645H36.0645L36.1035 59.2754L36.7012 59.1191V56.7207L36.0645 56.5293L36.1191 56.2324L37.2402 56.0879L37.3301 56.1816L37.252 57.0801H37.3262C37.3939 56.8535 37.4811 56.6608 37.5879 56.502C37.6947 56.3431 37.8079 56.2246 37.9277 56.1465C38.0475 56.0658 38.166 56.0254 38.2832 56.0254C38.4108 56.0254 38.515 56.0697 38.5957 56.1582C38.6764 56.2441 38.7168 56.3457 38.7168 56.4629C38.7168 56.627 38.6426 56.7715 38.4941 56.8965C38.4186 56.8496 38.3392 56.8132 38.2559 56.7871C38.1725 56.7585 38.0931 56.7441 38.0176 56.7441C37.9395 56.7441 37.8535 56.7767 37.7598 56.8418C37.666 56.9043 37.5801 56.9993 37.502 57.127C37.4264 57.2546 37.3757 57.4108 37.3496 57.5957V59.0918L38.2598 59.2246ZM41.4199 59.4395C41.1699 59.5931 40.8939 59.6699 40.5918 59.6699C40.2559 59.6699 39.9668 59.5931 39.7246 59.4395C39.485 59.2858 39.3014 59.0762 39.1738 58.8105C39.0488 58.5423 38.9863 58.2389 38.9863 57.9004C38.9863 57.5202 39.0658 57.1895 39.2246 56.9082C39.3835 56.6243 39.5918 56.4082 39.8496 56.2598C40.11 56.1113 40.3887 56.0371 40.6855 56.0371C41.0007 56.0371 41.2741 56.1126 41.5059 56.2637C41.7402 56.4147 41.9186 56.627 42.041 56.9004C42.166 57.1712 42.2285 57.485 42.2285 57.8418C42.2285 58.196 42.1556 58.5124 42.0098 58.791C41.8665 59.0697 41.6699 59.2858 41.4199 59.4395ZM41.0957 56.7051C40.9447 56.5332 40.7533 56.4473 40.5215 56.4473C40.334 56.4473 40.1764 56.5007 40.0488 56.6074C39.9238 56.7142 39.8314 56.8574 39.7715 57.0371C39.7116 57.2142 39.6816 57.4095 39.6816 57.623C39.6816 57.9121 39.7168 58.1829 39.7871 58.4355C39.8574 58.6882 39.9707 58.8939 40.127 59.0527C40.2832 59.2116 40.4824 59.291 40.7246 59.291C40.8991 59.291 41.0475 59.2376 41.1699 59.1309C41.2923 59.0215 41.3835 58.8809 41.4434 58.709C41.5033 58.5371 41.5332 58.3548 41.5332 58.1621C41.5332 57.8809 41.498 57.61 41.4277 57.3496C41.36 57.0892 41.2493 56.8743 41.0957 56.7051ZM44.7949 60.8848C44.5163 61.0098 44.2311 61.0723 43.9395 61.0723C43.5306 61.0723 43.1921 61.0033 42.9238 60.8652C42.6582 60.7298 42.5254 60.5072 42.5254 60.1973C42.5254 59.9655 42.7337 59.7311 43.1504 59.4941V59.459C43.0306 59.4017 42.9382 59.3262 42.873 59.2324C42.8079 59.1387 42.7754 59.0358 42.7754 58.9238C42.7754 58.8561 42.8079 58.7806 42.873 58.6973C42.9408 58.6113 43.0254 58.5306 43.127 58.4551C43.2311 58.3796 43.3314 58.3223 43.4277 58.2832V58.2559C43.3548 58.2376 43.2676 58.1816 43.166 58.0879C43.0645 57.9915 42.9759 57.8704 42.9004 57.7246C42.8275 57.5788 42.791 57.4251 42.791 57.2637C42.791 57.0553 42.8535 56.8587 42.9785 56.6738C43.1035 56.4889 43.2663 56.3418 43.4668 56.2324C43.6699 56.1204 43.8796 56.0645 44.0957 56.0645C44.416 56.0645 44.6895 56.1465 44.916 56.3105C45.0202 56.3053 45.166 56.2962 45.3535 56.2832C45.541 56.2676 45.6751 56.2559 45.7559 56.248L45.834 56.3379L45.6816 56.7715H45.6191L45.1387 56.6152V56.6816C45.1699 56.752 45.1999 56.8379 45.2285 56.9395C45.2572 57.041 45.2715 57.1361 45.2715 57.2246C45.2715 57.4512 45.2038 57.653 45.0684 57.8301C44.9355 58.0072 44.7663 58.1452 44.5605 58.2441C44.3574 58.3405 44.1543 58.3887 43.9512 58.3887C43.8835 58.3887 43.8158 58.3848 43.748 58.377C43.6803 58.3665 43.6309 58.3574 43.5996 58.3496C43.4694 58.485 43.4043 58.5996 43.4043 58.6934C43.4043 58.7845 43.4525 58.8548 43.5488 58.9043C43.6478 58.9512 43.8379 58.9746 44.1191 58.9746H44.6504C44.9681 58.9746 45.2272 59.0371 45.4277 59.1621C45.6309 59.2871 45.7324 59.4863 45.7324 59.7598C45.7324 59.9811 45.6452 60.1921 45.4707 60.3926C45.2988 60.5957 45.0736 60.7598 44.7949 60.8848ZM44.3379 56.4941C44.2441 56.3978 44.1322 56.3496 44.002 56.3496C43.8066 56.3496 43.6595 56.4238 43.5605 56.5723C43.4642 56.7207 43.416 56.9264 43.416 57.1895C43.416 57.3613 43.4486 57.515 43.5137 57.6504C43.5788 57.7858 43.6608 57.8913 43.7598 57.9668C43.8613 58.0423 43.9616 58.0801 44.0605 58.0801C44.2428 58.0801 44.3835 58.0163 44.4824 57.8887C44.584 57.7611 44.6348 57.5645 44.6348 57.2988C44.6348 57.1504 44.6087 57.0033 44.5566 56.8574C44.5072 56.7116 44.4342 56.5905 44.3379 56.4941ZM44.0957 59.5527H43.416C43.416 59.5449 43.3965 59.5566 43.3574 59.5879C43.321 59.6191 43.2871 59.666 43.2559 59.7285C43.2272 59.7936 43.2129 59.8796 43.2129 59.9863C43.2129 60.4316 43.5254 60.6543 44.1504 60.6543C44.429 60.6543 44.6517 60.5983 44.8184 60.4863C44.9876 60.3743 45.0723 60.1973 45.0723 59.9551C45.0723 59.8405 45.0397 59.7546 44.9746 59.6973C44.9121 59.64 44.8132 59.6009 44.6777 59.5801C44.5423 59.5618 44.3483 59.5527 44.0957 59.5527ZM48.2598 59.2246L48.2207 59.5645H46.0645L46.1035 59.2754L46.7012 59.1191V56.7207L46.0645 56.5293L46.1191 56.2324L47.2402 56.0879L47.3301 56.1816L47.252 57.0801H47.3262C47.3939 56.8535 47.4811 56.6608 47.5879 56.502C47.6947 56.3431 47.8079 56.2246 47.9277 56.1465C48.0475 56.0658 48.166 56.0254 48.2832 56.0254C48.4108 56.0254 48.515 56.0697 48.5957 56.1582C48.6764 56.2441 48.7168 56.3457 48.7168 56.4629C48.7168 56.627 48.6426 56.7715 48.4941 56.8965C48.4186 56.8496 48.3392 56.8132 48.2559 56.7871C48.1725 56.7585 48.0931 56.7441 48.0176 56.7441C47.9395 56.7441 47.8535 56.7767 47.7598 56.8418C47.666 56.9043 47.5801 56.9993 47.502 57.127C47.4264 57.2546 47.3757 57.4108 47.3496 57.5957V59.0918L48.2598 59.2246ZM50.4199 59.4668C50.2428 59.5944 50.0137 59.6582 49.7324 59.6582C49.5944 59.6582 49.4668 59.6283 49.3496 59.5684C49.2324 59.5085 49.1387 59.4225 49.0684 59.3105C49.0007 59.196 48.9668 59.0618 48.9668 58.9082C48.9668 58.7077 49.0306 58.5189 49.1582 58.3418C49.2858 58.1647 49.4837 58.0163 49.752 57.8965C50.0228 57.7741 50.3613 57.6986 50.7676 57.6699V57.4551C50.7676 57.153 50.7142 56.9043 50.6074 56.709C50.5007 56.5111 50.3236 56.4121 50.0762 56.4121C49.9538 56.4121 49.8652 56.4368 49.8105 56.4863C49.7559 56.5358 49.7194 56.61 49.7012 56.709C49.6855 56.8079 49.666 56.9889 49.6426 57.252C49.4889 57.252 49.36 57.2272 49.2559 57.1777C49.1517 57.1283 49.0996 57.0189 49.0996 56.8496C49.0996 56.7142 49.1712 56.5853 49.3145 56.4629C49.4577 56.3379 49.6348 56.2376 49.8457 56.1621C50.0566 56.0866 50.2533 56.0488 50.4355 56.0488C50.7793 56.0488 51.0254 56.1452 51.1738 56.3379C51.3249 56.528 51.4004 56.8314 51.4004 57.248V58.666C51.4004 58.791 51.4121 58.8874 51.4355 58.9551C51.459 59.0202 51.5007 59.071 51.5605 59.1074C51.623 59.1413 51.7155 59.1686 51.8379 59.1895L52.0332 59.2246L51.9824 59.5605C51.9434 59.5658 51.8835 59.5762 51.8027 59.5918C51.6777 59.6204 51.5605 59.6348 51.4512 59.6348C51.3105 59.6348 51.1947 59.6087 51.1035 59.5566C51.0124 59.5046 50.946 59.4395 50.9043 59.3613C50.8652 59.2806 50.8457 59.1973 50.8457 59.1113V59.0527H50.8027C50.7272 59.1986 50.5996 59.3366 50.4199 59.4668ZM50.7676 58.8301V57.8926C50.3613 57.9733 50.0736 58.0827 49.9043 58.2207C49.735 58.3561 49.6504 58.5241 49.6504 58.7246C49.6504 58.7923 49.6673 58.8613 49.7012 58.9316C49.735 59.002 49.7845 59.0605 49.8496 59.1074C49.9173 59.1543 49.9967 59.1777 50.0879 59.1777C50.2129 59.1777 50.3379 59.1413 50.4629 59.0684C50.5879 58.9954 50.6895 58.916 50.7676 58.8301ZM54.0371 59.2559L53.9941 59.5645H52.1934L52.2324 59.2754L52.8184 59.1191V56.7559L52.1934 56.5566L52.2324 56.2637L53.4199 56.0996L53.4902 56.1816L53.4199 56.6738H53.4551C53.5931 56.502 53.765 56.3574 53.9707 56.2402C54.179 56.123 54.3978 56.0645 54.627 56.0645C54.8249 56.0645 55.0033 56.1165 55.1621 56.2207C55.3236 56.3249 55.4329 56.4876 55.4902 56.709H55.5371C55.6751 56.5319 55.8431 56.3861 56.041 56.2715C56.2415 56.1543 56.4577 56.0957 56.6895 56.0957C57.304 56.0957 57.6113 56.459 57.6113 57.1855V59.1152L58.1504 59.2559L58.0996 59.5645H56.4395L56.4668 59.2793L56.9551 59.123V57.2793C56.9551 57.084 56.8965 56.9212 56.7793 56.791C56.6621 56.6608 56.502 56.5957 56.2988 56.5957C56.1426 56.5957 56.0072 56.6309 55.8926 56.7012C55.7806 56.7689 55.6673 56.8639 55.5527 56.9863V59.1191L56.1309 59.2559L56.0918 59.5645H54.3613L54.4043 59.2754L54.916 59.1191V57.2793C54.916 57.1465 54.8861 57.028 54.8262 56.9238C54.7689 56.8197 54.6895 56.7389 54.5879 56.6816C54.4863 56.6243 54.373 56.5957 54.248 56.5957C54.1022 56.5957 53.9616 56.6257 53.8262 56.6855C53.6908 56.7428 53.5749 56.8262 53.4785 56.9355V59.1191L54.0371 59.2559ZM60.2246 59.2559L60.1816 59.5645H58.3809L58.4199 59.2754L59.0059 59.1191V56.7559L58.3809 56.5566L58.4199 56.2637L59.6074 56.0996L59.6777 56.1816L59.6074 56.6738H59.6426C59.7806 56.502 59.9525 56.3574 60.1582 56.2402C60.3665 56.123 60.5853 56.0645 60.8145 56.0645C61.0124 56.0645 61.1908 56.1165 61.3496 56.2207C61.5111 56.3249 61.6204 56.4876 61.6777 56.709H61.7246C61.8626 56.5319 62.0306 56.3861 62.2285 56.2715C62.429 56.1543 62.6452 56.0957 62.877 56.0957C63.4915 56.0957 63.7988 56.459 63.7988 57.1855V59.1152L64.3379 59.2559L64.2871 59.5645H62.627L62.6543 59.2793L63.1426 59.123V57.2793C63.1426 57.084 63.084 56.9212 62.9668 56.791C62.8496 56.6608 62.6895 56.5957 62.4863 56.5957C62.3301 56.5957 62.1947 56.6309 62.0801 56.7012C61.9681 56.7689 61.8548 56.8639 61.7402 56.9863V59.1191L62.3184 59.2559L62.2793 59.5645H60.5488L60.5918 59.2754L61.1035 59.1191V57.2793C61.1035 57.1465 61.0736 57.028 61.0137 56.9238C60.9564 56.8197 60.877 56.7389 60.7754 56.6816C60.6738 56.6243 60.5605 56.5957 60.4355 56.5957C60.2897 56.5957 60.1491 56.6257 60.0137 56.6855C59.8783 56.7428 59.7624 56.8262 59.666 56.9355V59.1191L60.2246 59.2559ZM65.709 55.3223C65.6361 55.3639 65.5579 55.3848 65.4746 55.3848C65.3913 55.3848 65.3132 55.3626 65.2402 55.3184C65.1699 55.2741 65.1139 55.2155 65.0723 55.1426C65.0306 55.0671 65.0098 54.9863 65.0098 54.9004C65.0098 54.778 65.0553 54.6751 65.1465 54.5918C65.2402 54.5059 65.3496 54.4629 65.4746 54.4629C65.6048 54.4629 65.7168 54.5059 65.8105 54.5918C65.9043 54.6777 65.9512 54.7832 65.9512 54.9082C65.9512 54.9941 65.929 55.0736 65.8848 55.1465C65.8431 55.2194 65.7845 55.278 65.709 55.3223ZM66.4199 59.5645H64.5449L64.5918 59.2559L65.1816 59.1113V56.709L64.5918 56.4941L64.6426 56.1973L65.7402 56.1074L65.8379 56.2051V59.1113L66.4629 59.252L66.4199 59.5645ZM68.5215 59.2559L68.4668 59.5645H66.6543L66.6934 59.2793L67.2832 59.1191V56.748L66.6816 56.5449L66.7207 56.248L67.8848 56.0957L67.9512 56.1699L67.8848 56.6699H67.9238C68.0723 56.4928 68.248 56.3457 68.4512 56.2285C68.6543 56.1113 68.8704 56.0527 69.0996 56.0527C69.4043 56.0527 69.6374 56.1491 69.7988 56.3418C69.9603 56.5345 70.041 56.8066 70.041 57.1582V59.1191L70.6035 59.2559L70.5645 59.5645H68.8105L68.8496 59.2793L69.3887 59.1191V57.3105C69.3887 57.0684 69.3262 56.8887 69.2012 56.7715C69.0788 56.6517 68.9147 56.5918 68.709 56.5918C68.5632 56.5918 68.4225 56.6217 68.2871 56.6816C68.1517 56.7389 68.0358 56.821 67.9395 56.9277V59.1191L68.5215 59.2559ZM73.0137 60.8848C72.735 61.0098 72.4499 61.0723 72.1582 61.0723C71.7493 61.0723 71.4108 61.0033 71.1426 60.8652C70.877 60.7298 70.7441 60.5072 70.7441 60.1973C70.7441 59.9655 70.9525 59.7311 71.3691 59.4941V59.459C71.2493 59.4017 71.1569 59.3262 71.0918 59.2324C71.0267 59.1387 70.9941 59.0358 70.9941 58.9238C70.9941 58.8561 71.0267 58.7806 71.0918 58.6973C71.1595 58.6113 71.2441 58.5306 71.3457 58.4551C71.4499 58.3796 71.5501 58.3223 71.6465 58.2832V58.2559C71.5736 58.2376 71.4863 58.1816 71.3848 58.0879C71.2832 57.9915 71.1947 57.8704 71.1191 57.7246C71.0462 57.5788 71.0098 57.4251 71.0098 57.2637C71.0098 57.0553 71.0723 56.8587 71.1973 56.6738C71.3223 56.4889 71.485 56.3418 71.6855 56.2324C71.8887 56.1204 72.0983 56.0645 72.3145 56.0645C72.6348 56.0645 72.9082 56.1465 73.1348 56.3105C73.2389 56.3053 73.3848 56.2962 73.5723 56.2832C73.7598 56.2676 73.8939 56.2559 73.9746 56.248L74.0527 56.3379L73.9004 56.7715H73.8379L73.3574 56.6152V56.6816C73.3887 56.752 73.4186 56.8379 73.4473 56.9395C73.4759 57.041 73.4902 57.1361 73.4902 57.2246C73.4902 57.4512 73.4225 57.653 73.2871 57.8301C73.1543 58.0072 72.985 58.1452 72.7793 58.2441C72.5762 58.3405 72.373 58.3887 72.1699 58.3887C72.1022 58.3887 72.0345 58.3848 71.9668 58.377C71.8991 58.3665 71.8496 58.3574 71.8184 58.3496C71.6882 58.485 71.623 58.5996 71.623 58.6934C71.623 58.7845 71.6712 58.8548 71.7676 58.9043C71.8665 58.9512 72.0566 58.9746 72.3379 58.9746H72.8691C73.1868 58.9746 73.446 59.0371 73.6465 59.1621C73.8496 59.2871 73.9512 59.4863 73.9512 59.7598C73.9512 59.9811 73.8639 60.1921 73.6895 60.3926C73.5176 60.5957 73.2923 60.7598 73.0137 60.8848ZM72.5566 56.4941C72.4629 56.3978 72.3509 56.3496 72.2207 56.3496C72.0254 56.3496 71.8783 56.4238 71.7793 56.5723C71.6829 56.7207 71.6348 56.9264 71.6348 57.1895C71.6348 57.3613 71.6673 57.515 71.7324 57.6504C71.7975 57.7858 71.8796 57.8913 71.9785 57.9668C72.0801 58.0423 72.1803 58.0801 72.2793 58.0801C72.4616 58.0801 72.6022 58.0163 72.7012 57.8887C72.8027 57.7611 72.8535 57.5645 72.8535 57.2988C72.8535 57.1504 72.8275 57.0033 72.7754 56.8574C72.7259 56.7116 72.653 56.5905 72.5566 56.4941ZM72.3145 59.5527H71.6348C71.6348 59.5449 71.6152 59.5566 71.5762 59.5879C71.5397 59.6191 71.5059 59.666 71.4746 59.7285C71.446 59.7936 71.4316 59.8796 71.4316 59.9863C71.4316 60.4316 71.7441 60.6543 72.3691 60.6543C72.6478 60.6543 72.8704 60.5983 73.0371 60.4863C73.2064 60.3743 73.291 60.1973 73.291 59.9551C73.291 59.8405 73.2585 59.7546 73.1934 59.6973C73.1309 59.64 73.0319 59.6009 72.8965 59.5801C72.7611 59.5618 72.5671 59.5527 72.3145 59.5527ZM77.7637 59.541C77.5371 59.6348 77.3027 59.6816 77.0605 59.6816C76.7559 59.6816 76.4863 59.6035 76.252 59.4473C76.0176 59.2884 75.8366 59.0762 75.709 58.8105C75.5814 58.5449 75.5176 58.2559 75.5176 57.9434C75.5176 57.571 75.5957 57.2415 75.752 56.9551C75.9082 56.666 76.1126 56.4434 76.3652 56.2871C76.6204 56.1283 76.8913 56.0488 77.1777 56.0488C77.3861 56.0488 77.5605 56.0762 77.7012 56.1309C77.8418 56.1855 77.946 56.2585 78.0137 56.3496C78.084 56.4408 78.1191 56.5397 78.1191 56.6465C78.1191 56.7637 78.0762 56.8587 77.9902 56.9316C77.9043 57.0046 77.7819 57.0462 77.623 57.0566C77.5449 56.8717 77.4577 56.7194 77.3613 56.5996C77.2676 56.4772 77.1452 56.416 76.9941 56.416C76.8405 56.416 76.7051 56.4642 76.5879 56.5605C76.4733 56.6569 76.3835 56.7936 76.3184 56.9707C76.2559 57.1452 76.2246 57.3496 76.2246 57.584C76.2246 57.821 76.2676 58.0658 76.3535 58.3184C76.4395 58.571 76.5697 58.7832 76.7441 58.9551C76.9186 59.127 77.1322 59.2129 77.3848 59.2129C77.5592 59.2129 77.7051 59.1921 77.8223 59.1504C77.9395 59.1087 78.0566 59.0501 78.1738 58.9746L78.2715 59.2012C78.1621 59.3314 77.9928 59.4447 77.7637 59.541ZM80.2676 59.5645H78.4004L78.4434 59.2559L79.041 59.1113V55.084L78.4238 54.873L78.4707 54.5762L79.5957 54.4902L79.6934 54.584V59.1113L80.3145 59.252L80.2676 59.5645ZM80.9668 58.5215V56.7207L80.4277 56.5059L80.4824 56.1973L81.5293 56.1152L81.627 56.209V58.3262C81.627 58.8548 81.8275 59.1191 82.2285 59.1191C82.3926 59.1191 82.5306 59.0931 82.6426 59.041C82.7572 58.9889 82.8613 58.9147 82.9551 58.8184V56.7441L82.334 56.5801L82.373 56.2207L83.5215 56.1152L83.6035 56.209V58.7246C83.6035 58.8496 83.6191 58.9447 83.6504 59.0098C83.6842 59.0723 83.7285 59.1165 83.7832 59.1426C83.8379 59.1686 83.9186 59.1934 84.0254 59.2168L84.2051 59.2559L84.1699 59.5801C84.0475 59.6087 83.9473 59.6283 83.8691 59.6387C83.791 59.6491 83.6947 59.6543 83.5801 59.6543C83.3926 59.6543 83.2493 59.6022 83.1504 59.498C83.054 59.3939 83.0059 59.2572 83.0059 59.0879V59.0527H82.9551C82.679 59.4538 82.3066 59.6543 81.8379 59.6543C81.5671 59.6543 81.3535 59.5658 81.1973 59.3887C81.0436 59.209 80.9668 58.9199 80.9668 58.5215ZM84.7988 59.373V55.1191L84.209 54.9121L84.2598 54.6152L85.3418 54.5332L85.4355 54.623V56.248L85.3809 56.6582H85.4238C85.5931 56.4681 85.7689 56.3197 85.9512 56.2129C86.1335 56.1061 86.3288 56.0527 86.5371 56.0527C86.7871 56.0527 87.0072 56.123 87.1973 56.2637C87.3874 56.4043 87.5345 56.6009 87.6387 56.8535C87.7454 57.1061 87.7988 57.3952 87.7988 57.7207C87.7988 58.1191 87.7103 58.4642 87.5332 58.7559C87.3587 59.0475 87.1243 59.2702 86.8301 59.4238C86.5358 59.5775 86.2168 59.6543 85.873 59.6543C85.6855 59.6543 85.4967 59.6309 85.3066 59.584C85.1165 59.5371 84.9473 59.4668 84.7988 59.373ZM86.2715 56.5645C85.9512 56.5645 85.6725 56.6895 85.4355 56.9395V58.959C85.5137 59.0371 85.6283 59.1009 85.7793 59.1504C85.9303 59.1999 86.0905 59.2246 86.2598 59.2246C86.4134 59.2246 86.554 59.179 86.6816 59.0879C86.8092 58.9967 86.9108 58.8574 86.9863 58.6699C87.0618 58.4824 87.0996 58.2493 87.0996 57.9707C87.0996 57.7467 87.0749 57.5293 87.0254 57.3184C86.9759 57.1048 86.89 56.9264 86.7676 56.7832C86.6452 56.6374 86.4798 56.5645 86.2715 56.5645Z" fill="black"/>
<path d="M100.553 111.45C98.6911 111.708 97.1153 111.294 95.8258 110.207C94.5364 109.121 93.7711 107.708 93.5301 105.97C93.3666 104.791 93.3091 103.692 93.3576 102.673C93.4596 101.583 93.6331 100.325 93.8783 98.8994L96.1989 84.1529L103.461 83.1459L100.856 99.2605C102.273 99.4435 103.405 100.077 104.251 101.162C105.16 102.238 105.696 103.366 105.859 104.545C106.092 106.221 105.669 107.735 104.591 109.087C103.575 110.43 102.229 111.217 100.553 111.45ZM119.548 108.816C117.685 109.074 116.11 108.66 114.82 107.573C113.531 106.487 112.765 105.075 112.524 103.336C112.361 102.157 112.303 101.058 112.352 100.039C112.454 98.9493 112.627 97.6915 112.873 96.2656L115.193 81.5192L122.456 80.5121L119.85 96.6267C121.268 96.8098 122.399 97.4437 123.246 98.5284C124.154 99.6045 124.69 100.732 124.854 101.912C125.086 103.588 124.663 105.101 123.585 106.453C122.569 107.796 121.224 108.583 119.548 108.816Z" fill="black"/>
<path fill-rule="evenodd" clip-rule="evenodd" d="M173.295 14.9663C153.757 11.6763 127.548 11.5707 99.691 15.4687L99.5524 14.4783C127.485 10.5698 153.8 10.6694 173.461 13.9802C183.288 15.6351 191.482 18.0969 197.388 21.2811C203.281 24.4583 206.998 28.4123 207.652 33.0906C208.306 37.7612 205.946 42.5391 201.325 47.1529C196.697 51.7743 189.73 56.3061 180.971 60.51C163.448 68.9203 138.646 76.0681 110.714 79.9764C82.783 83.8848 56.9713 83.8193 37.8127 80.5418C28.2363 78.9035 20.2932 76.458 14.5743 73.2846C8.86453 70.1162 5.28383 66.1696 4.63028 61.499C4.06607 57.4668 5.71819 53.3822 9.11539 49.4125C12.5126 45.4427 17.6943 41.5381 24.3118 37.8343C37.5506 30.4246 56.639 23.7616 79.0174 18.9895L79.226 19.9675C56.9062 24.7271 37.9222 31.3625 24.8002 38.7069C18.2375 42.3801 13.1667 46.2164 9.87516 50.0627C6.58358 53.909 5.11059 57.7154 5.62063 61.3604C6.21077 65.5779 9.46818 69.3075 15.0595 72.4102C20.6415 75.5076 28.4623 77.9277 37.9813 79.5561C57.0132 82.812 82.7176 82.8842 110.576 78.9861C138.434 75.088 163.131 67.9631 180.539 59.6084C189.245 55.4298 196.101 50.956 200.619 46.4453C205.144 41.9272 207.252 37.4467 206.662 33.2292C206.073 29.0196 202.699 25.2804 196.914 22.1613C191.141 19.0494 183.067 16.6118 173.295 14.9663Z" fill="#0F0E0E"/>
<path d="M32.6572 38.8734V20.5214C32.6572 19.1154 32.9902 17.8451 33.6562 16.7104C34.3469 15.5758 35.2596 14.6754 36.3942 14.0094C37.5536 13.3188 38.8239 12.9734 40.2052 12.9734H49.5662V17.6354H40.7972C40.0079 17.6354 39.3296 17.9191 38.7622 18.4864C38.2196 19.0538 37.9482 19.7321 37.9482 20.5214V24.7024H48.3082V29.3644H37.9482V38.8734H32.6572Z" fill="#1E4CF4"/>
<path d="M65.543 39.3544C63.471 39.3544 61.5963 39.0091 59.919 38.3184C58.2663 37.6031 56.848 36.6288 55.664 35.3954C54.48 34.1621 53.5673 32.7314 52.926 31.1034C52.2847 29.4754 51.964 27.7364 51.964 25.8864C51.964 24.0364 52.2847 22.3098 52.926 20.7064C53.5673 19.0784 54.48 17.6478 55.664 16.4144C56.848 15.1811 58.2663 14.2191 59.919 13.5284C61.5963 12.8378 63.471 12.4924 65.543 12.4924C67.615 12.4924 69.4773 12.8378 71.13 13.5284C72.8073 14.2191 74.238 15.1811 75.422 16.4144C76.606 17.6478 77.5187 19.0784 78.16 20.7064C78.8013 22.3098 79.122 24.0364 79.122 25.8864C79.122 27.7364 78.8013 29.4754 78.16 31.1034C77.5187 32.7314 76.606 34.1621 75.422 35.3954C74.238 36.6288 72.8073 37.6031 71.13 38.3184C69.4773 39.0091 67.615 39.3544 65.543 39.3544ZM65.543 34.6554C66.727 34.6554 67.8247 34.4458 68.836 34.0264C69.8473 33.5824 70.723 32.9658 71.463 32.1764C72.2277 31.3624 72.8073 30.4251 73.202 29.3644C73.6213 28.3038 73.831 27.1444 73.831 25.8864C73.831 24.6284 73.6213 23.4691 73.202 22.4084C72.8073 21.3478 72.2277 20.4228 71.463 19.6334C70.723 18.8441 69.8473 18.2398 68.836 17.8204C67.8247 17.3764 66.727 17.1544 65.543 17.1544C64.359 17.1544 63.2613 17.3764 62.25 17.8204C61.2387 18.2398 60.3507 18.8441 59.586 19.6334C58.846 20.4228 58.2663 21.3478 57.847 22.4084C57.4523 23.4691 57.255 24.6284 57.255 25.8864C57.255 27.1444 57.4523 28.3038 57.847 29.3644C58.2663 30.4251 58.846 31.3624 59.586 32.1764C60.3507 32.9658 61.2387 33.5824 62.25 34.0264C63.2613 34.4458 64.359 34.6554 65.543 34.6554Z" fill="#1E4CF4"/>
<path d="M109.168 39.3544V34.6924H113.83V18.1164H109.168V13.4544H123.783V18.1164H119.121V34.6924H123.783V39.3544H109.168Z" fill="#1E4CF4"/>
<path d="M127.853 39.3544V21.0024C127.853 19.5964 128.186 18.3261 128.852 17.1914C129.543 16.0568 130.456 15.1564 131.59 14.4904C132.75 13.7998 134.02 13.4544 135.401 13.4544H144.762V18.1164H135.993C135.204 18.1164 134.526 18.4001 133.958 18.9674C133.416 19.5348 133.144 20.2131 133.144 21.0024V25.1834H143.504V29.8454H133.144V39.3544H127.853Z" fill="#1E4CF4"/>
<path fill-rule="evenodd" clip-rule="evenodd" d="M83.2631 40.3544V26.6264H94.7151C95.4857 26.6264 96.1754 26.48 96.7919 26.195C97.3984 25.8904 97.868 25.4612 98.2113 24.9033L98.2185 24.8917C98.5778 24.3421 98.7661 23.7164 98.7661 22.8714C98.7661 22.0264 98.578 21.4006 98.2187 20.851C97.8501 20.2874 97.3669 19.869 96.7616 19.5879L96.7517 19.5833L96.742 19.5783C96.1551 19.274 95.4833 19.1164 94.7151 19.1164H82.9891L79.2317 19.9612L79.0123 18.9856L82.8781 18.1164H94.7151C95.6204 18.1164 96.4499 18.3025 97.1925 18.6855C97.964 19.0458 98.5875 19.5878 99.0556 20.3038C99.535 21.0369 99.7661 21.8585 99.7661 22.8714C99.7661 23.8817 99.5361 24.7017 99.0593 25.4334C98.6148 26.1533 98.0024 26.7078 97.2327 27.0926L97.2263 27.0958L97.2197 27.0989C96.4566 27.4532 95.6191 27.6264 94.7151 27.6264H84.2631V39.3544H88.5541V31.2884H95.0831L98.1461 36.7939C98.5968 37.5583 99.2028 38.1758 99.9702 38.6503C100.753 39.1192 101.612 39.3544 102.559 39.3544H105.389V35.6924H103.373C103.113 35.6924 102.861 35.6434 102.632 35.5286L102.604 35.5147L102.578 35.4974C102.375 35.3621 102.204 35.1917 102.069 34.9887L102.06 34.9744L99.4354 30.3822L99.8682 30.1338C101.128 29.4107 102.14 28.4337 102.91 27.1973C103.671 25.9523 104.057 24.5155 104.057 22.8714C104.057 21.1772 103.658 19.7181 102.876 18.4758L102.872 18.4701C102.106 17.2165 101.064 16.2426 99.7363 15.5439L99.7269 15.5389C98.4254 14.8185 96.9682 14.4544 95.3441 14.4544H83.122V13.4544H95.3441C97.1222 13.4544 98.7467 13.8542 100.207 14.6614C101.688 15.4419 102.863 16.5383 103.724 17.9458C104.618 19.3669 105.057 21.0148 105.057 22.8714C105.057 24.68 104.63 26.3014 103.763 27.7201L103.761 27.7237C102.992 28.9585 102.001 29.9659 100.793 30.7419L102.91 34.4467C102.964 34.5248 103.028 34.5908 103.105 34.6462C103.169 34.6732 103.255 34.6924 103.373 34.6924H106.389V40.3544H102.559C101.435 40.3544 100.396 40.0722 99.4529 39.5061L99.4474 39.5028C98.5404 38.9426 97.8163 38.2057 97.2812 37.2959L97.2751 37.2855L94.4951 32.2884H89.5541V40.3544H83.2631ZM31.6572 39.8734V20.5214C31.6572 18.9501 32.0315 17.503 32.7938 16.2042L32.7979 16.1973L32.802 16.1905C33.5772 14.917 34.6079 13.899 35.8852 13.1487C37.2024 12.3646 38.6493 11.9734 40.2052 11.9734H50.5662V18.6354H40.7972C40.2815 18.6354 39.8584 18.8079 39.4772 19.1857C39.1189 19.5638 38.9482 19.9918 38.9482 20.5214V23.7024H49.3082V30.3644H38.9482V39.8734H31.6572ZM37.9482 29.3644H48.3082V24.7024H37.9482V20.5214C37.9482 19.7321 38.2196 19.0538 38.7622 18.4864C39.3296 17.9191 40.0079 17.6354 40.7972 17.6354H49.5662V12.9734H40.2052C38.8239 12.9734 37.5536 13.3188 36.3942 14.0094C35.2596 14.6754 34.3469 15.5758 33.6562 16.7104C32.9902 17.8451 32.6572 19.1154 32.6572 20.5214V38.8734H37.9482V29.3644ZM59.53 39.2397L59.5218 39.2362C57.7538 38.4709 56.2235 37.4222 54.9426 36.088C53.6662 34.7584 52.6835 33.2163 51.9956 31.47C51.3057 29.7186 50.964 27.8546 50.964 25.8864C50.964 23.9193 51.3053 22.0665 51.9965 20.3375C52.6844 18.5922 53.6668 17.0509 54.9426 15.7219C56.2261 14.3849 57.7604 13.3467 59.5334 12.6058L59.5382 12.6037C61.3523 11.8568 63.3588 11.4924 65.543 11.4924C67.7259 11.4924 69.7215 11.8564 71.5133 12.6048C73.31 13.345 74.858 14.383 76.1434 15.7219C77.4191 17.0508 78.4014 18.592 79.0893 20.3372C79.7806 22.0663 80.122 23.9192 80.122 25.8864C80.122 27.8546 79.7803 29.7186 79.0904 31.47C78.4025 33.2163 77.4198 34.7584 76.1434 36.088C74.86 37.4248 73.3151 38.4737 71.5223 39.2383L71.5156 39.2411C69.7232 39.9902 67.7268 40.3544 65.543 40.3544C63.3588 40.3544 61.3523 39.9901 59.5382 39.2431L59.53 39.2397ZM71.13 13.5284C69.4773 12.8378 67.615 12.4924 65.543 12.4924C63.471 12.4924 61.5963 12.8378 59.919 13.5284C58.2663 14.2191 56.848 15.1811 55.664 16.4144C54.48 17.6478 53.5673 19.0784 52.926 20.7064C52.2847 22.3098 51.964 24.0364 51.964 25.8864C51.964 27.7364 52.2847 29.4754 52.926 31.1034C53.5673 32.7314 54.48 34.1621 55.664 35.3954C56.848 36.6288 58.2663 37.6031 59.919 38.3184C61.5963 39.0091 63.471 39.3544 65.543 39.3544C67.615 39.3544 69.4773 39.0091 71.13 38.3184C72.8073 37.6031 74.238 36.6288 75.422 35.3954C76.606 34.1621 77.5187 32.7314 78.16 31.1034C78.8013 29.4754 79.122 27.7364 79.122 25.8864C79.122 24.0364 78.8013 22.3098 78.16 20.7064C77.5187 19.0784 76.606 17.6478 75.422 16.4144C74.238 15.1811 72.8073 14.2191 71.13 13.5284ZM70.7335 31.4925L70.7342 31.4918C71.4065 30.7761 71.9159 29.9533 72.2648 29.0157L72.2683 29.0062L72.272 28.9968C72.6406 28.0646 72.831 27.0315 72.831 25.8864C72.831 24.7413 72.6406 23.7082 72.272 22.7761L72.2683 22.7667L72.2648 22.7572C71.9169 21.8221 71.4103 21.0163 70.7448 20.3292L70.7391 20.3233L70.7335 20.3174C70.0918 19.6329 69.3347 19.1098 68.453 18.7442L68.4435 18.7402L68.434 18.7361C67.5583 18.3516 66.5987 18.1544 65.543 18.1544C64.4873 18.1544 63.5277 18.3516 62.652 18.7361L62.6425 18.7402L62.633 18.7442C61.7508 19.11 60.9787 19.6346 60.3099 20.3233C59.6655 21.0123 59.1549 21.8234 58.7807 22.7666C58.4342 23.7015 58.255 24.7381 58.255 25.8864C58.255 27.0347 58.4342 28.0714 58.7807 29.0062C59.1549 29.9497 59.6667 30.7757 60.3153 31.492C60.9844 32.1798 61.758 32.7169 62.6425 33.1066C63.5203 33.469 64.4835 33.6554 65.543 33.6554C66.6025 33.6554 67.5657 33.469 68.4435 33.1066C69.3297 32.7161 70.0901 32.1787 70.7335 31.4925ZM68.836 34.0264C67.8247 34.4458 66.727 34.6554 65.543 34.6554C64.359 34.6554 63.2613 34.4458 62.25 34.0264C61.2387 33.5824 60.3507 32.9658 59.586 32.1764C58.846 31.3624 58.2663 30.4251 57.847 29.3644C57.4523 28.3038 57.255 27.1444 57.255 25.8864C57.255 24.6284 57.4523 23.4691 57.847 22.4084C58.2663 21.3478 58.846 20.4228 59.586 19.6334C60.3507 18.8441 61.2387 18.2398 62.25 17.8204C63.2613 17.3764 64.359 17.1544 65.543 17.1544C66.727 17.1544 67.8247 17.3764 68.836 17.8204C69.8473 18.2398 70.723 18.8441 71.463 19.6334C72.2277 20.4228 72.8073 21.3478 73.202 22.4084C73.6213 23.4691 73.831 24.6284 73.831 25.8864C73.831 27.1444 73.6213 28.3038 73.202 29.3644C72.8073 30.4251 72.2277 31.3624 71.463 32.1764C70.723 32.9658 69.8473 33.5824 68.836 34.0264ZM108.168 40.3544V33.6924H112.83V19.1164H108.168V12.4544H124.783V19.1164H120.121V33.6924H124.783V40.3544H108.168ZM119.121 34.6924V18.1164H123.783V13.4544H109.168V18.1164H113.83V34.6924H109.168V39.3544H123.783V34.6924H119.121ZM126.853 40.3544V21.0024C126.853 19.4311 127.228 17.9839 127.99 16.6852L127.994 16.6783L127.998 16.6715C128.773 15.3979 129.804 14.3798 131.082 13.6295C132.399 12.8456 133.846 12.4544 135.401 12.4544H145.762V19.1164H135.993C135.478 19.1164 135.055 19.2889 134.673 19.6667C134.315 20.0448 134.144 20.4728 134.144 21.0024V24.1834H144.504V30.8454H134.144V40.3544H126.853ZM133.144 29.8454H143.504V25.1834H133.144V21.0024C133.144 20.2131 133.416 19.5348 133.958 18.9674C134.526 18.4001 135.204 18.1164 135.993 18.1164H144.762V13.4544H135.401C134.02 13.4544 132.75 13.7998 131.59 14.4904C130.456 15.1564 129.543 16.0568 128.852 17.1914C128.186 18.3261 127.853 19.5964 127.853 21.0024V39.3544H133.144V29.8454Z" fill="black"/>
<path d="M30.5645 46.9734L172.564 47.5603" stroke="black"/>
<path d="M171.064 16.0645C171.064 19.9904 170.076 23.5209 168.504 26.0538C166.927 28.5942 164.813 30.0645 162.564 30.0645C160.315 30.0645 158.202 28.5942 156.625 26.0538C155.053 23.5209 154.064 19.9904 154.064 16.0645C154.064 12.1385 155.053 8.60798 156.625 6.07509C158.202 3.53469 160.315 2.06445 162.564 2.06445C164.813 2.06445 166.927 3.53469 168.504 6.07509C170.076 8.60798 171.064 12.1385 171.064 16.0645Z" fill="white" stroke="black"/>
<path d="M192.064 16.0645C192.064 19.9904 191.076 23.5209 189.504 26.0538C187.927 28.5942 185.813 30.0645 183.564 30.0645C181.315 30.0645 179.202 28.5942 177.625 26.0538C176.053 23.5209 175.064 19.9904 175.064 16.0645C175.064 12.1385 176.053 8.60798 177.625 6.07509C179.202 3.53469 181.315 2.06445 183.564 2.06445C185.813 2.06445 187.927 3.53469 189.504 6.07509C191.076 8.60798 192.064 12.1385 192.064 16.0645Z" fill="white" stroke="black"/>
<ellipse cx="167.564" cy="15.0645" rx="4" ry="5.5" fill="black"/>
<ellipse cx="188.564" cy="15.0645" rx="4" ry="5.5" fill="black"/>
<path d="M178.064 31.4747C178.064 32.4095 177.556 33.2955 176.655 33.9654C175.754 34.6352 174.487 35.0645 173.064 35.0645C171.642 35.0645 170.375 34.6352 169.474 33.9654C168.573 33.2955 168.064 32.4095 168.064 31.4747C168.064 31.0055 168.189 30.7442 168.353 30.5776C168.53 30.398 168.818 30.261 169.269 30.1751C169.718 30.0896 170.271 30.065 170.924 30.0645C171.241 30.0642 171.574 30.0696 171.924 30.0752L171.948 30.0756C172.306 30.0813 172.68 30.0872 173.064 30.0872C173.449 30.0872 173.823 30.0813 174.181 30.0756L174.205 30.0752C174.555 30.0696 174.888 30.0642 175.205 30.0645C175.858 30.065 176.411 30.0896 176.86 30.1751C177.311 30.261 177.599 30.398 177.776 30.5776C177.94 30.7442 178.064 31.0055 178.064 31.4747Z" fill="white" stroke="black"/>
</svg>
