<svg width="240" height="324" viewBox="0 0 240 324" fill="none" xmlns="http://www.w3.org/2000/svg">
<path fill-rule="evenodd" clip-rule="evenodd" d="M140.038 286.762C122.894 286.81 112.625 286.609 93.2323 286.328C70.787 285.734 64.738 286.803 52.1637 284.333C50.2412 283.924 48.7786 283.305 47.2951 282.442C46.7633 283.043 45.8618 283.938 45.0058 283.346C43.4289 282.303 44.1518 278.661 43.7608 276.605C43.1134 258.496 42.078 239.846 45.6176 221.956C43.4718 221.258 30.898 216.083 30.2113 214.35C41.582 184.606 66.5255 149.8 99.3436 151.111C100.004 151.925 100.591 153.13 101.323 153.959C105.785 152.287 111.979 150.612 112.285 144.177C113.057 139.882 113.614 135.872 113.986 131.925C114.053 131.473 114.595 131.318 114.927 131.126C115.068 130.105 115.393 129.062 116.097 128.362C121.849 127.845 134.978 130.218 138.423 131.196C143.124 132.001 142.635 137.047 143.51 140.872C144.898 145.601 145.865 150.509 147.927 155.129C148.394 155.193 149.701 155.421 150.183 155.505C150.208 154.982 149.963 153.428 150.443 153.111C151.332 152.217 151.537 153.918 151.735 154.472C171.157 150.803 183.858 167.291 188.114 185.708C191.196 194.97 195.28 204.343 200.612 214.396C203.955 220.637 194.35 221.797 190.323 224.288C194.478 240.462 194.978 256.933 195.66 273.235C195.84 275.742 196.085 279.152 195.197 280.4C194.776 280.727 194.483 280.718 194.056 280.742C193.232 281.632 191.818 281.573 190.628 281.827C186.865 282.511 183.01 282.968 179.388 283.038C169.221 289.332 153.546 285.812 140.038 286.762Z" fill="white"/>
<rect x="80.493" y="176.689" width="92.5352" height="60.8689" fill="white"/>
<path fill-rule="evenodd" clip-rule="evenodd" d="M112.571 131.912C113.106 129.238 117.519 129.858 117.318 132.555C115.09 142.594 116.447 154.815 102.366 153.827C111.304 169.555 138.905 179.121 147.827 158.471C143.43 157.947 142.561 147.551 142.03 143.913L142.008 143.588C141.89 141.717 141.93 139.983 143.054 138.383C144.176 139.223 144.627 140.745 145.007 142.132L145.285 143.244C146.215 146.947 147.188 150.633 148.663 154.168L148.716 154.176C148.642 151.779 151.718 150.683 152.481 153.251C173.294 150.384 184.68 167.566 189.172 185.537C192.449 195.373 196.72 204.837 201.572 213.985C205.234 221.133 196.342 222.769 191.638 225.147C195.256 239.646 195.966 254.666 196.636 269.537C196.414 272.711 197.848 279.221 195.933 281.497C193.096 283.717 191.568 279.911 192.004 277.471C192.412 260.216 190.615 243.037 190.1 225.809C186.548 227.31 182.954 228.693 179.319 229.977C179.504 246.144 181.426 262.31 182.111 278.394C183.01 279.103 183.507 280.331 182.739 281.402C178.627 287.139 171.193 287.996 164.651 288.078C149.085 288.273 133.502 288.213 117.934 288.167C102.642 287.82 87.2166 288.8 72.0054 287.047C69.0244 289.286 68.4147 284.458 68.8139 282.399L68.9656 278.273C69.0676 275.523 69.1756 272.773 69.3147 270.024L69.6613 263.323C70.2415 252.155 70.8566 240.992 71.8323 229.846C62.9963 228.637 54.2872 226.492 45.8557 223.597C46.5497 242.947 45.126 262.505 47.5 281.757C49.0666 283.883 45.9248 285.88 44.0908 284.548C41.8163 282.813 42.7917 279.419 42.3375 276.921L42.2792 275.306C41.6426 257.892 40.7728 240.112 44.0175 222.936L42.6218 222.395C38.3674 220.733 27.4264 216.29 28.8611 214.097C40.2833 184.157 65.8342 148.345 99.6744 150.047C100.532 150.642 100.97 151.802 101.605 152.633L102.612 152.267C106.511 150.84 110.745 149.029 110.861 144.229C111.599 140.138 112.184 136.046 112.571 131.912ZM168.339 206.541C173.187 199.758 139.566 210.478 137.175 211.186L136.275 211.514C121.55 216.869 105.675 222.048 93.9335 232.722C93.6867 232.992 93.9939 233.366 94.3131 233.214L94.354 233.19C94.8212 232.93 96.8438 232.208 95.4109 232.481C112.377 221.778 132.087 215.899 151.347 210.756C154.146 210.079 156.958 209.457 159.781 208.89C162.629 208.198 165.843 208.206 168.339 206.541ZM115.213 204.334C115.627 202.643 118.413 187.105 113.786 191.367C112.552 193.603 112.078 196.194 111.856 198.711C111.26 201.647 112.766 204.81 111.301 207.516C109.99 211.05 105.17 215.179 104.848 208.613C112.734 208.343 110.366 198.348 104.998 201.438C102.058 203.955 101.549 208.695 103.021 212.167C100.645 209.579 96.7911 209.57 94.0404 207.618C89.0728 202.246 97.4164 196.656 101.96 194.721C102.216 194.439 105.94 193.141 105.151 192.984C101.584 193.017 98.0101 193.776 94.9321 195.653C88.5616 198.762 86.3933 208.388 93.6808 211.762C95.2566 212.521 96.9812 212.93 98.5414 213.714C102.473 215.753 101.203 218.315 97.1439 218.39C95.4744 218.755 89.9652 217.226 90.5821 220.153C91.5787 221.983 93.7488 222.256 95.65 222.307C100.731 222.655 107.05 219.784 104.178 213.804C107.645 216.758 111.973 212.628 113.459 209.418C115.269 212.97 119.82 211.9 122.388 209.799C126.312 212.89 131.236 209.454 132.984 205.616C133.02 206.415 133.056 207.213 133.094 208.012C133.173 209.648 135.708 210.174 136.083 208.416C136.653 205.745 137.439 203.103 138.52 200.592C141.007 193.991 142.528 196.968 142.615 202.14C142.921 204.082 143.893 205.823 146.039 205.954C146.637 205.99 147.417 205.458 147.511 204.833L147.634 204.006C147.896 202.272 148.198 200.488 148.853 198.859C149.483 204.25 156.54 204.224 158.508 199.754C162.59 202.205 166.873 198.781 168.776 195.24L168.833 195.133C169.498 193.922 167.808 192.457 166.842 193.596L166.507 193.945C164.685 195.832 161.786 198.567 159.39 196.237C159.47 195.187 159.438 194.114 159.373 193.08C159.296 191.847 157.595 190.751 156.628 191.853C155.265 190.695 153.572 190.861 152.146 191.67C148.453 192.714 146.127 196.31 145.326 199.884C145.241 197.028 144.307 193.93 141.171 193.661C137.957 193.634 136.727 197.227 135.632 199.646C135.568 198.563 135.507 197.48 135.452 196.396C135.357 194.532 132.772 194.552 132.561 196.341L132.555 196.397C132.148 200.264 130.007 209.527 124.604 207.714C126.882 205.204 131.003 197.553 127.085 195.17C121.056 193.652 117.963 203.167 120.534 207.595L120.401 207.689C118.932 208.703 116.504 209.831 115.684 207.559L115.591 207.349C115.17 206.389 114.798 205.348 115.213 204.334ZM106.587 203.261C107.729 202.595 108.135 204.802 107.844 205.543C107.377 206.732 106.103 207.394 104.834 207.847L104.838 207.713C104.894 206.355 105.347 203.986 106.587 203.261ZM125.805 197.75C125.831 197.909 125.789 198.104 125.783 198.251C125.588 200.854 124.431 203.352 122.821 205.383C121.895 202.624 123.089 198.978 125.805 197.75ZM153.253 194.496C153.993 194.301 154.777 194.355 155.54 194.562C155.485 195.429 155.673 196.297 156.051 197.093C154.082 203.008 149.453 198.454 153.253 194.496Z" fill="black"/>
<path fill-rule="evenodd" clip-rule="evenodd" d="M130.201 50.4504C139.64 50.4504 150.965 55.0377 151.928 55.1295L151.954 55.1308C152.46 55.1308 154.44 56.6427 157.892 59.6664L154.153 66.9778L154.455 67.2675C155.903 68.6593 157.14 69.9279 158.115 70.9279C166.083 79.0933 167.515 111.153 165.637 122.333C163.759 133.513 160.282 144.454 144.091 144.454C127.9 144.454 109.887 134.694 107.113 131.655C105.263 129.628 103.185 128.658 100.879 128.743C100.784 128.623 100.69 128.503 100.597 128.384L100.258 128.336C97.0666 127.872 94.78 127.249 93.3981 126.465C90.699 124.934 87.7322 116.886 87.7322 115.113C87.7322 113.358 83.3023 100.59 83.2137 99.2387L83.2123 99.2013C83.2123 98.0717 77.425 92.8794 77.425 91.2304C77.425 89.5814 76.2585 89.6814 77.425 83.8707L77.7639 82.1636C79.0053 75.9768 81.435 65.7324 90.699 61.2809C100.879 56.3891 120.667 50.4504 130.201 50.4504Z" fill="white"/>
<path fill-rule="evenodd" clip-rule="evenodd" d="M157.403 60.6822L157.89 59.7287C154.438 56.705 152.459 55.1932 151.952 55.1932L151.926 55.1918C151.722 55.1723 151.05 54.9502 150.029 54.6125C147.177 53.6692 141.598 51.8238 135.843 50.9683L128.371 62.8836C124.444 63.4843 120.951 64.2437 118.411 65.2102C115.129 66.4589 112.542 69.4154 110.505 72.9901C108.459 76.5802 106.91 80.8982 105.753 85.0356C104.594 89.1783 103.819 93.1704 103.335 96.1243C103.092 97.6022 102.922 98.8222 102.812 99.674C102.762 100.063 102.725 100.376 102.699 100.601L104.342 99.5461C104.327 99.6578 104.313 99.7644 104.3 99.8657C104.246 100.284 104.207 100.611 104.182 100.833C104.169 100.943 104.16 101.028 104.154 101.084L104.147 101.148L104.146 101.163L104.145 101.167L104.145 101.167L103.399 101.092L104.145 101.168L104.102 101.588L106.083 98.4283L154.487 67.362C154.476 67.3512 154.465 67.3405 154.454 67.3298L154.151 67.0401L156.624 62.2056C153.798 62.2912 150.546 62.4187 147.131 62.6087C141.939 62.8976 136.378 63.3304 131.36 63.9782C129.958 64.1593 128.603 64.3567 127.313 64.5716L128.371 62.8836C129.282 62.7443 130.217 62.6134 131.168 62.4906C136.235 61.8363 141.837 61.4009 147.048 61.111C150.815 60.9014 154.383 60.7676 157.403 60.6822ZM127.313 64.5716L106.083 98.4283L104.342 99.5461C104.45 98.7339 104.605 97.6493 104.815 96.3671C105.294 93.4481 106.057 89.5133 107.197 85.4397C108.338 81.3606 109.848 77.173 111.808 73.7327C113.777 70.277 116.142 67.6784 118.945 66.6121C121.076 65.8011 123.974 65.1278 127.313 64.5716ZM103.72 101.769L103.721 101.769L102.988 122.221L102.988 122.221L102.985 122.221L102.97 122.22L102.909 122.216C102.855 122.212 102.775 122.205 102.671 122.196C102.463 122.177 102.162 122.148 101.797 122.104C101.065 122.016 100.081 121.87 99.0615 121.64C98.0365 121.409 97.0055 121.1 96.1663 120.694C95.3055 120.278 94.7665 119.819 94.5494 119.355C94.2669 118.751 94.0456 117.867 93.8819 116.833C93.7202 115.81 93.6221 114.692 93.5639 113.649C93.5057 112.607 93.4879 111.65 93.4846 110.953C93.4829 110.605 93.4849 110.323 93.4873 110.128C93.4878 110.093 93.4882 110.062 93.4886 110.033C93.489 110.01 93.4893 109.989 93.4896 109.97L93.4908 109.904L93.492 109.847L93.4923 109.833L93.4924 109.83L93.4924 109.829L93.4924 109.829L93.5114 109.098L93.131 109.079C93.1817 109.005 93.2488 108.917 93.3375 108.812C93.6905 108.395 94.3108 107.807 95.3547 106.998C97.4456 105.378 99.5407 104.068 101.115 103.163C101.902 102.711 102.556 102.361 103.013 102.125C103.241 102.006 103.42 101.917 103.541 101.857C103.601 101.827 103.647 101.805 103.677 101.79L103.711 101.774L103.719 101.77L103.72 101.769Z" fill="white"/>
<path fill-rule="evenodd" clip-rule="evenodd" d="M89.1276 61.0512C94.2047 55.6487 123.029 47.2924 137.611 49.0637L138.049 49.1205C139.213 49.2685 140.36 49.4925 141.492 49.7968C145.15 50.6534 148.929 51.9505 151.952 54.117C154.476 55.8894 162.437 58.7839 160.091 63.4205C160.961 65.073 161.286 67.1147 160.698 68.7423C160.624 69.3045 160.451 69.8223 160.23 70.3591C162.088 73.109 163.56 76.2188 164.751 79.1766C166.833 86.6206 168.129 94.3674 168.319 101.962C168.95 116.392 167.372 133.627 154.836 142.958C147.263 148.871 135.4 149.069 126.89 141.738C126.407 141.165 124.136 139.619 124.894 139.348C125.119 139.587 125.351 139.819 125.587 140.048C125.577 140.022 125.574 139.997 125.579 139.969L125.357 139.768C124.939 139.38 124.397 138.817 125.014 138.927C125.041 138.959 125.071 138.987 125.1 139.018C125.231 139.097 125.33 139.165 125.406 139.225L125.446 139.257L125.434 139.244C125.078 138.864 124.865 138.477 125.397 138.724L125.467 138.758C125.703 139.008 125.943 139.247 126.188 139.479C126.184 139.452 126.188 139.424 126.203 139.395L125.975 139.174C125.752 138.955 125.786 138.954 125.895 138.777C125.422 138.113 126.305 138.508 126.367 138.767C126.92 138.636 127.405 139.676 127.761 139.802C143.361 151.826 166.001 141.157 165.634 107.653L165.629 106.998C165.521 96.2844 164.622 85.2732 160.202 75.5752C159.772 74.6411 159.291 73.7323 158.762 72.853C158.398 72.1936 158.008 71.5511 157.588 70.9255C156.413 70.8304 155.254 70.6148 154.112 70.2809C153.719 70.1816 153.331 70.0717 152.944 69.9427C147.277 70.2526 141.736 70.5897 136.053 70.9092L134.278 71.0201C129.464 71.3303 124.486 71.8273 120.601 74.8123C116.79 77.5298 116.772 82.8886 113.509 85.8722C108.856 89.038 108.823 91.8927 107.927 96.5581C107.993 100.075 110.425 105.185 105.962 106.665C106.715 107.741 105.665 107.224 105.582 106.847C105.574 106.849 105.566 106.851 105.559 106.851C106.23 108.101 105.244 107.314 105.157 106.912C105.104 106.897 105.051 106.859 104.998 106.806C105.675 107.902 104.582 107.135 104.646 106.935C103.34 104.922 100.651 104.61 98.7558 105.143C98.7326 105.215 98.6485 105.221 98.5958 105.183C90.5367 106.934 92.616 123.66 100.875 122.043C101.228 121.97 101.22 122.141 101.29 122.157C101.099 121.655 101.637 121.859 101.631 121.965L101.664 121.963C101.69 121.961 101.68 121.958 101.699 121.965C101.514 120.938 102.552 122.425 102.47 122.487C102.502 122.468 102.538 122.457 102.57 122.453L102.534 122.355C102.362 121.895 102.377 122.086 102.378 121.823C102.248 121.497 102.239 121.64 102.269 121.427C102.724 121.074 102.858 122.146 103.01 122.224C102.75 121.861 102.957 121.564 103.202 121.761C105.062 125.684 107.465 129.369 110.57 132.272C110.91 132.54 111.254 132.805 111.61 133.054C112.93 134.207 114.956 134.949 116.193 135.971C116.193 135.988 116.185 136.009 116.172 136.03L116.2 136.055L116.229 136.083L116.659 136.29C116.786 136.398 116.899 136.518 117 136.651C117.108 136.776 117.203 136.913 117.283 137.059C117.323 137.237 117.235 137.311 117.066 137.235C116.992 137.209 116.918 137.18 116.845 137.152C116.849 137.158 116.851 137.163 116.855 137.167C116.879 137.204 117.043 137.584 116.854 137.522L116.832 137.514C116.728 137.475 116.625 137.433 116.524 137.393C116.644 137.543 116.754 137.706 116.851 137.843C116.954 137.951 117.017 138.078 117.043 138.222C117.038 138.302 116.994 138.336 116.914 138.325C116.792 138.285 116.672 138.243 116.551 138.198L116.586 138.264C116.671 138.431 116.791 138.713 116.577 138.619C116.393 138.562 116.216 138.496 116.039 138.424C116.024 138.454 115.995 138.465 115.936 138.437C115.373 138.236 114.829 137.991 114.308 137.702C113.851 137.368 113.389 137.04 112.93 136.708C112.497 136.448 112.08 136.159 111.682 135.833C109.015 134.107 106.681 131.914 104.83 129.472C101.733 132.16 95.5414 129.592 91.7114 127.487C88.3237 125.606 86.9921 122.128 86.6479 118.378C85.9321 113.33 81.8169 111.602 82.1032 100.525C82.0969 100.527 82.0903 100.527 82.0819 100.527C81.9322 100.483 81.787 100.424 81.6499 100.348C81.5087 100.28 81.3759 100.2 81.2513 100.102L81.0974 99.889C81.0175 99.8446 80.9458 99.7981 80.891 99.7516L80.8625 99.7883C80.7726 99.8972 80.833 99.7334 80.8383 99.7009L80.5709 99.3364C79.937 98.4687 79.2415 97.4952 78.675 96.7166L78.6572 96.7482C78.6444 96.7721 78.6376 96.7894 78.6436 96.7969C77.2954 94.855 76.0275 92.5095 75.6752 90.2387C75.2593 88.4896 75.4218 86.6872 75.7846 85.067C77.3403 79.3933 82.4363 66.5542 89.1276 61.0512ZM125.715 139.516L125.631 139.44L125.705 139.534C125.744 139.582 125.784 139.625 125.849 139.669C125.845 139.655 125.845 139.64 125.846 139.623C125.803 139.59 125.759 139.554 125.715 139.516ZM137.547 51.9146C127.658 51.0622 117.931 53.2463 108.494 55.8901L107.843 56.0776C102.477 57.6126 96.8036 58.9938 92.269 62.2792C85.9336 67.1438 82.6621 74.8826 79.8071 82.0278C77.3142 87.3364 78.5886 93.3225 82.3454 97.0294C82.7363 93.3458 83.4027 89.7699 84.4442 86.2228C84.6615 85.6687 84.4971 85.4871 84.9655 85.4149C85.673 94.9738 82.1884 102.036 89.0843 113.365C92.0765 118.711 88.6127 122.622 97.0625 125.435L97.2911 125.522C99.0515 126.188 100.974 126.714 102.698 126.342L102.544 126.09C102.386 125.83 102.338 125.704 102.567 125.593C102.561 125.581 102.553 125.568 102.544 125.553C102.359 125.202 102.18 124.847 102.009 124.488C101.939 124.511 101.87 124.528 101.798 124.547C101.845 124.634 101.851 124.721 101.72 124.75C101.256 124.91 100.779 124.974 100.29 124.944L100.185 124.936C99.6337 124.902 99.286 124.801 98.9751 124.708C98.872 124.691 98.7687 124.674 98.6673 124.653C97.6669 124.431 96.6079 123.865 95.9226 123.304C88.1099 118.856 88.9174 103.713 98.5473 102.281C98.7448 92.747 103.268 76.6616 110.776 67.5763C117.562 59.2193 136.088 55.5971 148.976 56.8743C149.164 56.9367 149.352 56.9997 149.54 57.0633C151.528 57.2404 153.423 58.1285 155.413 58.541C153.985 57.4676 152.364 56.7526 150.694 56.145C147.368 54.1052 143.555 53.0015 139.87 52.2231C139.107 52.035 138.334 51.9315 137.547 51.9146ZM98.1065 109.941C98.6243 109.659 98.5651 109.931 98.6842 109.852C102.409 109.547 106.425 112.816 108.506 115.542C108.342 115.713 107.897 115.205 107.819 115.125C107.809 115.136 107.796 115.144 107.783 115.148L107.841 115.23C108.685 116.444 107.012 115.016 106.856 114.722C106.828 114.736 106.801 114.745 106.769 114.738C106.902 114.869 107.307 115.209 107.376 115.451L107.484 115.54C108.496 116.409 108.412 117.063 107.263 115.829C107.29 115.886 107.3 115.939 107.281 115.981L107.321 116.008C107.886 116.404 108.351 117.507 107.17 116.374C107.293 117.202 105.999 115.602 105.958 115.613C103.719 113.852 100.423 112.139 97.6153 111.908L97.5187 111.897C97.0034 111.831 96.7598 111.678 96.9407 111.34C96.3061 111.189 96.4547 110.875 96.7552 110.885C96.3076 110.59 96.7105 110.308 96.9702 110.418C96.7916 109.923 97.5078 110.253 97.5732 110.184C97.9448 109.609 98.045 110.088 98.1065 109.941ZM90.2998 79.221C92.0886 78.5641 97.3725 80.5305 96.9498 83.1348C96.6981 83.7327 95.8687 84.0753 95.2858 83.7378L94.5249 83.2255C93.2009 82.3366 92.0068 81.5571 90.5853 80.7818C89.8116 80.397 89.4785 79.5799 90.2998 79.221ZM100.477 75.3509L99.7864 74.9002C96.0582 72.4541 90.7878 68.7477 100.135 72.5824C101.2 73.0404 102.615 73.3114 103.197 74.3284C104.11 76.2029 101.707 76.3288 100.477 75.3509ZM100.896 64.3757C100.597 63.2376 104.319 64.5731 105.403 64.9252L105.568 64.9877C106.622 65.3815 107.831 65.7468 108.461 66.6587C109.2 67.9188 107.705 68.1798 106.779 67.6106C104.88 66.3666 102.798 65.428 100.896 64.3757ZM110.362 59.074C108.267 56.7802 113.874 58.9776 114.714 59.5876L114.738 59.6056C115.365 60.0479 115.238 61.0007 114.649 61.2805C112.974 61.3124 111.741 59.9124 110.362 59.074ZM119.897 56.5608C116.566 54.1609 120.954 55.3024 122.478 56.2429C123.516 57.1613 122.446 58.7115 119.897 56.5608Z" fill="black"/>
<path fill-rule="evenodd" clip-rule="evenodd" d="M152.125 125.777C153.46 125.466 154.509 126.597 154.247 127.899C153.969 129.278 152.487 129.751 151.244 129.707C149.835 129.659 148.427 129.368 147.012 129.309C145.557 129.249 144.097 129.238 142.641 129.277C141.295 129.314 139.914 129.551 138.578 129.338C138.058 129.255 138.107 128.568 138.445 128.324C139.45 127.599 140.752 127.304 141.937 126.999C143.144 126.689 144.379 126.452 145.617 126.307C146.873 126.16 148.139 126.086 149.403 126.072C149.978 126.065 150.683 126.193 151.244 126.09C151.53 126.037 151.821 125.848 152.125 125.777ZM148.271 107.866C149.866 108.836 152.297 111.098 150.581 113.503C148.56 115.624 145.652 113.193 144.219 112.093C142.889 111.241 141.396 113.433 142.629 114.428C152.986 122.099 157.19 108.12 149.078 106.726C148.184 106.572 147.853 107.566 148.271 107.866ZM136.703 100.622C138.837 100.267 139.21 103.31 137.095 103.523C136.651 103.568 136.21 103.607 135.769 103.645C135.812 103.783 135.841 103.925 135.856 104.071C135.876 104.195 135.891 104.326 135.905 104.476C135.972 105.225 135.441 106.004 134.821 106.367C134.177 106.744 133.252 106.794 132.612 106.367C132.282 106.146 131.952 105.897 131.77 105.533C131.526 105.158 131.393 104.724 131.38 104.279C130.407 104.532 129.416 104.874 128.433 105.055C128.47 105.09 128.505 105.128 128.54 105.17C128.566 105.202 128.53 105.261 128.492 105.232L127.999 105.123C127.847 105.143 127.695 105.159 127.544 105.168L127.548 105.155C127.295 105.151 127.088 104.852 127.314 104.612C128.182 103.694 129.537 103.084 130.772 102.574L131.962 102.086C133.483 101.468 135.089 100.891 136.703 100.622ZM153.87 101.564C155.268 101.404 156.652 101.467 158.052 101.553C160.408 101.696 159.42 105.134 157.529 104.34C157.548 104.466 157.553 104.592 157.539 104.709C157.465 105.313 157.268 105.824 156.714 106.149C156.199 106.45 155.546 106.449 155.031 106.149C154.48 105.827 154.231 105.374 154.09 104.785C153.981 104.328 154.025 103.946 154.088 103.493C154.109 103.344 154.174 103.204 154.265 103.078C154.133 103.045 154.001 103.013 153.869 102.984C152.693 102.716 151.533 102.77 150.36 102.6C150.235 102.582 150.215 102.38 150.325 102.329C151.378 101.834 152.718 101.695 153.87 101.564ZM136.487 90.9473C137.294 90.6394 138.307 91.1515 138.719 91.8559C139.186 92.6552 138.987 93.578 138.41 94.2516C137.525 95.2848 135.84 95.9213 134.598 96.5109L134.499 96.5587C133.223 97.1741 131.913 97.7393 130.585 98.2317C129.28 98.7163 127.921 99.0959 126.567 99.4218C125.853 99.5936 125.124 99.7357 124.395 99.8253C123.819 99.8959 123.375 99.7378 122.824 99.7378C122.743 99.738 122.718 99.6313 122.784 99.5903C123.299 99.2665 123.681 98.8402 124.243 98.5403C124.827 98.2281 125.414 97.9212 126.003 97.6173C127.194 97.0031 128.341 96.3196 129.49 95.6317C130.701 94.9065 131.884 94.1429 133.035 93.3254C134.162 92.5255 135.2 91.4387 136.487 90.9473ZM150.861 90.2896C151.869 90.0941 152.866 90.5709 153.164 91.5979C153.45 92.5817 153.151 92.7926 153.914 93.4966C154.521 94.0577 155.177 94.5585 155.838 95.0516L156.811 95.7755C158.575 97.0811 160.352 98.3156 162.38 99.1965C162.551 99.2709 162.452 99.5256 162.289 99.529C159.067 99.5911 155.976 99.1547 153.067 97.7114C151.709 97.0372 150.343 96.1844 149.556 94.8385C148.644 93.28 148.671 90.7144 150.861 90.2896Z" fill="black"/>
</svg>
