<svg width="818" height="1199" viewBox="0 0 818 1199" fill="none" xmlns="http://www.w3.org/2000/svg">
<g clip-path="url(#clip0_3_55)">
<path fill-rule="evenodd" clip-rule="evenodd" d="M394.207 469.173C418.892 450.376 480.865 441.923 507.211 460.022C533.233 478.197 536.07 507.588 548.196 534.626C559.637 529.231 578.53 536.958 581.847 547.574C585.961 552.581 586.146 566.648 588.983 573.379C712.425 593.028 731.166 689.267 746.024 798.525C765.68 909.394 810.301 1020.02 790.93 1134.11C793.454 1137.76 795.444 1141.31 797.284 1145.52C801.693 1153.03 796.014 1163.65 787.121 1163.23C775.61 1162.22 764.213 1160.84 752.648 1160.41C720.588 1159.3 688.499 1159.43 656.427 1159.84L652.054 1159.9C490.421 1161.91 328.797 1165.87 167.157 1166.93C161.293 1166.93 158.422 1161.67 159.205 1156.49C160.782 1146.04 162.245 1135.59 163.772 1125.14C125.54 1135.24 84.8958 1137.78 46.7718 1126.2C44.1048 1123.49 52.9858 1124.96 54.3948 1124.55C19.3088 1100.57 29.7868 1050.06 32.8948 1013.69C52.2208 889.036 59.0338 751.118 133.703 644.751C166.006 601.343 213.365 566.975 267.784 559.242L269.294 559.035C285.206 556.914 302.939 556.23 316.852 547.574C332.499 535.083 339.167 512.002 355.628 511.786C361.064 511.715 368.459 518.591 376.416 523.26C377.01 512.989 382.545 504.322 383.767 496.358L383.866 495.677C385.141 486.393 383.395 478.04 394.207 469.173ZM659.495 801.818C624.804 777.719 535.191 789.828 533.14 791.177C528.623 794.148 526.678 794.411 524.235 798.269C521.823 798.589 519.413 798.921 517.005 799.263C512.174 800.841 515.754 806.783 521.334 804.663C517.978 819.137 527.855 829.431 531.787 843.74C533.064 848.386 531.833 856.743 531.787 861.49C532.168 867.543 538.86 874.693 537.745 880.765C533.78 902.354 512.262 923.414 521.334 944.351C527.344 956.176 545.42 962.206 557.438 966.226C582.337 975.782 625.721 965.866 640.188 944.351C647.905 932.875 656.844 903.928 661.445 894.949L662.465 880.705C664.98 845.298 667.217 807.183 659.495 801.818Z" fill="white"/>
<path fill-rule="evenodd" clip-rule="evenodd" d="M349.584 509.698C351.979 507.577 355.523 510.242 354.001 513.107C350.581 519.546 347.073 525.647 342.483 531.339C339.7 534.79 336.719 538.054 333.698 541.282C341.451 547.989 348.1 556.316 354.379 564.12C362.408 574.101 369.999 584.505 379.012 593.638C387.901 602.645 397.73 608.941 409.613 613.14L412.013 613.974C423.952 618.165 436.711 623.825 443.44 635.128C444.767 637.357 442.095 640.111 439.849 638.72C428.156 631.48 414.417 630.024 401.689 625.24C389.394 620.619 378.676 613.507 369.206 604.43C359.752 595.368 351.814 585.058 343.534 574.966C335.346 564.987 326.53 556.464 316.845 548.021C301.9 558.075 284.84 562.45 267.493 566.747L265.599 567.216C248.231 571.516 230.956 576.51 214.662 583.998C200.296 590.599 186.166 598.482 174.464 609.224C162.042 620.624 152.374 635.184 143.525 649.423C123.731 681.279 109.815 716.179 97.5643 751.503C84.8223 788.245 74.1643 825.723 65.5603 863.646C61.1843 882.936 57.6303 902.363 54.7093 921.926C53.3033 931.348 52.0543 940.79 50.9573 950.253C49.7863 960.358 49.5173 970.754 46.4173 980.47C45.0883 984.634 41.9503 986.362 38.8093 986.215L38.1713 994.194C37.3253 1004.83 36.5367 1015.47 36.2703 1026.18C35.8284 1043.97 36.0288 1061.72 37.309 1079.48L37.4903 1081.9C38.4963 1094.87 40.7443 1109.43 50.4913 1118.92C60.5853 1128.75 76.1083 1131.84 89.7133 1132.02C121.4 1132.43 151.902 1117.46 179.942 1104.32C208.82 1090.8 236.909 1075.78 264.325 1059.5C278.287 1051.21 292.098 1042.64 305.733 1033.82C312.424 1029.49 319.068 1025.09 325.662 1020.61C329.439 1018.05 333.018 1015.24 336.863 1012.97C334.979 1011.22 334.138 1008.46 335.716 1006.05C324.601 996.402 319.975 979.185 319.434 965.254C318.997 954.009 320.652 942.796 321.958 931.657C322.617 926.04 323.431 920.433 324.276 914.841C324.61 912.632 324.865 910.269 325.255 907.937C295.242 924.43 264.388 939.118 232.717 952.167C216.483 958.856 200.041 964.87 183.372 970.381L179.994 971.493C164.2 976.662 148.028 981.546 131.7 984.502C130.827 984.66 130.118 983.371 131.05 982.96C146.962 975.939 163.425 970.017 179.576 963.551L182.23 962.47C181.925 962.453 181.609 962.411 181.279 962.332C171.807 960.046 162.409 956.523 153.119 953.557C144.497 950.804 134.81 949.075 126.751 944.919C126.131 944.599 126.478 943.737 127.082 943.696C136.14 943.068 145.973 945.708 154.854 947.261L158.191 947.845C163.78 948.831 169.493 949.89 175.054 951.272C175.255 949.409 176.296 947.538 177.777 946.441C194.074 934.372 192.419 909.996 194.162 892.021L195.455 878.676C197.728 855.321 200.133 831.969 203.787 808.788C203.982 807.55 205.897 807.905 205.905 809.074C206.094 837.809 203.925 866.411 202.837 895.101L202.669 899.807C202.068 917.51 201.597 935.892 190.447 949.514C192.006 948.603 194.114 948.603 195.377 950.105C196.929 951.952 197.825 954.026 197.797 956.061C207.872 951.837 217.903 947.503 227.885 943.081C259.978 928.863 291.398 912.952 321.987 895.736C325.279 893.883 328.408 895.339 330.036 897.782L330.271 897.748C330.311 897.743 330.35 897.739 330.391 897.738L330.624 897.728C330.633 897.728 330.642 897.729 330.65 897.729C334.956 895.363 340.822 897.048 344.517 900.499C344.626 900.603 344.719 900.715 344.816 900.825C349.494 898.725 353.862 895.89 357.826 892.297C365.938 884.945 372.809 875.854 378.799 866.738C389.83 849.948 399.2 831.277 414.101 817.456C426.208 806.227 441.218 799.236 456.965 794.847C456.899 794.387 457.075 793.897 457.393 793.571C458.202 792.742 458.779 792.455 459.824 792.958C459.907 792.999 459.957 793.055 459.991 793.115L461.528 790.49C462.367 789.065 463.228 787.63 463.526 787.253C465.314 785.002 467.154 782.768 469.022 780.581C472.189 776.878 475.798 773.224 479.977 770.656C489.127 765.035 498.746 768.216 508.153 771.288C513.837 773.145 519.502 775.062 525.176 776.947L525.762 777.138C529.992 778.497 534.943 779.686 536.835 784.169C537.584 785.943 537.7 787.784 537.351 789.57C577.535 779.351 622.167 784.046 661.38 796.042C662.885 796.502 664.388 797.74 664.705 799.366C669.198 822.407 671.199 846.036 669.166 869.47C667.412 889.698 662.93 909.521 654.484 928.04L654.004 929.086C646.067 946.248 633.486 967.405 614.273 972.784C602.672 976.032 589.841 974.117 578.009 973.522C566.51 972.943 554.756 972.859 543.366 971.051C533.222 969.441 524.334 964.894 518.065 956.646C512.657 949.53 509.809 940.93 507.476 932.375C506.408 932.715 505.347 933.076 504.303 933.485C499.896 935.206 496.162 937.984 492.786 941.253C485.657 948.157 480.127 956.542 472.668 963.13C465.916 969.094 458.222 973.732 449.969 977.298C432.868 984.687 414.522 987.64 396.433 991.556L395.171 991.831C381.553 994.819 367.653 998.488 355.633 1005.58C355.398 1007.66 354.447 1009.63 352.923 1010.91C355.043 1012.91 355.941 1016.06 354.078 1019.02C348.874 1027.28 339.911 1031.97 331.864 1037.26L331.34 1037.6C323.424 1042.85 315.439 1047.99 307.389 1053.03C291.024 1063.28 274.317 1072.96 257.374 1082.22C230.123 1097.1 202.287 1111.15 173.947 1123.88C175.648 1132.25 175.027 1140.88 176.305 1149.31L176.501 1150.51C177.047 1153.63 176.31 1156.25 174.156 1158.29L173.928 1158.5L173.932 1158.47L173.73 1158.66L173.663 1158.72L173.685 1158.7C173.437 1158.93 173.181 1159.14 172.92 1159.32L172.587 1159.53C170.513 1160.79 167.843 1160.78 165.719 1159.67L165.476 1159.53L165.068 1159.3C162.262 1157.68 160.327 1153.68 161.491 1150.51C164.352 1142.7 165.433 1134.37 168.075 1126.51L165.979 1127.44L163.217 1128.65C133.339 1141.57 100.15 1152.45 67.5963 1143.64C53.2123 1139.75 39.7683 1131.51 32.5713 1118.09C25.4893 1104.89 24.4883 1089.55 24.1123 1074.86C23.6483 1056.73 24.6203 1038.32 27.0113 1020.35C28.6163 1008.28 30.5573 995.988 33.5513 984.047C32.0113 982.688 30.8793 980.739 30.5803 978.325C29.1673 966.92 31.6403 955.063 33.1543 943.717C34.6333 932.639 36.2673 921.583 38.1153 910.561C41.8463 888.302 46.1813 866.09 51.2283 844.092C60.2103 804.941 72.0713 766.486 86.3513 728.95L87.6018 725.68C100.797 691.372 116.076 657.794 137.35 627.654C147.527 613.234 158.285 600.16 172.665 589.769C186.137 580.033 201.333 573.023 217.015 567.665C232.714 562.303 248.85 558.71 265.271 556.475C281.948 554.205 299.551 552.813 315.108 545.973C313.14 542.445 314.829 537.682 318.141 535.494C329.287 528.13 339.594 518.55 349.584 509.698ZM706.39 829.919C706.857 829.21 707.966 829.658 707.761 830.497C702.34 852.706 697.251 874.96 693.928 897.593C687.929 938.443 689.033 979.826 689.523 1020.98L689.548 1023.11C689.8 1045.27 690.15 1067.44 690.883 1089.6C691.253 1100.8 691.985 1112.1 691.587 1123.31C691.37 1129.39 689.75 1135.13 689.176 1141.14C688.673 1146.39 689.121 1151.72 689.372 1156.98C689.54 1160.48 684.38 1160.33 684.029 1156.98L683.58 1152.65C682.997 1147.17 682.277 1141.73 680.481 1136.48C678.322 1130.18 677.286 1123.98 676.537 1117.36C675.39 1107.21 674.88 1096.96 674.437 1086.75L674.134 1079.68C672.285 1036.97 672.35 994.068 675.343 951.409L675.562 948.362C678.526 908.038 683.669 864.469 706.39 829.919ZM590.835 575.773C589.419 575.191 589.915 573.05 591.483 573.423L594.335 574.103C615.229 579.107 635.745 584.53 655.247 593.843C674.762 603.161 691.284 617.072 704.412 634.178C729.932 667.429 740.537 707.839 748.909 748.211C758.213 793.072 766.684 838.097 776.069 882.944L777.812 891.297C786.496 933.067 794.695 974.86 800.736 1017.12L801.17 1020.19C807.262 1063.65 810.927 1108.62 804.279 1152.19C802.964 1160.81 788.618 1158.67 789.179 1150.15C790.799 1125.53 791.959 1101.03 790.838 1076.35C789.716 1051.67 787.401 1027.1 783.95 1002.63C781.046 982.039 776.717 961.705 772.886 941.279L772.285 938.053C769.077 920.679 765.77 903.323 762.47 885.965L757.539 859.977C750.148 821.064 742.612 782.117 734.097 743.449L733.592 741.173C725.259 703.971 712.974 665.002 687.979 635.46C662.614 605.479 626.303 590.38 590.835 575.773ZM498.668 970.37C499.278 969.011 501.412 969.16 502.068 970.37C504.638 975.113 504.924 981.166 505.41 986.52L505.461 987.071C506.079 993.604 506.626 1000.16 506.961 1006.71C507.596 1019.15 507.9 1031.58 507.861 1044.03C507.821 1056.79 507.564 1069.54 506.876 1082.29L506.689 1085.7C506.061 1096.78 505.008 1109.13 499.745 1118.82C497.832 1122.34 492.629 1121.3 491.521 1117.74C487.891 1106.09 489.755 1092.27 490.686 1080.33L491.409 1071.01C492.125 1061.7 492.808 1052.38 493.349 1043.05C494.091 1030.29 494.703 1017.52 495.292 1004.75C495.483 1000.6 495.69 996.455 495.909 992.308L496.245 986.089C496.532 980.887 496.508 975.179 498.668 970.37ZM90.5203 986.89L92.1273 985.337C97.0603 980.51 103.294 973.075 110.587 973.536C113.495 973.72 115.348 976.134 114.745 978.995C113.457 985.111 107.218 988.285 102.727 992.019C97.8066 996.108 93.1696 1000.48 88.5416 1004.89C84.4358 1008.81 80.4873 1012.83 76.6335 1016.98L75.1926 1018.54C73.8112 1020.05 63.9741 1028.95 65.0377 1031.25L65.0956 1031.36C65.3916 1031.8 64.8986 1032.41 64.4076 1032.25C60.1596 1030.91 60.4246 1027.27 62.0306 1023.58C65.1166 1016.49 70.5206 1009.94 75.2396 1003.88C79.9459 997.845 85.0397 992.222 90.5203 986.89ZM514.061 809.137C510.776 801.373 498.675 801.536 491.805 802C474.505 803.169 455.787 807.546 440.394 815.632C424.436 824.015 413.686 837.447 404.067 852.3L403.617 852.997C394.242 867.57 385.213 884.821 370.533 894.841C363.056 899.946 354.325 904.607 345.253 906.626C344.63 907.721 343.621 908.588 342.298 908.903L341.683 909.044C339.099 909.614 335.085 910.246 331.618 909.868C331.641 911.564 331.623 913.247 331.666 914.854C331.788 919.459 331.84 924.084 331.84 928.692C331.842 938.347 331.323 948.021 331.726 957.675C332.083 966.214 333.289 975.136 337.389 982.769C340.396 988.369 344.365 992.075 349.156 995.613C360.942 988.43 374.269 984.052 387.795 980.76C404.153 976.779 420.902 974.122 436.888 968.724C444.582 966.125 451.979 962.724 458.681 958.105C465.794 953.2 471.227 946.564 476.817 940.073L477.691 939.064C483.396 932.522 489.621 926.261 497.683 922.714C504.626 919.658 513.777 919.114 519.848 914.386C523.022 911.912 523.288 908.322 523.622 904.646C519.734 905.202 515.618 904.311 511.743 903.857L509.736 903.621C506.071 903.186 502.491 902.707 498.884 901.775C498.214 901.602 498.214 900.592 498.884 900.419C503.147 899.318 507.372 898.849 511.743 898.337L512.77 898.209C516.724 897.69 520.881 896.908 524.759 897.778C525.455 895.13 526.46 892.602 527.87 890.07C529.849 886.513 533.594 882.48 534.1 878.325C534.251 877.084 533.962 875.621 533.377 874.524L533.176 874.15C532.93 873.708 532.638 873.264 532.212 872.989C532.165 873.044 532.065 873.107 531.848 873.175C528.863 874.115 526.259 872.654 524.877 870.402C519.01 871.13 512.607 870.885 507.105 871.128L501.542 871.397C495.598 871.67 489.384 871.789 483.798 870.588C483.018 870.421 482.782 869.123 483.563 868.789C490.43 865.852 498.76 864.915 506.112 863.787C510.218 863.156 514.354 862.676 518.472 862.121C521.214 861.751 524.124 861.14 526.965 860.993C534.088 852.126 530.25 838.138 520.337 834.32C516.726 835.907 513.479 834.984 509.534 834.645C505.596 834.307 501.648 834.078 497.694 834.095C489.771 834.13 481.375 836.214 473.529 835.317C472.253 835.17 471.067 833.472 472.336 832.436C478.342 827.535 486.95 825.937 494.573 824.892L496.153 824.681C498.709 824.346 501.817 823.857 505.041 823.566C505.77 822.144 507.078 821.069 509.043 820.802C509.627 820.722 510.214 820.675 510.8 820.625L510.791 820.567C515.583 820.337 515.375 812.243 514.061 809.137ZM185.992 960.562C185.908 960.693 185.815 960.817 185.716 960.937L185.564 961.113L186.352 960.793L185.992 960.562ZM597.683 791.788C577.513 789.621 557.314 790.078 537.084 790.66C535.466 795.952 529.834 800.462 524.377 800.632C528.651 807.137 529.092 815.941 526.095 822.84C532.458 825.373 537.94 829.923 541.268 836.403C545.883 845.386 545.279 855.382 540.718 863.684C544.611 867.208 546.908 872.931 546.678 878.325C546.421 884.34 542.836 889.478 539.857 894.458C536.638 899.844 536.53 904.586 535.541 910.618C534.094 919.446 528.14 924.8 520.479 928.144L520.887 929.746C522.862 937.434 525.319 945.546 530.964 951.168C538.226 958.4 549.492 958.333 559.086 958.791L559.549 958.814C568.335 959.253 577.117 959.768 585.899 960.265L592.486 960.634C602.598 961.19 612.309 961.257 620.564 954.572C634.041 943.66 643.28 925.601 649.128 909.614C661.402 876.058 661.549 839.233 655.915 804.285C637.02 798.195 617.415 793.908 597.683 791.788ZM429.945 847.459L430.093 847.47C434.246 847.944 437.099 851.307 438.115 855.296C439.591 861.094 438.867 866.336 442.418 871.57C446.071 876.952 448.317 881.261 448.848 887.91C449.066 890.646 448.966 893.375 449.575 896.053L450.016 897.929C450.485 899.93 450.869 901.857 450.636 904.005C450.423 905.964 449.469 907.49 447.504 908.118C441.101 910.166 436.157 905.448 434.503 899.481C433.074 894.327 434.982 888.185 432.966 883.345C431.849 880.662 429.789 878.418 428.625 875.717C427.472 873.04 426.893 870.243 426.708 867.333C426.357 861.829 431.225 855.216 428.509 850.229C427.93 849.165 428.585 847.427 429.945 847.459ZM344.892 790.661C349.228 789.78 354.147 787.761 358.423 789.439C360.621 790.303 361.707 792.983 359.85 794.846C356.626 798.078 351.94 798.258 347.597 799.02L347.215 799.089C342.08 800.039 336.936 800.94 331.785 801.794C322.094 803.399 312.38 804.818 302.632 806.024C292.62 807.263 282.58 808.366 272.526 809.196L268.634 809.516C260.141 810.195 251.304 810.707 242.971 809.406C241.76 809.217 241.955 807.454 242.971 807.145C252.1 804.382 262.114 803.641 271.552 802.472C281.586 801.227 291.603 799.912 301.594 798.352C311.569 796.794 321.531 795.122 331.456 793.274C335.942 792.44 340.421 791.569 344.892 790.661ZM501.346 781.79C497.541 780.443 493.355 778.447 489.232 779.115C482.122 780.267 475.794 787.194 470.166 791.756L472.992 791.207C487.452 788.428 506.599 785.434 518.737 794.627C518.768 794.574 518.792 794.521 518.827 794.468C519.807 792.98 520.942 791.819 522.181 790.546C522.3 790.434 522.414 790.319 522.527 790.202L523.195 789.49L521.666 788.96C518.392 787.803 514.512 786.308 513.899 786.09L513.856 786.075C509.681 784.661 505.501 783.263 501.346 781.79ZM382.545 478.716C381.95 471.063 393.861 471.126 394.451 478.716C395.738 495.286 392.009 511.699 383.983 526.226C383.924 526.332 383.859 526.426 383.797 526.526C388.817 529.138 393.894 531.644 399.084 533.884C405.723 536.75 412.487 539.36 419.372 541.574C425.6 543.578 433.273 544.369 438.509 548.539C449.55 557.331 445.402 575.577 443.278 587.404L442.946 589.271C441.889 595.357 441.124 601.601 443.69 607.442C446.43 613.681 451.971 618.309 456.914 622.773L457.912 623.678C462.291 627.667 467.295 632.515 470.507 637.923C473.439 631.861 477.436 626.907 481.662 621.33C484.677 617.35 482.531 616.038 480.365 612.15C478.28 608.408 477.262 604.419 477.914 600.15C479.117 592.266 485.418 586.571 491.69 582.292C499.097 577.241 507.364 573.499 515.021 568.8C530.755 559.146 546.078 548.108 559.883 535.849C560.264 535.51 560.924 535.954 560.619 536.417C549.714 553.004 536.927 567.337 521.212 579.503C514.839 584.436 508.146 588.528 501.407 592.829L499.47 594.072C496.764 595.825 493.389 598.168 492.166 601.152C490.935 604.153 493.56 606.419 494.973 608.905C499.46 616.799 497.295 624.165 491.975 630.86L491.728 631.169C486.442 637.683 482.436 643.741 480.52 652.063C476.403 669.939 482.137 688.561 488.14 705.343L488.377 706.005C491.624 715.051 495.075 724.031 497.896 733.222L498.672 735.763C501.228 744.219 503.321 752.56 500.454 761.254C499.479 764.211 495.446 764.91 493.771 762.127C487.862 752.313 486.389 740.503 482.685 729.713C479.075 719.197 474.93 708.871 471.443 698.312C466.953 684.717 463.948 670.083 465.579 655.823C465.531 655.74 465.478 655.662 465.438 655.574L464.295 653.074C461.178 646.304 458.168 640.392 452.5 634.996C446.588 629.367 440.171 624.384 435.519 617.57C425.414 602.768 431.663 586.303 432.884 570.12L433.023 568.135C433.245 564.775 433.367 560.208 431.172 557.883C428.703 555.265 422.913 554.597 419.637 553.438C411.171 550.442 402.828 546.951 394.882 542.759C387.318 538.769 379.991 534.361 373.169 529.197L369.711 526.595C364.255 522.479 358.598 517.984 354.942 512.381C354.52 511.736 355.237 510.695 356.001 511.004C362.105 513.481 367.682 517.421 373.393 520.849C373.482 520.64 373.585 520.429 373.702 520.217C380.768 507.429 383.674 493.261 382.545 478.716ZM577.528 566.331C579.96 559.662 591.044 560.177 590.602 568.101C590.263 574.188 587.678 579.683 585.315 585.21L585.063 585.803C582.623 591.562 579.805 596.969 576.433 602.247C569.99 612.337 562.443 621.701 554.382 630.538C547.074 638.55 537.482 643.449 526.429 642.635C521.772 642.292 517.071 641.107 512.99 638.781C508.143 636.017 502.879 627.718 496.695 629.728C496.097 629.922 495.539 629.046 496.056 628.631C503.195 622.882 511.298 631.796 518.133 633.944C528.432 637.179 539.001 633.602 545.63 625.276C552.551 616.583 558.921 606.85 564.738 597.385C567.692 592.579 570.387 587.591 572.715 582.45C575.064 577.261 575.598 571.622 577.528 566.331ZM560.927 525.288C560.627 524.367 561.771 523.491 562.58 524.017C567.271 527.071 571.336 531.106 575.663 534.643C580.464 538.567 585.3 542.411 590.211 546.196C597.37 551.715 589.067 561.875 582.765 555.846C574.141 547.599 564.696 536.815 560.927 525.288ZM535.172 493.009C537.077 485.66 548.349 488.691 546.706 495.954L546.653 496.175C543.542 508.172 547.972 520.385 557.431 528.162L557.78 528.445C563.764 533.234 555.286 541.606 549.361 536.863C536.426 526.511 531.045 508.926 535.172 493.009Z" fill="black"/>
</g>
<g clip-path="url(#clip1_3_55)">
<path fill-rule="evenodd" clip-rule="evenodd" d="M626.867 203.178C616.566 165.992 577.191 149.766 541.729 147.191C445.715 137.21 347.985 190.734 305.419 277.525C271.346 343.428 270.279 412.658 343.521 450.287C347.521 452.492 351.698 454.849 355.964 456.989C359.67 460.435 363.487 463.746 367.653 466.526C407.536 492.752 456.487 504.095 503.925 501.635C573.966 500.223 598.97 452.696 614.271 391.747C630.409 331.068 639.434 265.226 626.867 203.178Z" fill="white"/>
<path fill-rule="evenodd" clip-rule="evenodd" d="M672.843 553.684C669.573 543.794 665.473 534.204 661.643 524.514C660.833 519.684 660.293 514.814 660.154 509.904C659.623 492.364 662.904 474.674 666.583 457.594C674.063 422.884 681.993 388.534 685.973 353.184C693.083 289.954 688.853 224.204 660.093 166.484C635.173 116.484 592.943 75.594 538.393 60.274C522.267 55.743 505.67 53.244 488.959 52.246C486.89 51.917 484.824 51.595 482.768 51.285C459.524 47.781 435.994 46.035 412.5 47.546C373.54 50.053 334.944 61.249 302.496 83.393C269.827 105.69 246.615 136.954 235.814 175.087C224.578 214.757 225.531 257.72 206.128 294.912C200.396 305.9 193.705 316.346 187.324 326.966C170.393 345.857 152.011 366.858 147.983 392.833C143.013 424.934 161.483 452.064 178.963 477.114C194.763 499.734 216.203 530.974 199.943 558.824C192.273 571.964 179.983 581.794 170.753 593.774C161.183 606.214 153.713 620.494 149.853 635.754C142.603 664.413 149.273 694.284 168.663 716.684C178.763 728.344 191.733 736.054 205.773 742.064C220.143 748.204 234.183 754.034 246.063 764.484C251.493 769.254 256.463 774.484 261.163 779.964C265.543 786.814 270.643 793.214 276.393 799.074C282.723 805.524 295.123 796.694 289.313 789.104C288.883 788.544 288.463 787.994 288.033 787.434C283.783 781.894 279.513 776.354 275.043 770.994C261.713 749.873 256.583 724.014 263.213 699.344C264.933 692.934 267.353 686.854 270.364 681.114C271.003 682.784 271.703 684.434 272.443 686.064C275.323 692.384 279.364 699.873 284.503 706.274C284.703 710.663 285.364 715.014 286.643 719.274C294.563 745.684 321.043 758.714 344.923 768.854C347.263 769.854 349.573 770.814 351.843 771.764C358.083 774.373 364.683 765.484 360.793 760.123C359.773 758.714 358.783 757.274 357.843 755.814C346.643 738.474 341.313 717.734 344.333 697.074C347.513 675.224 360.393 657.144 373.183 639.794C385.743 622.734 399.233 605.324 404.853 584.514C411.073 561.524 405.413 538.604 395.813 517.444C387.023 498.081 375.314 480.234 365.495 461.404C368.857 464.757 372.326 468 375.9 471.128C379.919 474.646 384.048 478.672 388.811 481.152C392.333 482.985 395.861 478.597 393.072 475.63C389.406 471.732 384.715 468.72 380.644 465.241C376.736 461.902 372.941 458.429 369.24 454.862C364.683 450.471 360.348 445.873 356.168 441.136C352.823 432.615 350.067 423.865 347.823 414.984C344.773 402.964 341.953 390.174 342.173 377.714C342.393 364.934 349.033 355.984 357.873 347.404C361.617 343.771 365.397 340.181 369.17 336.584C377.206 330.685 384.786 324.095 392.149 317.523C405.269 305.812 417.959 293.433 430.078 280.692C433.329 277.274 436.553 273.818 439.737 270.322C450.862 258.906 461.472 246.986 471.473 234.654C481.413 231.034 490.963 226.244 499.923 220.604C496.023 224.554 492.083 228.454 488.163 232.384C479.433 241.144 470.364 249.944 460.243 257.083C459.203 257.824 459.833 259.394 461.114 259.144C473.983 256.574 486.023 252.294 497.263 245.474C508.693 238.534 518.763 229.104 528.163 219.644C533.483 217.244 538.614 214.154 543.303 211.114C543.553 210.954 543.803 210.784 544.053 210.623C539.433 225.264 532.654 241.844 518.203 247.064C517.733 247.234 517.763 248.014 518.323 247.984C530.497 247.27 540.281 241.793 548.005 233.81C554.217 229.34 560.145 224.603 565.802 219.446C571.282 214.45 576.473 209.092 581.403 203.544C574.513 217.193 566.795 230.539 559.183 243.734C558.783 244.434 559.623 245.384 560.343 244.894C576.413 234.014 588.603 219.974 598.573 203.373C600.045 200.929 601.45 198.445 602.82 195.942C601.786 199.859 600.657 203.751 599.448 207.623C597.259 214.632 595.104 221.657 592.911 228.662C591.729 232.439 590.288 236.13 588.707 239.758C587.575 242.354 586.093 244.945 585.863 247.792C585.848 247.981 586.054 248.105 586.219 248.064C592.627 246.462 598.594 239.154 603.16 234.627C605.703 232.106 608.085 229.339 610.276 226.421C610.683 243.228 610.963 260.037 610.593 276.894C609.904 307.854 607.904 338.804 605.343 369.663C603.083 396.944 601.413 425.574 586.193 449.284C574.413 467.634 555.313 480.333 534.563 486.484C532.733 487.034 530.893 487.524 529.043 487.964C499.003 495.094 469.083 487.014 442.523 472.734C434.543 468.444 427.723 480.083 435.423 484.873C464.243 502.814 500.773 508.924 533.393 500.884C532.364 539.413 551.353 575.964 570.243 608.644C580.813 626.934 591.393 645.104 598.864 664.934C605.203 681.774 609.513 699.244 610.963 717.214C612.683 738.394 610.993 759.694 608.033 780.694C607.873 781.833 607.713 782.984 607.543 784.123C606.883 788.634 610.933 792.413 615.323 790.104C634.733 779.904 643.103 758.163 648.193 738.064C652.953 719.234 656.183 700.034 657.983 680.704C660.623 687.994 662.763 695.464 664.423 703.083C664.654 704.174 664.873 705.264 665.093 706.354C666.353 712.724 675.993 712.274 677.533 706.354C677.813 705.284 678.083 704.214 678.333 703.134C686.283 670.984 688.423 637.454 684.223 604.583C682.013 587.294 678.323 570.234 672.843 553.684Z" fill="black"/>
<path fill-rule="evenodd" clip-rule="evenodd" d="M488.15 420.292C493.744 411.09 505.668 433.632 506.935 437.508C508.057 440.942 508.797 444.459 509.174 448.017C513.511 448.989 518.014 448.991 522.458 448.139C529.063 446.872 533.1 443.321 538.84 440.272C542.805 438.166 547.802 440.636 549.864 444.13C552.289 448.243 550.744 452.511 547.554 455.577C541.505 461.391 529.604 462.726 521.708 461.183C517.184 460.298 513.037 458.602 509.376 456.136C509.352 456.596 509.335 457.057 509.299 457.516L509.229 458.313C508.623 464.761 506.85 472.869 501.842 477.064C493.628 483.947 483.49 470.711 491.472 463.836L491.719 463.63C496.68 459.621 497.763 448.866 497.496 442.942C497.32 439.076 496.616 435.16 495.395 431.478L495.144 430.744C494.777 429.704 490.77 419.837 489.322 421.093L489.253 421.164C488.656 421.877 487.691 421.047 488.15 420.292ZM532.814 368.367C540.366 372.957 551.872 383.66 543.748 395.04C534.186 405.073 520.419 393.569 513.634 388.366C507.343 384.334 500.275 394.705 506.112 399.413C555.136 435.708 575.031 369.567 536.634 362.97C532.406 362.243 530.836 366.947 532.814 368.367ZM452.179 325.94C459.559 324.631 467.119 326.466 473.226 330.784L473.689 331.117C479.572 335.42 486.155 342.976 482.779 350.392C481.424 353.37 477.366 353.837 474.791 352.487C470.504 350.239 469.727 344.708 465.902 341.647C462.765 339.138 458.541 337.616 454.501 337.983C445.01 338.845 439.172 348.206 436.224 356.273C435.847 357.305 434.332 357.706 433.74 356.598C426.789 343.606 439.093 328.262 452.179 325.94ZM570.389 321.037C584.526 319.872 601.073 334.528 597.351 349.45C595.566 356.61 584.945 356.405 583.057 349.45C582.018 345.623 582.122 342.237 579.367 339.059C577.093 336.435 573.862 334.911 570.389 335.145C566.561 335.403 563.03 337.316 560.347 340.005C557.924 342.433 556.475 345.986 553.965 348.135C553.347 348.663 552.52 348.697 551.91 348.135C547.59 344.152 550.183 335.86 552.922 331.702C556.842 325.752 563.225 321.628 570.389 321.037ZM425.258 299.475C434.327 291.447 450.806 283.694 463.035 287.645C470.066 289.916 473.131 301.245 465.282 304.836C456.193 308.994 445.714 307.302 436.463 311.612C432.578 313.423 428.924 315.686 426.219 319.005C424.088 321.621 421.92 325.063 418.838 326.571C418.028 326.968 416.931 326.978 416.282 326.242C409.526 318.6 419.359 304.696 425.258 299.475ZM554.802 287.247C560.407 285.674 566.625 285.706 572.319 286.694C578.011 287.682 583.79 290.041 588.437 293.482L588.976 293.885C594.049 297.707 600.103 303.27 599.779 310.042C599.508 315.697 593.559 319.522 588.423 316.558C584.236 314.141 582.266 309.299 578.721 306.075C575.796 303.414 572.36 301.316 568.694 299.846C564.622 298.213 560.543 297.448 556.173 297.375C552.808 297.319 549.423 298.423 546.121 298.776C546.393 299.334 543.783 299.074 542.287 298.579C541.179 298.107 541.173 296.706 541.557 295.797C543.462 291.294 550.393 288.483 554.802 287.247Z" fill="black"/>
</g>
<defs>
<clipPath id="clip0_3_55">
<rect width="818" height="733" fill="white" transform="translate(0 466)"/>
</clipPath>
<clipPath id="clip1_3_55">
<rect width="473" height="567" fill="white" transform="translate(221)"/>
</clipPath>
</defs>
</svg>
