<svg width="818" height="1168" viewBox="0 0 818 1168" fill="none" xmlns="http://www.w3.org/2000/svg">
<g clip-path="url(#clip0_1_823)">
<path fill-rule="evenodd" clip-rule="evenodd" d="M-178.081 647.791C-163.802 649.195 -149.523 650.596 -135.243 652C-66.8551 657.233 1.50586 668.159 69.3704 674.717C71.0601 671.964 74.3674 672.417 76.3754 674.331C83.1473 673.737 90.7369 668.554 96.8711 673.945C97.0703 673.917 97.2695 673.884 97.4707 673.865C108.393 652.874 115.942 630.484 123.27 608.065C127.946 594.281 134.239 580.938 145.867 571.683C165.711 557.889 211.178 529.918 234.48 531.094C234.866 526.916 236.811 522.61 240.005 519.828C232.966 507.813 261.108 499.973 263.093 501.366C261.821 461.223 280.678 426.362 322.258 418.368C359.508 410.596 412.491 409.29 432.525 448.272C434.727 448.023 457.238 447.906 459.416 448.15C462.803 443.856 499.992 484.553 484.75 498.721C621.022 559.086 698.507 551.883 736.225 721.583C741.324 737.525 741.696 754.97 747.08 770.556C766.237 815.348 781.774 863.044 785.641 911.782C794.981 914.179 796.055 930.668 785.237 933.053C781.105 933.966 777.649 935.211 774.636 937.573C776.991 977.514 767.345 1068.75 761.267 1068.47C748.873 1107.97 693.591 1119.11 654.454 1105.23C661.201 1117.95 654.454 1125.94 654.454 1132.73C513.627 1138.06 359.647 1134.99 218.859 1142.31C200.85 1142.05 181.908 1146.74 164.145 1144.04C153.312 1141.44 153.294 1124.38 164.282 1122.27L116.269 1111.83C117.342 1111.43 96.4782 1097.53 80.7093 1071.56C66.0315 1042.51 76.0211 1007.45 69.3704 975.847C17.426 971.593 -35.3773 969.774 -86.7532 960.965C-93.7582 981.953 -124.082 956.853 -133.721 946.756C-133.709 946.74 -133.697 946.725 -133.685 946.709C-138.349 945.431 -142.09 941.053 -142.215 935.87C-145.486 931.19 -146.173 924.593 -143.036 920.07C-157.414 836.988 -179.335 752.161 -187.258 668.299C-190.058 667.678 -192.696 666.448 -194.932 664.553L-194.751 664.372C-198.54 660.142 -199.277 652.842 -192.96 649.248C-187.865 646.346 -183.611 647.246 -178.081 647.791Z" fill="white"/>
<path fill-rule="evenodd" clip-rule="evenodd" d="M429.928 435.185C425.685 424.508 411.342 428.658 412.941 439.876C413.898 446.595 417.574 453.691 420.875 459.58C423.562 464.374 426.628 469.052 430.785 472.645C423.385 479.559 415.704 486.22 407.828 492.544C399.234 499.445 390.198 505.805 380.857 511.651C372.665 516.778 364.105 521.32 356.384 527.17C349.205 532.609 342.664 539.15 339.336 547.688C335.791 556.781 337.332 566.171 339.943 575.258L340.242 576.285C342.909 585.288 347.527 596.139 341.125 604.621C337.866 608.939 333.128 611.997 329.036 615.449C325.401 618.517 321.988 621.853 318.858 625.437C312.033 633.25 306.482 642.041 302.979 651.836L302.665 652.726C299.663 661.397 297.468 672.02 301.526 680.533C302.69 682.974 306.443 682.181 307.095 679.804C308.569 674.421 308.492 668.783 309.728 663.324C311.014 657.646 313.154 652.257 315.949 647.158C321.357 637.294 328.681 628.868 337.334 621.744L339.924 619.635C346.674 614.088 352.876 608.203 354.246 599.022C355.712 589.2 351.783 579.843 349.255 570.547C347.495 564.068 346.919 557.857 348.823 552.002C351.148 555.802 354.319 559.409 356.828 562.627C361.826 569.037 366.87 575.407 371.901 581.79C377.059 588.335 382.09 594.983 386.88 601.803C389.023 604.854 391.143 607.923 393.257 610.996C394.845 613.305 397.061 615.612 398.793 617.967C398.372 619.227 398.405 620.679 399.168 621.71C408.353 634.137 421.42 608.208 424.828 601.657C431.768 588.316 436.932 574.142 443.896 560.804C451.111 546.977 459.326 533.519 468.483 520.896C474.022 513.261 480.23 506.089 485.297 498.211C497.234 509.05 512.943 516.316 527.371 522.905C543.223 530.143 559.692 536.056 575.945 542.336L580.746 544.203C608.751 555.147 637.44 567.171 660.717 586.61C688.07 609.455 704.253 641.294 716.299 674.265C730.167 712.222 741.641 751.203 752.336 790.159C757.809 810.091 763.002 830.113 767.884 850.2C772.186 867.896 775.752 885.768 780.732 903.282C770.632 902.924 759.113 906.84 750.49 907.97C711.191 913.121 672.421 921.332 635.318 935.549C630.734 937.305 629.408 941.888 630.406 945.604C627.763 944.857 625.123 944.099 622.48 943.356C625.375 938.914 623.993 930.97 623.765 926.046L623.751 925.707C623.518 919.145 622.807 912.577 622.346 906.027C621.468 893.541 620.325 881.146 618.805 868.732L618.417 865.628C616.695 852.121 615.423 838.536 613.544 825.052L613.322 823.509C614.223 820.059 615.271 816.652 616.372 813.259C619.307 804.222 623.448 795.715 627.077 786.962C627.505 785.932 626.038 785.34 625.354 785.958C619.208 791.495 614.326 798.518 610.404 805.864C610.336 805.518 610.275 805.17 610.204 804.824L609.757 802.618C608.653 797.239 607.311 791.579 604.016 787.216C603.665 786.752 602.971 786.655 602.639 787.216C599.484 792.56 599.132 799.328 598.646 805.41C598.098 812.289 598.029 819.255 598.126 826.154C598.314 839.635 599.264 853.155 600.02 866.614C600.761 879.84 602.218 892.898 604.095 905.995L604.452 908.451C605.369 914.684 606.12 920.995 607.331 927.186L607.673 928.872C608.32 931.942 608.717 936.271 610.005 939.867C576.867 930.611 543.679 921.567 510.427 912.682C486.394 906.259 462.336 899.932 438.288 893.566C437.018 891.276 435.438 889.137 433.466 887.225C426.969 880.924 418.359 878.114 410.462 882.963C409.82 883.359 409.766 884.366 410.462 884.748C411.975 885.576 413.491 886.425 414.98 887.31L400.54 883.394C389.747 880.465 378.826 876.805 367.779 874.763C347.432 864.708 325.548 857.43 304.114 850.238L301.588 849.382C290.613 845.635 279.261 841.441 267.922 839.364C259.621 837.844 249.878 839.678 246.539 848.194C242.313 850.983 238.337 854.26 234.5 857.483C231.727 859.813 229.068 862.289 226.364 864.7L225.865 865.139C223.654 867.059 221.903 868.345 221.36 871.402C221.08 872.982 222.083 875.116 224.028 874.907C229.979 874.269 234.818 867.362 238.854 863.237C241.971 860.049 245.115 856.752 247.961 853.249C249.62 854.153 251.893 853.991 252.95 851.988C258.426 841.605 273.427 848.8 281.727 851.262L293.616 854.786C299.561 856.551 305.503 858.324 311.435 860.128C327.74 865.086 343.964 870.634 360.415 875.188C358.944 876.808 359.147 879.69 361.943 880.786C374.82 885.846 388.949 888.463 402.328 891.934C410.775 894.128 419.216 896.335 427.655 898.555C429.102 900.903 430.144 903.558 430.582 906.649C432.192 918.015 429.086 931.129 426.06 942.122L425.605 943.763C423.118 952.601 419.459 963.435 411.844 969.016C409.984 970.377 407.617 971.325 405.232 971.539C390.324 963.855 375.419 956.173 360.504 948.505C357.741 947.084 355.188 949.007 354.568 951.294C349.309 950.43 344.061 949.068 339.283 947.444C331.253 944.713 324.982 939.505 317.454 935.903C302.888 928.936 288.014 937.494 274.972 944.001L271.966 945.48C266.118 948.322 253.951 953.78 251.144 946.009C248.43 938.491 257.012 930.456 262.554 927.072C269.16 923.038 276.852 920.879 284.318 919.08C288.581 918.053 292.896 917.215 297.237 916.603C302.161 915.909 307.246 916.013 311.987 914.414C314.343 913.621 314.705 909.874 311.987 909.255C304.689 907.592 295.979 909.406 288.363 911.26L284.383 912.242C276.71 914.128 268.963 916.494 261.974 920.255C256.892 922.991 251.528 927.146 248.023 932.233C244.981 929.403 241.193 929.499 237.248 930.548L235.107 931.144C231.571 932.126 228.705 932.801 225.265 932.121C224.805 929.615 224.339 927.107 223.839 924.6C218.936 899.952 213.56 875.399 207.627 850.977C197.393 808.851 185.551 767.189 172.201 725.953L170.86 721.831C167.781 712.399 165.303 702.123 160.339 693.458C155.644 685.265 148.122 680.545 139.185 678.046C129.043 675.21 118.387 673.726 108.041 671.811C105.733 671.384 103.419 670.978 101.109 670.559C103.061 667.029 104.518 663.023 105.83 659.948L106.06 659.416C108.88 652.978 111.413 646.425 113.859 639.836L115.689 634.883C120.105 622.956 124.664 611.225 130.873 600.07C137.409 588.33 146.081 578.732 156.89 570.788C178.928 554.59 205.49 546.328 226.865 529.017C227.741 528.308 226.618 527.095 225.729 527.544C211.297 534.806 195.716 539.744 180.703 545.656L177.742 546.826C165.877 551.536 153.827 556.663 143.557 564.289C132.107 572.793 123.089 583.353 116.31 595.911C109.63 608.29 105.357 622.146 100.644 635.368L99.384 638.891C97.483 644.174 95.5195 649.441 93.2695 654.582C91.4835 658.664 88.1505 663.323 86.6355 667.985C82.4905 667.265 78.3465 666.543 74.1975 665.849C-15.6695 650.825 -106.541 641.997 -197.614 639.414C-201.177 639.313 -203.02 642.718 -202.495 645.83C-193.755 697.582 -185.987 749.51 -177.466 801.301C-173.746 823.905 -169.951 846.491 -166.068 869.067C-164.102 880.505 -161.827 891.898 -159.964 903.353C-158.46 912.604 -157.368 921.926 -154.786 930.963C-152.471 939.065 -148.917 946.877 -143.08 953.059C-136.788 959.722 -128.006 962.947 -119.166 964.471C-96.7245 968.339 -73.7065 969.918 -51.0835 972.494L69.3635 986.216C67.6034 1002.24 67.4718 1018.01 68.2794 1034.21L68.7397 1043.06C69.116 1050.18 69.5657 1057.31 70.5865 1064.35C71.8665 1073.18 75.9025 1080.66 81.8475 1087.26C87.3065 1093.32 93.9385 1098.49 100.39 1103.45C107.086 1108.59 114.005 1113.56 121.878 1116.74L122.899 1117.15C129.806 1119.85 142.763 1124.03 152.203 1122.5C150.969 1128.69 148.581 1135.35 150.698 1141.48C151.68 1144.32 155.396 1145.74 157.672 1143.32C162.18 1138.52 162.533 1132.19 163.601 1125.93C164.712 1119.41 165.669 1112.88 166.521 1106.33C168.167 1093.66 169.448 1080.87 169.839 1068.1C170.24 1054.98 170.086 1041.84 169.38 1028.73C169.017 1022 168.567 1015.28 167.714 1008.59C167.349 1005.74 166.977 1002.89 166.552 1000.04C166.397 999.003 166.226 997.971 166.041 996.94L176.851 998.162C193.428 1000.01 210.013 1001.69 226.706 1001.95C228.683 1001.98 230.204 1001.08 231.198 999.764C232.258 1001.49 234.102 1002.73 236.742 1002.72C260.055 1002.63 281.766 994.997 302.969 986.001C313.657 981.464 324.18 976.554 334.884 972.057C344.875 967.859 355.556 964.864 365.306 960.135L390.926 973.592C391.113 974.254 391.354 974.879 391.611 975.403C393.279 978.813 396.568 980.662 399.927 982.055C403.151 983.395 406.49 983.812 409.742 983.473C429.173 993.669 448.607 1003.86 468.055 1014.02L487.508 1024.17C526.264 1044.38 564.867 1064.92 603.867 1084.65L606.738 1086.1C620.208 1092.86 634.673 1099.72 649.622 1104.83C649.889 1108.62 649.721 1112.31 649.404 1116.32L649.327 1117.19C648.881 1121.93 647.926 1127.87 651.723 1131.24C653.698 1133 657.225 1133 658.568 1130.36C661.005 1125.56 658.818 1118 658.046 1112.78C657.771 1110.93 657.438 1109.03 656.943 1107.18C674.081 1112.29 691.738 1114.76 709.178 1111.89C726.158 1109.1 739.309 1098.39 749.911 1085.29C761.1 1071.46 769.052 1055.35 773.318 1038.08C778.173 1018.42 778.49 998.126 778.376 977.994C778.255 956.555 777.463 935.011 774.859 913.717C777.712 913.045 780.875 912.464 783.759 912.665C785.187 914.953 787.957 915.916 790.46 915.619C795.903 921.63 782.097 927.773 777.685 929.311C776.153 929.846 776.317 932.337 778.084 932.262L779.197 932.209C786.014 931.846 793.057 930.681 797.066 924.337C800.278 919.252 799.313 913.227 795.484 909.081C792.955 885.136 786.909 861.819 781.282 838.462C775.76 815.535 769.618 792.756 763.11 770.092L760.191 759.949C749.943 724.412 739.231 688.588 725.094 654.463C718.035 637.424 709.904 620.698 698.881 605.841C688.605 591.991 676.475 580.14 662.531 570.018C636.535 551.146 606.033 539.744 576.063 528.88L574.721 528.394C559.19 522.768 543.698 517.076 528.344 510.98C514.764 505.59 501.756 498.756 488.241 493.284C488.68 492.486 489.104 491.679 489.512 490.863L489.761 491.073C489.804 491.107 489.848 491.14 489.893 491.171C491.253 492.115 493.254 491.651 494.374 490.593C497.536 487.605 496.465 484.288 494.354 481.189L494.079 480.794C491.497 477.172 489.194 473.343 486.811 469.59L485.319 467.243C481.319 460.973 477.116 454.661 471.783 449.479C469.312 447.077 466.608 445.281 463.743 443.942C463.988 443.423 461.841 442.363 461.232 442.897C452.155 439.57 441.711 440.267 431.815 441.184M75.1915 986.879L87.8115 988.316C101.695 989.898 115.585 991.427 129.476 992.942L159.648 996.225C159.726 997.948 159.934 999.632 159.972 1000.93C160.169 1007.64 160.317 1014.35 160.456 1021.06C160.734 1034.5 160.428 1047.96 159.544 1061.38C158.688 1074.39 157.559 1087.39 155.806 1100.31L155.446 1102.89L155.239 1104.25C153.807 1104.39 152.401 1105.07 151.232 1106.47C148.68 1109.52 139.44 1106.55 135.831 1105.27C129.896 1103.15 124.306 1099.58 119.149 1095.99C114.113 1092.5 109.578 1088.42 105.221 1084.12L101.655 1080.59C98.1082 1077.06 94.5576 1073.3 92.3845 1068.86C89.4375 1062.84 89.0565 1055.45 88.1925 1048.89C87.1285 1040.83 85.8615 1032.76 84.5225 1024.74M441.547 902.221L442.855 902.566C490.406 915.218 537.887 928.244 585.583 940.337C609.188 946.323 632.904 951.874 656.536 957.745L660.363 958.703C679.007 963.422 697.874 969.101 712.151 982.642C712.678 983.141 713.444 982.375 712.948 981.845C697.561 965.443 675.677 958.499 654.665 952.48C650.781 951.367 646.891 950.281 643.007 949.174C671.583 938.973 700.61 930.098 730.307 923.769C737.954 922.139 745.689 920.942 753.33 919.306C758.659 918.164 763.864 916.513 769.136 915.144L773.284 914.1L773.339 927.225C773.408 945.815 773.375 964.391 772.428 982.979L772.248 986.422C771.143 1007.11 769.418 1028.22 762.088 1047.73C756.131 1063.58 746.635 1078.51 734.218 1090.05C727.936 1095.89 721.18 1100.44 712.83 1102.69C705.077 1104.77 696.954 1105.01 688.984 1104.46C650.755 1101.79 616.725 1080.99 583.518 1063.77C529.201 1035.61 474.878 1007.47 420.505 979.413C421.975 978.406 423.359 977.247 424.618 975.944C431.909 968.404 435.755 958.082 438.281 948.085C440.97 937.444 442.578 926.04 442.766 915.055M372.363 990.284C371.883 990.025 371.327 990.349 371.305 990.891C371.137 995.05 373.432 999.151 375.147 1002.9L375.328 1003.3C377.411 1007.94 379.692 1012.52 382.051 1017.02C386.766 1026.03 391.666 1034.93 396.78 1043.71C407.064 1061.38 418.492 1078.3 432 1093.68C435.051 1097.16 440.069 1092.7 438.111 1088.96C428.671 1070.92 417.666 1053.9 406.338 1037.02C400.667 1028.56 395 1020.11 389.273 1011.69C386.884 1008.18 384.465 1004.68 381.98 1001.24L380.48 999.178M-191.591 649.743C-143.875 651.186 -96.2135 654.303 -48.7235 659.186C-4.5575 663.728 39.4465 669.773 83.2025 677.309C92.3417 678.883 101.47 680.521 110.586 682.224L116.055 683.254C125.172 684.984 136.312 685.698 144.43 690.576C152.989 695.718 155.301 706.465 158.149 715.327C161.497 725.749 164.76 736.201 167.935 746.678C180.543 788.278 192.06 830.238 202.334 872.476C207.434 893.441 211.959 914.524 216.727 935.566C220.964 954.261 225.638 972.746 230.521 991.254C229.919 990.785 229.18 990.429 228.289 990.238C204.042 985.073 179.29 982.827 154.68 979.973L152.299 979.695C126.84 976.697 101.38 973.721 75.9065 970.853L-92.7525 951.86C-102.7 950.741 -113.356 950.588 -123.036 947.916C-139.493 943.369 -143.351 924.944 -146.112 910.271L-146.195 909.828C-154.521 865.494 -161.148 820.775 -168.911 776.33M226.596 939.717C233.143 939.285 242.105 933.28 247.073 933.71C244.466 938.092 243.289 943.09 244.792 948.427C248.974 963.28 267.891 955.595 277.003 951.058C284.474 947.336 291.688 942.782 299.959 941.038C309.329 939.066 315.678 942.797 323.594 947.098C330.096 950.629 337.176 953.166 344.458 954.479C348.331 955.178 352.009 955.252 355.68 954.979C355.901 955.16 356.15 955.327 356.434 955.476L358.375 956.496C349.594 956.899 340.65 959.613 332.478 962.097C324.01 964.67 315.697 967.773 307.429 970.945L299.294 974.076C279.228 981.77 258.458 989.077 236.742 989.013C235.182 989.009 233.903 989.441 232.896 990.147M263.231 893.18C256.762 892.388 250.791 893.237 245.622 897.454C239.388 902.539 235.2 910.972 226.238 911.526C223.625 911.687 223.018 915.366 225.615 916.135C232.286 918.113 237.687 914.499 242.232 909.807L245.288 906.61C249.779 901.953 253.922 898.352 261.543 898.631C269.705 898.929 277.881 900.818 285.99 901.778C295.176 902.865 304.36 903.793 313.575 904.593C314.003 904.63 314.076 903.955 313.675 903.856L303.354 901.283M269.476 866.698L268.409 866.591C259.015 865.678 250.424 865.642 242.035 870.702L240.426 871.677C232.862 876.28 224.629 881.704 219.899 889.157C219.125 890.378 220.404 891.813 221.699 891.503C230.79 889.318 237.436 882.639 245.081 877.64C253.661 872.03 262.524 872.955 272.307 873.827C281.779 874.671 291.246 875.83 300.625 877.411C309.438 878.895 318.279 881.239 327.181 881.986L327.179 881.968C328.196 881.966 328.776 880.437 327.739 879.918C318.705 875.401 308.242 873.263 298.415 871.199M-15.8892 773.726C-14.9812 769.377 -20.3232 767.361 -22.7992 770.81L-23.3257 771.538C-28.6749 778.876 -36.4111 788.085 -36.0172 797.418C-40.7192 797.521 -45.5942 800.382 -47.4262 804.63C-48.2732 806.596 -48.5602 808.925 -48.3732 811.337C-52.6472 811.669 -57.3082 814.479 -59.9212 817.215C-64.2522 821.75 -64.5942 828.159 -61.4872 833.458C-54.7128 845.009 -39.9137 849.211 -27.4204 850.149L-26.9752 850.182C-14.0712 851.075 4.52277 850.833 13.3708 839.747C21.9058 829.054 12.4728 820.396 2.7998 815.695C5.31781 813.392 6.62183 810.091 5.39581 806.609C3.2428 800.49 -4.35822 798.126 -8.6532 793.872C-13.889 788.685 -17.349 781.57 -15.9693 774.132M-22.9812 783.13C-21.5582 789.323 -18.0622 794.986 -13.1932 799.474C-11.3312 801.191 -9.29419 802.719 -7.13019 804.032L-6.87006 804.183C-4.94952 805.262 -0.228943 807.285 -0.592224 809.707C-0.966248 812.197 -8.65717 816.093 -10.7532 816.095C-11.2302 816.095 -11.5002 816.841 -11.0132 817.057C-7.21417 818.738 -3.89624 819.458 -0.181213 817.682C2.30078 820.22 4.71179 822.845 7.09979 825.448C11.3228 830.053 9.87781 834.916 4.88782 838.344C-3.13019 843.854 -15.3182 843.72 -24.6732 843.319C-34.0892 842.917 -44.1542 840.814 -51.5092 834.533L-51.8295 834.254C-55.8268 830.694 -59.478 824.661 -53.3562 821.233C-50.9592 819.89 -48.3692 819.969 -46.0932 819.316C-43.9632 823.497 -40.5082 826.846 -36.2922 827.492C-32.8849 828.013 -30.5385 823.725 -33.6379 821.674L-34.3342 821.241C-38.2261 818.753 -41.5472 814.922 -41.4592 809.933C-41.3992 806.469 -36.569 802.095 -33.4222 805.349L-33.2782 805.505C-30.6451 808.477 -26.0072 804.731 -27.7391 801.438L-27.8222 801.289M591.138 610.916C591.15 610.172 590.105 609.894 589.74 610.538C583.628 621.305 580.433 634.504 577.177 646.367C573.767 658.794 571.014 671.347 568.541 683.993C563.532 709.599 560.863 735.057 560.682 761.155C560.657 764.881 566.719 765.872 567.312 762.054C571.249 736.668 575.021 711.257 578.988 685.878C580.984 673.114 583.307 660.399 585.53 647.672M530.63 629.671C531.08 628.186 528.922 627.69 528.37 629.047C516.104 659.197 511.95 693.366 519.825 725.174C521.03 730.04 528.147 727.932 527.238 723.128M372.412 602.881C372.474 601.769 371.033 601.594 370.49 602.359C364.678 610.559 362.267 621.541 352.07 625.779C346.979 627.895 341.25 627.526 336.752 631.1C333.745 633.491 331.439 637.264 333.696 640.884C334.424 642.053 336.462 642.639 337.45 641.368C338.892 639.517 339.655 637.3 341.614 635.912C344.377 633.954 348.103 633.833 351.271 632.913C355.369 631.723 358.981 629.641 361.939 626.548M275.314 466.111C274.715 465.805 274.14 466.001 273.757 466.519C273.21 467.258 273.277 467.977 273.947 468.484C273.052 470.315 271.995 474.904 271.844 475.572C271.232 478.279 270.581 480.971 269.9 483.661C268.526 489.085 267.322 494.551 265.947 499.978C264.489 505.73 262.752 511.42 260.819 517.029C260.695 517.392 260.557 517.763 260.414 518.139L260.193 518.707L260.139 518.621C259.746 517.999 258.928 518.434 259.025 519.091C259.115 519.69 259.236 520.285 259.338 520.884L259.136 521.421C257.871 524.829 257.005 528.418 259.325 531.425C260.193 532.549 261.148 533.215 262.338 533.413C264.246 539.712 266.64 545.893 269.203 551.829L269.954 553.563C273.725 562.225 277.745 570.773 283.748 578.147C290.302 586.198 299.317 591.696 305.026 600.518C307.682 604.621 309.53 608.936 311.03 613.571L311.594 615.33C312.659 618.608 313.888 621.785 316.958 623.707C317.938 624.32 319.406 624.125 320.196 623.289C326.493 616.619 319.901 604.164 316.104 597.706C310.826 588.726 303.187 582.981 295.538 576.206C287.293 568.903 282.034 559.133 276.947 549.509C273.831 543.613 270.823 537.59 267.656 531.668C270.965 528.74 272.024 522.923 273.145 518.88L273.247 518.517C275.1 512.042 276.572 505.399 277.502 498.727C278.397 492.312 278.771 485.989 278.534 479.537L278.465 477.894M263.012 496.644C263.743 495.641 262.533 494.504 261.53 494.713C255.432 495.976 249.47 499.672 243.996 502.661L243.412 502.979C239.043 505.338 234.647 508.228 232.353 512.811C229.858 517.792 230.063 523.53 230.404 528.943L230.436 529.45C230.853 535.942 230.92 542.687 232.292 549.061C232.994 552.324 235.945 553.243 238.468 552.472C241.47 561.964 249.903 568.958 256.063 576.448C263.917 585.997 262.439 598.889 261.618 610.39C261.286 615.046 267.07 616.37 270.049 613.886L276.914 608.176C278.057 607.223 279.199 606.268 280.338 605.309C281.313 604.487 282.28 603.659 283.238 602.821L284.67 601.555C285.305 600.986 288.106 597.853 288.925 597.723C290.909 597.407 295.622 602.642 297.235 604.284L297.439 604.489C300.475 607.47 303.218 610.677 305.773 614.079C306.243 614.704 307.162 614.185 306.826 613.463C304.537 608.552 301.875 603.857 298.714 599.463L298.075 598.588C295.972 595.75 293.149 590.739 289.437 589.901C284.904 588.878 280.378 593.43 277.081 595.956L276.872 596.115C275.303 597.293 273.752 598.493 272.204 599.7C272.366 591.138 271.286 582.486 266.871 575.107C263.758 569.903 259.094 566.049 255.103 561.577C250.66 556.597 248.34 550.476 244.318 545.29C243.8 544.623 243.086 544.264 242.313 544.15C242.158 539.98 241.545 535.77 241.071 531.646L240.934 530.411C240.455 525.93 239.323 520.457 241.514 516.26C243.584 512.296 248.332 509.498 251.849 506.808L254.72 504.578M460.927 449.261C462.763 450.325 464.478 451.648 466.035 453.301C470.936 458.507 474.44 464.986 477.85 471.218C479.686 474.575 481.456 477.968 483.307 481.317C484.112 482.774 484.94 484.215 485.777 485.654C486.164 486.317 487.314 487.635 487.884 488.447C487.251 489.335 486.596 490.21 485.928 491.076C485.673 491.406 468.093 510.584 461.965 518.089C452.581 529.586 444.193 541.729 437.022 554.727C430 567.455 424.654 580.932 418.148 593.906C414.892 600.402 411.257 606.852 406.621 612.474C406.443 612.693 406.254 612.9 406.07 613.117C404.302 608.331 399.769 603.208 397.543 600.265L397.335 599.988C392.285 593.172 386.953 586.562 381.505 580.065C376.529 574.131 371.427 568.326 366.201 562.616L364.236 560.48C360.595 556.541 355.969 550.648 350.639 547.835C351.211 546.815 351.871 545.807 352.632 544.812C357.625 538.277 364.685 533.534 371.651 529.255L376.168 526.504C393.196 516.113 409.959 505.24 424.741 491.739C432.562 484.595 440.275 477.112 446.849 468.78L449.174 465.834M432.514 444.117C440.488 444.787 449.1 444.628 456.469 447.23C449.918 453.431 443.69 460.127 437.293 466.433C436.724 462.168 435.56 457.955 434.574 453.796" fill="black"/>
</g>
<path fill-rule="evenodd" clip-rule="evenodd" d="M356.199 41.7066C311.427 41.7066 257.71 63.4112 253.142 63.8453L253.019 63.8519C250.616 63.8519 241.227 71.0051 224.851 85.3115L242.588 119.906L241.153 121.276C234.284 127.861 228.42 133.864 223.792 138.595C186 177.23 179.208 328.919 188.114 381.818C197.02 434.718 213.516 486.48 290.315 486.48C367.113 486.48 452.553 440.303 465.715 425.923C474.489 416.336 484.345 411.743 495.283 412.144C495.732 411.577 496.178 411.011 496.62 410.448L498.229 410.22C513.367 408.027 524.213 405.077 530.767 401.368C543.571 394.125 557.643 356.046 557.643 347.657C557.643 339.353 578.656 278.94 579.076 272.547L579.082 272.37C579.082 267.026 606.533 242.458 606.533 234.656C606.533 226.854 612.066 227.327 606.533 199.834L604.926 191.757C599.037 162.484 587.513 114.013 543.571 92.9508C495.283 69.8055 401.423 41.7066 356.199 41.7066Z" fill="white"/>
<path fill-rule="evenodd" clip-rule="evenodd" d="M551.024 91.8635C526.941 66.3017 390.22 26.7636 321.048 35.1448L318.973 35.4135C313.453 36.1135 308.013 37.1735 302.644 38.6135C285.29 42.6665 267.364 48.8035 253.025 59.0545C241.054 67.4405 203.291 81.1355 214.421 103.073C210.294 110.892 208.754 120.552 211.543 128.253C211.894 130.913 212.714 133.363 213.763 135.903C204.946 148.914 197.965 163.628 192.314 177.623C182.439 212.844 176.294 249.498 175.394 285.433C172.4 353.705 179.886 435.256 239.348 479.404C275.269 507.379 331.537 508.319 371.904 473.633C374.195 470.922 384.968 463.606 381.373 462.323C380.303 463.453 379.203 464.553 378.083 465.633C378.134 465.513 378.144 465.393 378.123 465.263L379.177 464.309C381.16 462.474 383.73 459.813 380.803 460.333C380.674 460.483 380.533 460.613 380.394 460.763C379.774 461.135 379.306 461.458 378.941 461.742L378.754 461.892L378.812 461.832C380.498 460.034 381.509 458.2 378.988 459.371L378.654 459.533C377.533 460.713 376.394 461.843 375.234 462.943C375.253 462.813 375.234 462.683 375.163 462.543L376.245 461.499C377.3 460.464 377.139 460.46 376.623 459.623C378.867 456.478 374.678 458.346 374.384 459.573C371.763 458.953 369.462 463.873 367.774 464.473C293.775 521.363 186.388 470.884 188.127 312.359L188.154 309.258C188.662 258.568 192.928 206.469 213.894 160.583C215.933 156.163 218.214 151.863 220.723 147.703C222.453 144.583 224.303 141.543 226.293 138.583C231.864 138.133 237.364 137.113 242.783 135.533C244.644 135.063 246.484 134.543 248.323 133.933C275.203 135.399 301.484 136.994 328.439 138.506L336.859 139.031C359.693 140.499 383.308 142.85 401.734 156.973C419.814 169.831 419.896 195.186 435.373 209.303C457.443 224.282 457.604 237.789 461.854 259.863C461.539 276.503 450.001 300.68 471.174 307.683C467.602 312.776 472.581 310.329 472.973 308.543C473.013 308.553 473.053 308.563 473.083 308.563C469.9 314.48 474.579 310.754 474.993 308.853C475.243 308.783 475.493 308.603 475.743 308.353C472.536 313.537 477.72 309.907 477.413 308.963C483.61 299.438 496.364 297.959 505.354 300.483C505.464 300.823 505.863 300.853 506.113 300.673C544.34 308.957 534.477 388.093 495.303 380.443C493.626 380.101 493.666 380.906 493.333 380.983C494.238 378.607 491.687 379.574 491.714 380.073L491.559 380.066C491.436 380.055 491.486 380.042 491.394 380.073C492.269 375.214 487.345 382.254 487.734 382.543C487.583 382.453 487.413 382.403 487.263 382.383L487.433 381.922C488.25 379.745 488.18 380.65 488.174 379.403C488.788 377.862 488.833 378.536 488.689 377.532C486.531 375.86 485.894 380.932 485.174 381.303C486.408 379.583 485.427 378.178 484.263 379.112C475.44 397.67 464.043 415.107 449.314 428.843C447.703 430.113 446.073 431.363 444.384 432.543C438.119 438 428.509 441.509 422.644 446.343C422.644 446.423 422.683 446.523 422.743 446.623L422.609 446.745L422.473 446.873L420.433 447.853C419.833 448.363 419.293 448.933 418.814 449.563C418.303 450.153 417.854 450.803 417.473 451.493C417.283 452.333 417.703 452.683 418.503 452.323C418.854 452.203 419.203 452.063 419.553 451.933C419.533 451.963 419.524 451.983 419.503 452.003C419.388 452.177 418.612 453.978 419.507 453.685L419.613 453.643C420.104 453.463 420.593 453.263 421.073 453.073C420.503 453.783 419.984 454.553 419.524 455.203C419.033 455.713 418.734 456.313 418.613 456.993C418.634 457.373 418.843 457.533 419.223 457.483C419.803 457.293 420.373 457.093 420.944 456.883L420.782 457.193C420.378 457.987 419.805 459.318 420.823 458.873C421.694 458.603 422.533 458.293 423.373 457.953C423.444 458.093 423.583 458.143 423.863 458.013C426.533 457.063 429.113 455.903 431.583 454.533C433.753 452.953 435.944 451.403 438.123 449.833C440.174 448.603 442.154 447.233 444.043 445.693C456.689 437.525 467.76 427.149 476.543 415.593C491.232 428.314 520.601 416.161 538.768 406.203C554.837 397.303 561.153 380.847 562.786 363.105C566.181 339.219 585.701 331.043 584.343 278.633C584.373 278.643 584.404 278.643 584.444 278.643C585.154 278.433 585.843 278.153 586.493 277.793C587.163 277.473 587.793 277.093 588.384 276.633L589.114 275.623C589.493 275.413 589.833 275.193 590.093 274.973L590.228 275.147C590.655 275.662 590.368 274.887 590.343 274.733L591.611 273.009C594.618 268.904 597.917 264.297 600.604 260.613L600.689 260.763C600.75 260.876 600.782 260.958 600.753 260.993C607.148 251.805 613.162 240.707 614.833 229.963C616.806 221.687 616.035 213.159 614.314 205.493C606.935 178.648 582.763 117.9 551.024 91.8635ZM377.476 463.116L377.877 462.76L377.525 463.201C377.34 463.429 377.151 463.634 376.843 463.843C376.863 463.773 376.863 463.703 376.854 463.623C377.058 463.468 377.267 463.297 377.476 463.116ZM321.354 48.6335C368.262 44.6005 414.399 54.9345 459.161 67.4435L462.249 68.331C487.701 75.5935 514.614 82.1287 536.123 97.6735C566.174 120.69 581.692 157.306 595.234 191.113C607.059 216.231 601.014 244.554 583.194 262.093C581.34 244.664 578.179 227.745 573.239 210.962C572.208 208.34 572.988 207.481 570.766 207.139C567.41 252.367 583.939 285.783 551.229 339.385C537.036 364.677 553.466 383.183 513.386 396.492L512.301 396.907C503.951 400.058 494.833 402.545 486.654 400.783L487.387 399.592C488.134 398.364 488.361 397.768 487.274 397.243C487.303 397.183 487.343 397.123 487.384 397.053C488.263 395.393 489.113 393.713 489.924 392.013C490.253 392.123 490.583 392.203 490.924 392.293C490.703 392.703 490.674 393.113 491.293 393.253C493.497 394.009 495.76 394.312 498.076 394.171L498.573 394.133C501.19 393.973 502.839 393.496 504.314 393.053C504.803 392.973 505.293 392.893 505.774 392.793C510.519 391.741 515.542 389.065 518.793 386.413C555.851 365.365 552.021 293.716 506.343 286.943C505.406 241.831 483.949 165.723 448.339 122.736C416.151 83.1955 328.277 66.0575 267.141 72.1005C266.25 72.3955 265.359 72.6935 264.468 72.9945C255.036 73.8325 246.047 78.0345 236.608 79.9865C243.385 74.9075 251.073 71.5245 258.992 68.6495C274.77 58.9985 292.858 53.7765 310.333 50.0935C313.953 49.2035 317.623 48.7135 321.354 48.6335ZM508.434 323.183C505.978 321.849 506.259 323.137 505.694 322.763C488.028 321.322 468.979 336.789 459.104 349.683C459.884 350.493 461.994 348.093 462.364 347.713C462.414 347.763 462.474 347.803 462.534 347.823L462.259 348.211C458.256 353.955 466.191 347.196 466.934 345.803C467.064 345.873 467.194 345.913 467.344 345.883C466.715 346.5 464.794 348.109 464.464 349.253L463.955 349.677C459.152 353.79 459.551 356.883 465.003 351.043C464.874 351.313 464.824 351.563 464.914 351.763L464.726 351.888C462.045 353.762 459.84 358.985 465.444 353.623C464.861 357.539 470.997 349.97 471.194 350.023C481.812 341.688 497.445 333.582 510.764 332.493L511.222 332.441C513.666 332.127 514.822 331.401 513.964 329.803C516.974 329.087 516.269 327.605 514.844 327.653C516.967 326.257 515.056 324.922 513.824 325.443C514.671 323.098 511.274 324.66 510.964 324.333C509.201 321.614 508.726 323.882 508.434 323.183ZM545.464 177.833C536.979 174.725 511.916 184.029 513.921 196.351C515.115 199.18 519.049 200.801 521.814 199.204L525.423 196.781C531.703 192.575 537.367 188.887 544.11 185.218C547.78 183.397 549.36 179.531 545.464 177.833ZM497.189 159.522L500.466 157.39C518.15 145.816 543.149 128.279 498.814 146.423C493.761 148.59 487.047 149.872 484.29 154.684C479.959 163.553 491.357 164.149 497.189 159.522ZM495.202 107.593C496.621 102.208 478.964 108.527 473.824 110.193L473.041 110.489C468.041 112.352 462.309 114.08 459.319 118.395C455.815 124.357 462.907 125.592 467.3 122.899C476.307 117.013 486.182 112.572 495.202 107.593ZM450.301 82.5083C460.24 71.6549 433.641 82.0521 429.657 84.9381L429.543 85.0233C426.57 87.1163 427.173 91.6243 429.966 92.9483C437.913 93.0993 443.761 86.4753 450.301 82.5083ZM405.075 70.6171C420.875 59.2621 400.062 64.6631 392.833 69.1131C387.906 73.4581 392.981 80.7931 405.075 70.6171Z" fill="black"/>
<path fill-rule="evenodd" clip-rule="evenodd" d="M374.719 372.29C362.473 358.06 341.848 357.069 324.763 360.627C313.799 362.911 303.124 366.715 291.988 368.125C286.787 368.784 281.53 368.981 276.291 368.884C271.145 368.789 265.991 367.752 260.863 367.945C260.075 367.974 259.777 369.009 260.46 369.43C267.495 373.751 276.972 375.137 285.282 375.982C285.256 376.597 285.219 377.197 285.134 377.706C284.907 379.063 284.7 380.411 284.533 381.777C284.156 384.858 283.734 387.929 283.313 391.004C282.483 397.056 282.222 403.299 280.763 409.246L280.508 410.234C280.17 411.484 280.093 412.611 280.206 413.627L279.868 413.474L278.801 412.957L278.101 412.627C275.547 411.443 273.11 410.581 270.107 410.868C267.821 411.086 265.902 412.645 265.888 415.086C265.831 426.041 280.595 429.564 289.04 431.661L291.517 432.271C302.266 434.893 313.242 437.191 324.297 437.741C342.039 438.622 361.976 433.728 373.582 419.337C384.411 405.91 386.396 385.858 374.719 372.29ZM294.148 418.318C296.01 401.825 316.278 400.918 322.109 411.377C324.696 396.798 362.972 410.117 359.979 413.015C348.635 424.001 331.42 424.99 316.621 422.958C309.084 421.923 301.541 420.238 294.148 418.318ZM316.642 375.089L321.738 374.355L323.745 374.079C336.377 372.387 350.584 371.513 360.97 379.612C364.762 382.568 366.896 386.424 367.693 390.566C357.865 389.11 348.002 387.998 338.109 387.073L335.41 386.825C329.22 386.267 323.033 385.679 316.849 385.062L312.454 384.617L308.061 384.161C306.515 383.999 296.096 383.466 294.137 383.824C293.928 382.064 293.655 378.255 293.213 376.542C300.615 376.793 307.985 376.244 315.344 375.266L316.642 375.089ZM293.186 301.368C285.634 305.958 274.128 316.661 282.252 328.04C291.814 338.073 305.581 326.569 312.366 321.367C318.657 317.334 325.725 327.705 319.888 332.413C270.864 368.709 250.969 302.568 289.366 295.971C293.594 295.244 295.164 299.948 293.186 301.368ZM279.672 320.704L279.309 320.507L279.186 320.433C278.974 320.295 279.109 320.31 279.592 320.477L279.954 320.607V320.863C279.861 320.806 279.762 320.763 279.672 320.704ZM376.383 279.924L376.384 279.699C376.37 273.322 372.656 258.763 363.476 258.763C357.741 258.763 354.259 268.671 353.656 278.886L353.635 279.302C353.369 285.653 355.112 299.534 363.476 299.534C371.928 299.534 376.296 286.387 376.383 279.924ZM241.227 277.924L241.226 277.699C241.24 271.322 244.954 256.763 254.134 256.763C259.726 256.763 263.176 266.182 263.903 276.121L263.954 276.886C264.316 283.022 262.686 297.534 254.134 297.534C245.682 297.534 241.314 284.387 241.227 277.924ZM371.145 215.285C363.653 214.146 353.732 216.31 350.239 223.928C348.683 227.322 350.526 231.075 354.449 231.263C363.93 231.717 372.433 229.607 380.755 235.772C384.336 238.426 387.347 242.1 389.874 245.765L390.83 247.16L391.622 248.309C393.338 250.831 394.963 253.572 394.709 256.615C394.634 257.516 395.555 258.371 396.43 258.335C401.884 258.111 402.471 251.273 401.754 247.166C400.42 239.544 396.731 232.389 391.618 226.626C386.248 220.574 379.159 216.504 371.145 215.285ZM267.956 224.536C262.79 221.215 256.182 219.939 250.13 220.428C238.197 221.389 218.178 231.533 220.813 246.108C221.626 250.603 227.878 252.975 231.562 250.481C235.523 247.8 236.487 243.633 239.435 240.129C241.787 237.33 244.768 235.305 247.96 233.58C251.106 231.878 254.746 230.847 258.316 230.471L258.911 230.415C261.06 230.232 271.912 230.281 270.319 234.332C270.007 235.125 271.187 235.753 271.729 235.153C275.056 231.473 271.288 226.678 267.956 224.536Z" fill="black"/>
<defs>
<clipPath id="clip0_1_823">
<rect width="818" height="734" fill="white" transform="matrix(-1 0 0 1 818 434)"/>
</clipPath>
</defs>
</svg>
