<svg width="1138" height="342" viewBox="0 0 1138 342" fill="none" xmlns="http://www.w3.org/2000/svg">
<path d="M169.72 181.097C174.586 183.428 180.01 184.405 184.739 187.048C189.492 189.703 194.4 192.088 199.069 194.881C203.642 197.614 208.053 200.641 212.447 203.668C216.912 206.742 221.263 209.973 225.716 213.167C226.759 211.807 226.327 210.464 226.315 209.218C226.099 189.841 228.047 170.722 233.297 152.017C240.759 125.43 253.873 102.206 274.43 83.4704C284.493 74.3066 295.748 66.9048 308.077 61.1751C321.868 54.7622 336.306 50.3271 351.235 47.5102C353.788 47.0247 356.419 46.8329 359.021 46.779C361.394 46.731 361.909 47.3184 361.873 49.7217C361.819 53.9651 361.544 58.2084 361.496 62.4577C361.166 92.1848 360.795 121.912 360.591 151.645C360.405 178.927 355.976 205.442 345.991 230.848C323.702 287.581 273.213 328.444 213.022 338.842C117.913 355.27 26.2023 294.24 4.56025 200.12C-13.9713 119.515 25.2074 37.9388 99.7231 2.00247C100.802 1.48105 101.857 0.905687 102.972 0.46817C105.243 -0.424843 106.04 -0.107196 107.215 2.00247C111.602 9.91373 114.065 18.4303 115.378 27.3485C116.475 34.7922 116.99 42.284 117.505 49.7817C117.709 52.7664 117.733 52.7604 120.58 53.2159C132.045 55.0499 142.552 59.413 152.423 65.3884C167.568 74.5643 180.052 86.5271 189.612 101.463C191.002 103.638 192.704 105.328 194.916 106.635C202.977 111.406 210.99 116.248 219.039 121.043C220.939 122.176 222.599 123.524 223.786 125.43C224.685 126.869 224.667 128.175 223.912 129.721C217.451 142.829 208.407 153.905 197.169 163.134C189.582 169.368 181.167 174.408 172.453 178.933C171.686 179.335 170.912 179.73 170.169 180.168C170.019 180.258 169.983 180.533 169.72 181.097Z" fill="#1D40BA"/>
<path d="M453.48 58.8113H534.96V86.8113H484.28V141.411H524.04V169.411H484.28V254.811H453.48V58.8113ZM650.25 257.611C635.13 257.611 623.557 253.318 615.53 244.731C607.503 236.145 603.49 224.011 603.49 208.331V105.291C603.49 89.6113 607.503 77.4779 615.53 68.8913C623.557 60.3046 635.13 56.0113 650.25 56.0113C665.37 56.0113 676.943 60.3046 684.97 68.8913C692.997 77.4779 697.01 89.6113 697.01 105.291V208.331C697.01 224.011 692.997 236.145 684.97 244.731C676.943 253.318 665.37 257.611 650.25 257.611ZM650.25 229.611C660.89 229.611 666.21 223.171 666.21 210.291V103.331C666.21 90.4513 660.89 84.0113 650.25 84.0113C639.61 84.0113 634.29 90.4513 634.29 103.331V210.291C634.29 223.171 639.61 229.611 650.25 229.611ZM773.839 58.8113H819.479C835.346 58.8113 846.919 62.5446 854.199 70.0113C861.479 77.2913 865.119 88.5846 865.119 103.891V115.931C865.119 136.278 858.399 149.158 844.959 154.571V155.131C852.426 157.371 857.653 161.945 860.639 168.851C863.813 175.758 865.399 184.998 865.399 196.571V231.011C865.399 236.611 865.586 241.185 865.959 244.731C866.333 248.091 867.266 251.451 868.759 254.811H837.399C836.279 251.638 835.533 248.651 835.159 245.851C834.786 243.051 834.599 238.011 834.599 230.731V194.891C834.599 185.931 833.106 179.678 830.119 176.131C827.319 172.585 822.373 170.811 815.279 170.811H804.639V254.811H773.839V58.8113ZM815.839 142.811C821.999 142.811 826.573 141.225 829.559 138.051C832.733 134.878 834.319 129.558 834.319 122.091V106.971C834.319 99.8779 833.013 94.7446 830.399 91.5713C827.973 88.3979 824.053 86.8113 818.639 86.8113H804.639V142.811H815.839ZM942.769 58.8113H973.569V254.811H942.769V58.8113ZM1052.64 58.8113H1134.12V86.8113H1083.44V141.411H1123.2V169.411H1083.44V254.811H1052.64V58.8113Z" fill="#1D40BA"/>
</svg>
