<svg width="641" height="185" viewBox="0 0 641 185" fill="none" xmlns="http://www.w3.org/2000/svg">
<g filter="url(#filter0_b_259_257)">
<rect width="631.087" height="130.21" rx="65.105" transform="matrix(0.996172 0.0874129 -0.0873348 0.996179 11.3718 0)" fill="#D0C5FF" fill-opacity="0.39"/>
<rect x="0.454419" y="0.541796" width="630.087" height="129.21" rx="64.605" transform="matrix(0.996172 0.0874129 -0.0873348 0.996179 11.4209 -0.0376519)" stroke="white" stroke-opacity="0.25"/>
</g>
<path d="M71.9693 95.9742L83.1156 51.6614L90.1363 52.2517L78.9899 96.5645L71.9693 95.9742ZM52.7869 83.1372L54.5395 76.2142L89.6429 79.1658L87.8903 86.0888L52.7869 83.1372ZM56.1727 94.646L67.3191 50.3332L74.3397 50.9235L63.1934 95.2363L56.1727 94.646ZM56.6661 67.7319L58.4406 60.8108L93.544 63.7624L91.7695 70.6835L56.6661 67.7319ZM94.5287 89.9693L146.302 94.3225L145.736 101.057L93.9629 96.7036L94.5287 89.9693ZM101.752 51.3788L145.309 55.0411L144.759 61.5901L101.202 57.9278L101.752 51.3788ZM100.012 75.0623L143.136 78.6882L142.58 85.2989L99.4565 81.673L100.012 75.0623ZM109.028 58.0881L117.245 58.779L115.714 77.0048L107.497 76.3139L109.028 58.0881ZM128.86 59.7556L137.016 60.4413L135.485 78.6671L127.329 77.9814L128.86 59.7556ZM151.332 95.1187L203.105 99.472L202.545 106.144L150.772 101.791L151.332 95.1187ZM173.926 86.1302L182.143 86.8211L181.006 100.351L172.789 99.6605L173.926 86.1302ZM160.544 55.0778L200.703 58.4544L199.104 77.4834L167.225 74.8029L166.415 84.4409L158.26 83.7552L159.609 67.6918L191.489 70.3723L192.002 64.2559L159.999 61.565L160.544 55.0778ZM158.535 80.4808L199.867 83.9561L199.312 90.5668L157.979 87.0915L158.535 80.4808ZM216.693 61.3544L252.959 64.4037L252.414 70.8909L216.148 67.8415L216.693 61.3544ZM208.265 98.7237L259.977 103.072L259.416 109.744L207.705 105.396L208.265 98.7237ZM248.634 64.0401L256.79 64.7258L256.219 71.5219C255.544 79.5536 254.89 87.3382 251.865 98.9054L243.705 97.5349C246.73 86.7142 247.415 78.559 248.064 70.8362L248.634 64.0401ZM267.024 98.3756L271.04 98.7133C277.836 99.2847 283.839 99.665 290.976 99.1451L291.038 105.808C283.644 106.43 277.45 106.096 270.469 105.509L266.453 105.172L267.024 98.3756ZM269.671 66.12L291.357 67.9434L289.499 90.0615L275.845 88.9134L274.786 101.517L266.816 100.847L268.42 81.7562L282.074 82.9042L282.837 73.8222L269.121 72.6689L269.671 66.12ZM309.988 63.9102L317.772 64.5648L312.966 121.775L305.182 121.121L309.988 63.9102ZM300.51 84.8899L310.025 85.6899L309.475 92.2388L299.96 91.4388L300.51 84.8899ZM297.116 63.8234L304.715 64.4624L300.22 117.966L292.621 117.327L297.116 63.8234ZM328.062 69.4119L355.802 71.7444L353.638 97.5076L325.898 95.1752L328.062 69.4119ZM347.225 77.5562L335.549 76.5744L334.474 89.3634L346.151 90.3452L347.225 77.5562ZM364.778 68.5794L373.057 69.2755L370.239 102.823L361.96 102.127L364.778 68.5794ZM350.813 102.248C362.799 103.255 370.045 108.096 369.448 115.201C368.851 122.306 360.904 125.806 348.919 124.798C336.871 123.785 329.681 119.012 330.278 111.907C330.875 104.802 338.766 101.235 350.813 102.248ZM350.273 108.673C342.798 108.044 338.776 109.262 338.495 112.598C338.22 115.872 341.972 117.868 349.448 118.496C356.862 119.12 360.956 117.784 361.231 114.51C361.511 111.173 357.687 109.296 350.273 108.673ZM394.428 98.0753L446.201 102.429L445.651 108.977L393.878 104.624L394.428 98.0753ZM416.959 91.3213L425.114 92.007L424.18 103.128L416.024 102.442L416.959 91.3213ZM401.608 87.4174L441.272 90.7524L440.727 97.2396L401.063 93.9045L401.608 87.4174ZM402.718 74.1959L442.073 77.505L441.534 83.9304L410.334 81.307L409.415 92.2425L401.26 91.5568L402.718 74.1959ZM419.341 109.627C431.697 110.666 438.856 115.064 438.29 121.798C437.724 128.532 429.932 131.672 417.576 130.633C405.219 129.594 397.999 125.192 398.564 118.458C399.13 111.723 406.984 108.588 419.341 109.627ZM418.822 115.806C411.161 115.161 407.149 116.255 406.905 119.159C406.656 122.124 410.439 123.749 418.1 124.393C425.761 125.037 429.762 124.067 430.011 121.102C430.255 118.198 426.482 116.45 418.822 115.806ZM468.448 81.2159C477.16 81.9484 482.797 90.3864 481.749 102.866C480.69 115.47 473.724 122.848 465.013 122.116C456.301 121.383 450.664 112.945 451.723 100.342C452.771 87.8618 459.737 80.4835 468.448 81.2159ZM467.82 88.6916C463.557 88.3332 460.337 92.6043 459.631 101.007C458.914 109.533 461.372 114.344 465.635 114.702C469.898 115.06 473.186 110.733 473.902 102.207C474.608 93.8043 472.083 89.0501 467.82 88.6916ZM490.034 79.0489L498.312 79.745L493.506 136.955L485.228 136.259L490.034 79.0489ZM494.648 101.151L504.78 102.003L504.209 108.799L494.077 107.947L494.648 101.151ZM549.715 84.0048L557.932 84.6957L553.111 142.092L544.894 141.401L549.715 84.0048ZM510.248 118.329L515.314 118.755C525.446 119.607 533.57 119.916 542.782 119.135L543.03 125.814C533.623 126.703 525.194 126.305 514.753 125.427L509.687 125.001L510.248 118.329ZM512.916 85.8259L539.914 88.096L538.056 110.214L519.46 108.65L518.38 121.501L510.04 120.8L511.664 101.462L530.199 103.02L530.962 93.9385L512.366 92.3748L512.916 85.8259Z" fill="black"/>
<defs>
<filter id="filter0_b_259_257" x="-34.7668" y="-34.762" width="709.577" height="254.402" filterUnits="userSpaceOnUse" color-interpolation-filters="sRGB">
<feFlood flood-opacity="0" result="BackgroundImageFix"/>
<feGaussianBlur in="BackgroundImageFix" stdDeviation="20.1"/>
<feComposite in2="SourceAlpha" operator="in" result="effect1_backgroundBlur_259_257"/>
<feBlend mode="normal" in="SourceGraphic" in2="effect1_backgroundBlur_259_257" result="shape"/>
</filter>
</defs>
</svg>
