<svg width="572" height="232" viewBox="0 0 572 232" fill="none" xmlns="http://www.w3.org/2000/svg">
<rect y="103.757" width="556.782" height="130.208" rx="65.1042" transform="rotate(-10.7399 0 103.757)" fill="white"/>
<path d="M114.266 171.081L113.413 125.394L120.343 124.123L121.195 169.81L114.266 171.081ZM92.391 163.723L92.2686 156.582L126.918 150.226L127.04 157.367L92.391 163.723ZM98.6735 173.942L97.8209 128.255L104.751 126.983L105.603 172.67L98.6735 173.942ZM92.0987 147.839L91.9979 140.694L126.647 134.338L126.748 141.482L92.0987 147.839ZM162.823 109.477L170.933 107.989L178.668 150.19L170.557 151.678L162.823 109.477ZM171.768 125.611L181.586 123.81L182.805 130.458L172.986 132.259L171.768 125.611ZM127.55 121.999L160.786 115.902L161.948 122.244L128.713 128.341L127.55 121.999ZM145.73 127.299C153.84 125.812 160.389 129.212 161.573 135.676C162.758 142.14 157.831 147.583 149.72 149.071C141.548 150.57 135.011 147.231 133.827 140.766C132.642 134.302 137.558 128.799 145.73 127.299ZM146.859 133.459C143.261 134.119 141.073 136.285 141.632 139.334C142.191 142.384 144.993 143.571 148.591 142.911C152.189 142.251 154.388 140.146 153.829 137.097C153.27 134.048 150.457 132.799 146.859 133.459ZM139.017 113.718L147.128 112.23L148.793 121.316L140.683 122.804L139.017 113.718ZM143.502 163.638L181.921 156.59L183.106 163.054L144.687 170.102L143.502 163.638ZM141.68 153.697L149.791 152.209L152.127 164.955L144.016 166.443L141.68 153.697ZM225.795 105.048L235.552 103.258L236.76 109.844L227.002 111.634L225.795 105.048ZM228.042 117.305L237.799 115.515L239.006 122.102L229.249 123.892L228.042 117.305ZM198.857 105.955C207.578 104.355 215.276 108.868 216.74 116.857C218.193 124.785 212.597 131.737 203.876 133.337C195.156 134.937 187.458 130.423 186.005 122.496C184.541 114.507 190.137 107.555 198.857 105.955ZM200.098 112.724C195.829 113.507 193.139 116.711 193.932 121.041C194.737 125.432 198.367 127.351 202.635 126.568C206.904 125.785 209.617 122.702 208.812 118.312C208.019 113.982 204.367 111.941 200.098 112.724ZM218.911 99.1245L227.021 97.6367L233.057 130.568L224.946 132.056L218.911 99.1245ZM214.864 135.166C226.512 133.03 234.723 135.873 235.997 142.825C237.282 149.838 230.602 155.35 218.955 157.486C207.246 159.634 199.046 156.852 197.761 149.839C196.487 142.887 203.155 137.314 214.864 135.166ZM216.037 141.57C208.842 142.89 205.218 145.13 205.811 148.362C206.414 151.656 210.596 152.464 217.792 151.144C224.988 149.824 228.551 147.595 227.947 144.302C227.355 141.069 223.233 140.25 216.037 141.57ZM279.461 88.0167L287.145 86.6071L297.495 143.078L289.812 144.488L279.461 88.0167ZM275.879 111.114L285.27 109.391L286.466 115.917L277.075 117.64L275.879 111.114ZM267.017 91.3082L274.518 89.9322L284.197 142.744L276.696 144.12L267.017 91.3082ZM247.045 132.288L251.009 131.561C257.961 130.286 263.71 128.979 270.194 126.529L272.011 133.003C265.427 135.598 259.485 136.877 252.228 138.208L248.264 138.936L247.045 132.288ZM241.446 101.735L262.302 97.9093L263.498 104.435L250.691 106.784L255.676 133.983L247.627 135.46L241.446 101.735ZM295.669 90.1494L328.904 84.0524L330.078 90.4558L296.842 96.5527L295.669 90.1494ZM313.814 95.2672C321.925 93.7793 328.429 96.9356 329.569 103.156C330.709 109.376 325.737 114.575 317.626 116.063C309.454 117.562 302.962 114.466 301.822 108.246C300.682 102.026 305.643 96.7662 313.814 95.2672ZM314.932 101.366C311.273 102.037 309.102 103.948 309.628 106.814C310.142 109.619 312.849 110.636 316.508 109.964C320.106 109.304 322.338 107.382 321.824 104.577C321.299 101.711 318.53 100.706 314.932 101.366ZM331.109 78.5422L339.219 77.0543L345.713 112.486L337.603 113.974L331.109 78.5422ZM339.634 92.0434L349.392 90.2535L350.599 96.8398L340.841 98.6297L339.634 92.0434ZM308.451 121.717L346.138 114.803L349.569 133.526L341.459 135.014L339.212 122.756L309.636 128.181L308.451 121.717ZM307.27 82.6002L315.38 81.1123L317.012 90.016L308.902 91.5039L307.27 82.6002ZM356.735 78.7579L392.47 72.2023L393.666 78.7276L357.931 85.2832L356.735 78.7579ZM358.825 118.023L409.868 108.66L411.075 115.246L360.033 124.609L358.825 118.023ZM366.234 98.258L374.283 96.7813L377.927 116.662L369.877 118.139L366.234 98.258ZM390.092 72.6386L398.264 71.1395L399.281 76.6891C400.533 83.5193 401.963 91.3253 402.052 103.159L393.857 103.843C393.78 92.7634 392.327 84.8354 391.109 78.1881L390.092 72.6386ZM380.199 95.6961L388.187 94.2306L391.831 114.111L383.842 115.577L380.199 95.6961Z" fill="black"/>
</svg>
