<svg width="393" height="244" viewBox="0 0 393 244" fill="none" xmlns="http://www.w3.org/2000/svg">
<g filter="url(#filter0_b_175_646)">
<rect y="121.925" width="371.197" height="129.011" rx="64.5054" transform="rotate(-19.1755 0 121.925)" fill="white" fill-opacity="0.26"/>
<rect x="0.63649" y="122.233" width="370.197" height="128.011" rx="64.0054" transform="rotate(-19.1755 0.63649 122.233)" stroke="white" stroke-opacity="0.25"/>
</g>
<path d="M115.824 173.902L108.468 128.802L115.146 126.556L122.501 171.655L115.824 173.902ZM93.1242 169.739L91.9854 162.688L125.374 151.455L126.512 158.505L93.1242 169.739ZM100.799 178.957L93.4432 133.857L100.121 131.611L107.477 176.71L100.799 178.957ZM90.5709 154.058L89.4529 147.001L122.841 135.767L123.959 142.825L90.5709 154.058ZM137.959 166.455L123.592 123.714L151.888 114.194L154.393 121.644L135.132 128.124L138.555 138.309L155.938 132.46L158.442 139.911L141.06 145.759L146.995 163.415L137.959 166.455ZM204.422 120.306C205.989 124.967 206.439 129.229 205.771 133.093C205.117 136.952 203.564 140.255 201.111 143C198.667 145.727 195.56 147.725 191.79 148.994C187.992 150.271 184.294 150.555 180.695 149.846C177.097 149.136 173.871 147.442 171.019 144.762C168.167 142.082 165.96 138.419 164.398 133.772C162.832 129.111 162.375 124.851 163.029 120.992C163.683 117.132 165.231 113.839 167.675 111.112C170.114 108.371 173.232 106.362 177.03 105.084C180.8 103.816 184.485 103.536 188.084 104.246C191.692 104.937 194.922 106.622 197.773 109.302C200.639 111.977 202.856 115.645 204.422 120.306ZM195.261 123.388C194.247 120.369 192.939 117.975 191.337 116.206C189.75 114.433 187.963 113.284 185.975 112.76C183.987 112.237 181.901 112.342 179.717 113.077C177.533 113.812 175.807 114.989 174.54 116.608C173.272 118.227 172.535 120.225 172.327 122.602C172.134 124.975 172.544 127.671 173.559 130.69C174.574 133.709 175.875 136.105 177.462 137.879C179.063 139.647 180.858 140.794 182.846 141.317C184.833 141.841 186.919 141.735 189.103 141C191.288 140.266 193.013 139.089 194.281 137.47C195.549 135.851 196.279 133.855 196.473 131.483C196.68 129.105 196.276 126.407 195.261 123.388ZM218.299 139.424L203.932 96.6834L220.793 91.0105C224.021 89.9246 226.969 89.5752 229.639 89.9624C232.318 90.331 234.609 91.3644 236.511 93.0627C238.423 94.7425 239.854 96.9945 240.803 99.8189C241.757 102.657 241.966 105.305 241.429 107.762C240.888 110.205 239.638 112.36 237.679 114.227C235.735 116.089 233.121 117.573 229.838 118.677L218.548 122.476L216.107 115.213L225.936 111.906C227.661 111.326 229.014 110.607 229.996 109.75C230.978 108.893 231.588 107.898 231.826 106.765C232.078 105.627 231.968 104.355 231.496 102.95C231.019 101.531 230.332 100.43 229.434 99.6485C228.55 98.8618 227.447 98.4123 226.124 98.2999C224.81 98.1689 223.283 98.396 221.544 98.981L215.451 101.031L227.335 136.384L218.299 139.424ZM234.841 112.209L252 128.085L242.026 131.441L225.095 115.487L234.841 112.209ZM251.531 80.6687L265.898 123.409L256.863 126.45L242.495 83.7088L251.531 80.6687ZM273.332 120.908L258.965 78.1675L287.262 68.6472L289.766 76.0976L270.505 82.5779L273.929 92.7622L291.311 86.9138L293.816 94.3642L276.433 100.213L282.368 117.868L273.332 120.908Z" fill="black"/>
<defs>
<filter id="filter0_b_175_646" x="-22.6089" y="-22.6089" width="438.195" height="288.995" filterUnits="userSpaceOnUse" color-interpolation-filters="sRGB">
<feFlood flood-opacity="0" result="BackgroundImageFix"/>
<feGaussianBlur in="BackgroundImageFix" stdDeviation="20.1"/>
<feComposite in2="SourceAlpha" operator="in" result="effect1_backgroundBlur_175_646"/>
<feBlend mode="normal" in="SourceGraphic" in2="effect1_backgroundBlur_175_646" result="shape"/>
</filter>
</defs>
</svg>
