<svg width="448" height="183" viewBox="0 0 448 183" fill="none" xmlns="http://www.w3.org/2000/svg">
<rect width="361.923" height="130.209" rx="65.1046" transform="matrix(0.988719 0.149782 -0.14965 0.988739 19.4858 0)" fill="#FF7E5D"/>
<path d="M82.1247 97.6226L96.8827 54.3789L103.831 55.5459L89.0729 98.7897L82.1247 97.6226ZM64.065 83.2479L66.3818 76.4929L101.122 82.3281L98.8057 89.0831L64.065 83.2479ZM66.4915 94.9968L81.2494 51.7531L88.1975 52.9201L73.4396 96.1638L66.4915 94.9968ZM69.1998 68.2147L71.5383 61.4633L106.279 67.2984L103.94 74.0498L69.1998 68.2147ZM134.596 73.863C134.716 72.0823 134.199 70.5964 133.045 69.4052C131.89 68.2141 130.184 67.4289 127.926 67.0496C126.391 66.7919 125.059 66.7915 123.93 67.0482C122.803 67.2905 121.894 67.7407 121.203 68.3986C120.526 69.0589 120.108 69.8668 119.948 70.8222C119.785 71.6135 119.835 72.3363 120.097 72.9905C120.374 73.6473 120.802 74.2474 121.38 74.7911C121.961 75.3203 122.652 75.8159 123.452 76.2778C124.255 76.7252 125.124 77.139 126.057 77.519L129.892 79.1454C131.759 79.9055 133.442 80.7836 134.942 81.7796C136.442 82.7757 137.696 83.9018 138.706 85.1579C139.716 86.414 140.426 87.8133 140.837 89.3558C141.262 90.9007 141.327 92.6008 141.03 94.4561C140.559 97.1751 139.468 99.418 137.758 101.185C136.064 102.939 133.837 104.15 131.076 104.818C128.331 105.473 125.15 105.497 121.531 104.889C117.941 104.286 114.907 103.211 112.428 101.663C109.964 100.118 108.167 98.1419 107.038 95.7346C105.926 93.3153 105.602 90.5 106.067 87.2887L115.164 88.8168C115.015 90.3248 115.234 91.6414 115.819 92.7667C116.421 93.8799 117.316 94.7968 118.505 95.5174C119.711 96.2259 121.124 96.7163 122.745 96.9887C124.338 97.2561 125.759 97.2567 127.009 96.9904C128.274 96.7265 129.301 96.2368 130.091 95.5211C130.881 94.8054 131.365 93.9119 131.545 92.8407C131.713 91.8419 131.557 90.9525 131.078 90.1724C130.613 89.3948 129.856 88.6723 128.807 88.005C127.773 87.3401 126.478 86.6761 124.922 86.0129L120.284 83.9837C116.688 82.442 113.967 80.519 112.121 78.2146C110.275 75.9101 109.636 73.1161 110.201 69.8326C110.639 67.1377 111.75 64.9058 113.535 63.1368C115.335 61.3702 117.603 60.1364 120.34 59.4352C123.078 58.734 126.067 58.6557 129.31 59.2003C132.61 59.7547 135.396 60.803 137.667 62.3455C139.953 63.8903 141.615 65.7843 142.652 68.0274C143.69 70.2704 144.008 72.7201 143.607 75.3765L134.596 73.863ZM145.222 108.221L152.685 63.7516L162.087 65.3307L159.008 83.6785L178.093 86.8842L181.172 68.5364L190.552 70.1118L183.09 114.581L173.71 113.005L176.792 94.6359L157.707 91.4302L154.624 109.8L145.222 108.221ZM198.506 117.17L188.431 115.478L211.245 73.5874L223.36 75.6224L231.227 122.666L221.152 120.974L215.771 84.796L215.423 84.7376L198.506 117.17ZM200.809 99.5852L224.607 103.582L223.375 110.921L199.578 106.924L200.809 99.5852ZM236.579 123.565L244.042 79.0961L261.586 82.0429C264.944 82.6069 267.709 83.689 269.882 85.2893C272.071 86.8774 273.605 88.869 274.483 91.2639C275.378 93.6467 275.579 96.3075 275.085 99.246C274.59 102.199 273.527 104.633 271.896 106.546C270.267 108.446 268.15 109.757 265.543 110.48C262.95 111.206 259.946 111.282 256.53 110.708L244.783 108.735L246.051 101.179L256.278 102.896C258.073 103.198 259.605 103.202 260.875 102.909C262.144 102.617 263.151 102.027 263.895 101.14C264.654 100.255 265.156 99.0815 265.402 97.6195C265.649 96.1429 265.561 94.8482 265.138 93.7352C264.729 92.6247 263.968 91.7079 262.854 90.985C261.756 90.2501 260.303 89.7306 258.494 89.4267L252.154 88.3618L245.981 125.144L236.579 123.565ZM263.99 107.362L271.646 129.455L261.267 127.712L253.85 105.659L263.99 107.362ZM276.705 130.305L284.167 85.8357L314.131 90.8685L312.83 98.6202L292.268 95.1665L290.49 105.763L309.511 108.957L308.21 116.709L289.189 113.514L287.407 124.132L308.056 127.6L306.756 135.352L276.705 130.305Z" fill="white"/>
</svg>
