<svg width="554" height="213" viewBox="0 0 554 213" fill="none" xmlns="http://www.w3.org/2000/svg">
<rect y="84.3152" width="450.077" height="130.208" rx="65.1042" transform="rotate(-10.7399 0 84.3152)" fill="#FF338E"/>
<path d="M86.3104 160.311L84.1314 114.668L91.0213 113.196L93.2003 158.839L86.3104 160.311ZM64.2314 153.592L63.9017 146.458L98.3514 139.097L98.6811 146.231L64.2314 153.592ZM70.808 163.624L68.629 117.981L75.5189 116.508L77.6979 162.151L70.808 163.624ZM63.4779 137.723L63.1697 130.584L97.6194 123.223L97.9276 130.362L63.4779 137.723ZM132.018 119.341C131.493 118.357 130.872 117.522 130.155 116.835C129.435 116.133 128.62 115.587 127.711 115.196C126.813 114.787 125.83 114.539 124.761 114.453C123.706 114.363 122.576 114.447 121.37 114.704C119.116 115.186 117.255 116.169 115.786 117.653C114.331 119.135 113.358 121.046 112.868 123.388C112.374 125.715 112.455 128.414 113.111 131.486C113.766 134.558 114.791 137.071 116.183 139.024C117.576 140.978 119.247 142.34 121.197 143.109C123.145 143.863 125.281 143.992 127.606 143.495C129.716 143.045 131.438 142.287 132.771 141.221C134.116 140.138 135.036 138.824 135.532 137.277C136.041 135.727 136.095 134.012 135.694 132.131L137.648 132.007L126.28 134.436L124.782 127.416L143.234 123.474L144.42 129.029C145.247 132.905 145.14 136.41 144.098 139.544C143.053 142.664 141.256 145.285 138.707 147.405C136.155 149.511 133.027 150.96 129.324 151.751C125.19 152.635 121.363 152.499 117.845 151.345C114.324 150.176 111.327 148.092 108.856 145.093C106.396 142.076 104.67 138.242 103.677 133.591C102.914 130.017 102.75 126.72 103.186 123.7C103.633 120.663 104.589 117.967 106.053 115.613C107.516 113.259 109.388 111.306 111.668 109.753C113.948 108.2 116.545 107.112 119.459 106.49C121.957 105.956 124.36 105.825 126.669 106.097C128.976 106.355 131.102 106.966 133.049 107.931C135.011 108.893 136.717 110.172 138.168 111.768C139.617 113.35 140.724 115.199 141.492 117.317L132.018 119.341ZM155.274 145.576L145.861 101.479L163.258 97.7619C166.588 97.0503 169.557 97.0388 172.166 97.7273C174.786 98.3983 176.944 99.6857 178.641 101.589C180.35 103.476 181.515 105.876 182.137 108.79C182.762 111.718 182.668 114.373 181.855 116.753C181.04 119.118 179.553 121.117 177.395 122.749C175.251 124.378 172.485 125.554 169.098 126.278L157.449 128.766L155.85 121.273L165.991 119.107C167.771 118.726 169.197 118.166 170.27 117.427C171.343 116.687 172.062 115.768 172.428 114.669C172.808 113.567 172.843 112.292 172.534 110.842C172.221 109.378 171.664 108.206 170.861 107.327C170.072 106.445 169.027 105.873 167.725 105.61C166.435 105.331 164.892 105.383 163.098 105.766L156.811 107.109L164.597 143.584L155.274 145.576ZM174.804 120.421L190.047 138.147L179.755 140.346L164.749 122.569L174.804 120.421ZM230.879 106.368C231.905 111.177 231.867 115.463 230.764 119.226C229.676 122.985 227.757 126.09 225.007 128.538C222.27 130.969 218.956 132.6 215.066 133.432C211.147 134.269 207.44 134.13 203.945 133.016C200.451 131.901 197.439 129.851 194.91 126.864C192.381 123.877 190.605 119.986 189.582 115.192C188.555 110.383 188.586 106.099 189.675 102.339C190.763 98.5792 192.677 95.4837 195.415 93.0526C198.149 90.6071 201.476 88.9657 205.395 88.1284C209.285 87.2973 212.977 87.4389 216.472 88.5534C219.978 89.6504 222.995 91.6924 225.524 94.6793C228.067 97.6631 229.852 101.559 230.879 106.368ZM221.426 108.388C220.761 105.273 219.734 102.746 218.345 100.806C216.969 98.8636 215.324 97.5191 213.409 96.7726C211.493 96.0261 209.409 95.8936 207.155 96.3751C204.902 96.8566 203.053 97.8295 201.61 99.2936C200.166 100.758 199.206 102.659 198.73 104.997C198.268 107.332 198.369 110.057 199.034 113.172C199.699 116.287 200.719 118.816 202.094 120.758C203.484 122.698 205.136 124.041 207.052 124.787C208.967 125.534 211.052 125.666 213.305 125.185C215.559 124.703 217.407 123.731 218.851 122.266C220.294 120.802 221.247 118.903 221.709 116.567C222.186 114.229 222.091 111.503 221.426 108.388ZM250.759 125.175L228.729 83.7733L238.913 81.5973L252.753 110.678L253.119 110.599L254.63 78.239L263.351 76.3758L277.936 105.364L278.324 105.282L279.068 73.0176L289.252 70.8416L286.049 117.635L276.963 119.576L262.411 92.539L262.066 92.6127L259.845 123.233L250.759 125.175ZM294.204 77.8212L292.563 70.1343L328.778 62.3964L330.419 70.0833L316.919 72.9678L324.692 109.378L315.476 111.347L307.704 74.9367L294.204 77.8212ZM344.156 105.219L334.742 61.1221L344.065 59.1302L347.949 77.3246L366.875 73.2809L362.991 55.0864L372.292 53.0991L381.706 97.1964L372.404 99.1838L368.516 80.9678L349.59 85.0115L353.479 103.228L344.156 105.219Z" fill="white"/>
</svg>
