<svg width="3240" height="810" viewBox="0 0 3240 810" fill="none" xmlns="http://www.w3.org/2000/svg">
<rect width="3240" height="810" fill="#1D40BA"/>
<rect x="2553.95" y="646.308" width="511.482" height="130.208" rx="65.1042" transform="rotate(-10.7399 2553.95 646.308)" fill="#FF338E"/>
<path d="M2640.26 722.304L2638.08 676.661L2644.97 675.188L2647.15 720.832L2640.26 722.304ZM2618.18 715.584L2617.85 708.45L2652.3 701.089L2652.63 708.223L2618.18 715.584ZM2624.76 725.616L2622.58 679.973L2629.47 678.501L2631.65 724.144L2624.76 725.616ZM2617.43 699.715L2617.12 692.576L2651.57 685.216L2651.88 692.354L2617.43 699.715ZM2685.97 681.333C2685.44 680.35 2684.82 679.514 2684.1 678.827C2683.38 678.125 2682.57 677.579 2681.66 677.188C2680.76 676.779 2679.78 676.532 2678.71 676.445C2677.66 676.355 2676.52 676.439 2675.32 676.697C2673.07 677.178 2671.2 678.161 2669.74 679.646C2668.28 681.127 2667.31 683.039 2666.82 685.38C2666.32 687.707 2666.4 690.406 2667.06 693.478C2667.72 696.55 2668.74 699.063 2670.13 701.017C2671.52 702.971 2673.2 704.332 2675.15 705.101C2677.09 705.856 2679.23 705.985 2681.56 705.488C2683.67 705.037 2685.39 704.279 2686.72 703.213C2688.07 702.131 2688.99 700.816 2689.48 699.269C2689.99 697.719 2690.04 696.004 2689.64 694.124L2691.6 693.999L2680.23 696.428L2678.73 689.408L2697.18 685.466L2698.37 691.021C2699.2 694.897 2699.09 698.402 2698.05 701.536C2697 704.656 2695.2 707.277 2692.66 709.397C2690.1 711.504 2686.98 712.952 2683.27 713.744C2679.14 714.627 2675.31 714.491 2671.79 713.337C2668.27 712.168 2665.28 710.084 2662.81 707.085C2660.35 704.068 2658.62 700.235 2657.63 695.584C2656.86 692.009 2656.7 688.712 2657.14 685.692C2657.58 682.655 2658.54 679.959 2660 677.605C2661.47 675.251 2663.34 673.298 2665.62 671.745C2667.9 670.192 2670.49 669.105 2673.41 668.482C2675.91 667.948 2678.31 667.818 2680.62 668.09C2682.92 668.347 2685.05 668.959 2687 669.923C2688.96 670.885 2690.67 672.164 2692.12 673.76C2693.57 675.342 2694.67 677.192 2695.44 679.309L2685.97 681.333ZM2709.22 707.569L2699.81 663.471L2717.21 659.754C2720.54 659.043 2723.51 659.031 2726.11 659.72C2728.73 660.391 2730.89 661.678 2732.59 663.582C2734.3 665.468 2735.46 667.868 2736.09 670.782C2736.71 673.711 2736.62 676.365 2735.8 678.745C2734.99 681.111 2733.5 683.109 2731.34 684.741C2729.2 686.37 2726.43 687.546 2723.05 688.27L2711.4 690.759L2709.8 683.266L2719.94 681.099C2721.72 680.719 2723.15 680.159 2724.22 679.419C2725.29 678.68 2726.01 677.76 2726.38 676.662C2726.76 675.56 2726.79 674.284 2726.48 672.834C2726.17 671.37 2725.61 670.198 2724.81 669.319C2724.02 668.437 2722.98 667.865 2721.67 667.603C2720.38 667.323 2718.84 667.375 2717.05 667.758L2710.76 669.102L2718.55 705.577L2709.22 707.569ZM2728.75 682.413L2744 700.139L2733.7 702.338L2718.7 684.561L2728.75 682.413ZM2784.83 668.361C2785.85 673.169 2785.82 677.455 2784.71 681.218C2783.62 684.978 2781.71 688.082 2778.96 690.53C2776.22 692.962 2772.9 694.593 2769.01 695.424C2765.1 696.261 2761.39 696.123 2757.89 695.008C2754.4 693.894 2751.39 691.843 2748.86 688.856C2746.33 685.869 2744.55 681.979 2743.53 677.184C2742.5 672.375 2742.54 668.091 2743.62 664.331C2744.71 660.571 2746.63 657.476 2749.36 655.045C2752.1 652.599 2755.43 650.958 2759.34 650.121C2763.23 649.29 2766.93 649.431 2770.42 650.546C2773.93 651.643 2776.94 653.685 2779.47 656.672C2782.02 659.655 2783.8 663.552 2784.83 668.361ZM2775.38 670.38C2774.71 667.265 2773.68 664.738 2772.29 662.798C2770.92 660.856 2769.27 659.511 2767.36 658.765C2765.44 658.018 2763.36 657.886 2761.1 658.367C2758.85 658.849 2757 659.822 2755.56 661.286C2754.12 662.75 2753.16 664.651 2752.68 666.989C2752.22 669.325 2752.32 672.05 2752.98 675.164C2753.65 678.279 2754.67 680.808 2756.04 682.751C2757.43 684.69 2759.09 686.033 2761 686.78C2762.92 687.526 2765 687.659 2767.25 687.177C2769.51 686.696 2771.36 685.723 2772.8 684.259C2774.24 682.795 2775.2 680.895 2775.66 678.56C2776.13 676.222 2776.04 673.495 2775.38 670.38ZM2804.71 687.167L2782.68 645.766L2792.86 643.59L2806.7 672.67L2807.07 672.592L2808.58 640.231L2817.3 638.368L2831.89 667.357L2832.27 667.274L2833.02 635.01L2843.2 632.834L2840 679.627L2830.91 681.568L2816.36 654.531L2816.02 654.605L2813.79 685.226L2804.71 687.167ZM2848.15 639.813L2846.51 632.127L2882.73 624.389L2884.37 632.076L2870.87 634.96L2878.64 671.371L2869.43 673.34L2861.65 636.929L2848.15 639.813ZM2898.1 667.212L2888.69 623.114L2898.01 621.122L2901.9 639.317L2920.82 635.273L2916.94 617.079L2926.24 615.091L2935.65 659.189L2926.35 661.176L2922.46 642.96L2903.54 647.004L2907.43 665.22L2898.1 667.212Z" fill="white"/>
<rect width="443.645" height="130.209" rx="65.1046" transform="matrix(0.988719 0.149782 -0.14965 0.988739 2740.36 456.951)" fill="#FF7E5D"/>
<path d="M2803 554.573L2817.76 511.33L2824.7 512.497L2809.95 555.74L2803 554.573ZM2784.94 540.199L2787.26 533.444L2822 539.279L2819.68 546.034L2784.94 540.199ZM2787.37 551.948L2802.12 508.704L2809.07 509.871L2794.31 553.115L2787.37 551.948ZM2790.07 525.165L2792.41 518.414L2827.15 524.249L2824.81 531.001L2790.07 525.165ZM2855.47 530.814C2855.59 529.033 2855.07 527.547 2853.92 526.356C2852.76 525.165 2851.06 524.38 2848.8 524C2847.27 523.743 2845.93 523.742 2844.8 523.999C2843.68 524.241 2842.77 524.691 2842.08 525.349C2841.4 526.01 2840.98 526.818 2840.82 527.773C2840.66 528.564 2840.71 529.287 2840.97 529.941C2841.25 530.598 2841.68 531.198 2842.25 531.742C2842.83 532.271 2843.53 532.767 2844.33 533.229C2845.13 533.676 2846 534.09 2846.93 534.47L2850.77 536.096C2852.63 536.856 2854.32 537.734 2855.82 538.73C2857.32 539.727 2858.57 540.853 2859.58 542.109C2860.59 543.365 2861.3 544.764 2861.71 546.307C2862.14 547.852 2862.2 549.552 2861.9 551.407C2861.43 554.126 2860.34 556.369 2858.63 558.135C2856.94 559.89 2854.71 561.101 2851.95 561.768C2849.21 562.424 2846.02 562.447 2842.4 561.84C2838.82 561.237 2835.78 560.161 2833.3 558.614C2830.84 557.069 2829.04 555.093 2827.91 552.685C2826.8 550.266 2826.48 547.451 2826.94 544.24L2836.04 545.768C2835.89 547.276 2836.11 548.592 2836.69 549.717C2837.29 550.831 2838.19 551.748 2839.38 552.468C2840.58 553.177 2842 553.667 2843.62 553.939C2845.21 554.207 2846.63 554.207 2847.88 553.941C2849.15 553.677 2850.17 553.188 2850.96 552.472C2851.75 551.756 2852.24 550.863 2852.42 549.792C2852.59 548.793 2852.43 547.903 2851.95 547.123C2851.49 546.346 2850.73 545.623 2849.68 544.956C2848.65 544.291 2847.35 543.627 2845.8 542.964L2841.16 540.935C2837.56 539.393 2834.84 537.47 2833 535.165C2831.15 532.861 2830.51 530.067 2831.08 526.783C2831.51 524.089 2832.62 521.857 2834.41 520.088C2836.21 518.321 2838.48 517.087 2841.21 516.386C2843.95 515.685 2846.94 515.607 2850.18 516.151C2853.48 516.705 2856.27 517.754 2858.54 519.296C2860.83 520.841 2862.49 522.735 2863.53 524.978C2864.56 527.221 2864.88 529.671 2864.48 532.327L2855.47 530.814ZM2866.1 565.171L2873.56 520.702L2882.96 522.281L2879.88 540.629L2898.97 543.835L2902.05 525.487L2911.43 527.063L2903.96 571.532L2894.58 569.956L2897.67 551.587L2878.58 548.381L2875.5 566.751L2866.1 565.171ZM2919.38 574.121L2909.3 572.429L2932.12 530.538L2944.23 532.573L2952.1 579.617L2942.03 577.925L2936.64 541.747L2936.3 541.688L2919.38 574.121ZM2921.68 556.536L2945.48 560.533L2944.25 567.872L2920.45 563.875L2921.68 556.536ZM2957.45 580.516L2964.92 536.047L2982.46 538.994C2985.82 539.558 2988.58 540.64 2990.76 542.24C2992.94 543.828 2994.48 545.82 2995.36 548.215C2996.25 550.598 2996.45 553.258 2995.96 556.197C2995.46 559.15 2994.4 561.583 2992.77 563.497C2991.14 565.397 2989.02 566.708 2986.42 567.431C2983.82 568.157 2980.82 568.232 2977.4 567.659L2965.66 565.686L2966.93 558.129L2977.15 559.847C2978.95 560.149 2980.48 560.153 2981.75 559.86C2983.02 559.567 2984.03 558.977 2984.77 558.09C2985.53 557.206 2986.03 556.032 2986.28 554.57C2986.52 553.094 2986.44 551.799 2986.01 550.686C2985.6 549.575 2984.84 548.659 2983.73 547.936C2982.63 547.201 2981.18 546.681 2979.37 546.378L2973.03 545.313L2966.85 582.095L2957.45 580.516ZM2984.86 564.313L2992.52 586.406L2982.14 584.663L2974.72 562.61L2984.86 564.313ZM2997.58 587.256L3005.04 542.786L3035 547.819L3033.7 555.571L3013.14 552.117L3011.36 562.713L3030.38 565.908L3029.08 573.66L3010.06 570.465L3008.28 581.083L3028.93 584.551L3027.63 592.303L2997.58 587.256Z" fill="white"/>
<g filter="url(#filter0_b_175_621)">
<rect width="631.087" height="130.21" rx="65.105" transform="matrix(0.996172 0.0874129 -0.0873348 0.996179 2452.37 333.951)" fill="#D0C5FF" fill-opacity="0.39"/>
<rect x="0.454419" y="0.541796" width="630.087" height="129.21" rx="64.605" transform="matrix(0.996172 0.0874129 -0.0873348 0.996179 2452.42 333.913)" stroke="white" stroke-opacity="0.25"/>
</g>
<path d="M2512.97 429.925L2524.12 385.612L2531.14 386.203L2519.99 430.515L2512.97 429.925ZM2493.79 417.088L2495.54 410.165L2530.64 413.117L2528.89 420.04L2493.79 417.088ZM2497.17 428.597L2508.32 384.284L2515.34 384.874L2504.19 429.187L2497.17 428.597ZM2497.67 401.683L2499.44 394.762L2534.54 397.713L2532.77 404.634L2497.67 401.683ZM2535.53 423.92L2587.3 428.273L2586.74 435.008L2534.96 430.654L2535.53 423.92ZM2542.75 385.33L2586.31 388.992L2585.76 395.541L2542.2 391.879L2542.75 385.33ZM2541.01 409.013L2584.14 412.639L2583.58 419.25L2540.46 415.624L2541.01 409.013ZM2550.03 392.039L2558.25 392.73L2556.71 410.956L2548.5 410.265L2550.03 392.039ZM2569.86 393.706L2578.02 394.392L2576.48 412.618L2568.33 411.932L2569.86 393.706ZM2592.33 429.07L2644.11 433.423L2643.54 440.095L2591.77 435.742L2592.33 429.07ZM2614.93 420.081L2623.14 420.772L2622.01 434.302L2613.79 433.611L2614.93 420.081ZM2601.54 389.029L2641.7 392.405L2640.1 411.434L2608.22 408.754L2607.41 418.392L2599.26 417.706L2600.61 401.643L2632.49 404.323L2633 398.207L2601 395.516L2601.54 389.029ZM2599.53 414.432L2640.87 417.907L2640.31 424.518L2598.98 421.042L2599.53 414.432ZM2657.69 395.305L2693.96 398.355L2693.41 404.842L2657.15 401.792L2657.69 395.305ZM2649.27 432.674L2700.98 437.022L2700.42 443.695L2648.7 439.347L2649.27 432.674ZM2689.63 397.991L2697.79 398.677L2697.22 405.473C2696.54 413.504 2695.89 421.289 2692.87 432.856L2684.71 431.486C2687.73 420.665 2688.41 412.51 2689.06 404.787L2689.63 397.991ZM2708.02 432.326L2712.04 432.664C2718.84 433.236 2724.84 433.616 2731.98 433.096L2732.04 439.759C2724.64 440.381 2718.45 440.047 2711.47 439.46L2707.45 439.122L2708.02 432.326ZM2710.67 400.071L2732.36 401.894L2730.5 424.012L2716.84 422.864L2715.79 435.468L2707.82 434.798L2709.42 415.707L2723.07 416.855L2723.84 407.773L2710.12 406.62L2710.67 400.071ZM2750.99 397.861L2758.77 398.516L2753.97 455.726L2746.18 455.072L2750.99 397.861ZM2741.51 418.841L2751.02 419.641L2750.47 426.19L2740.96 425.39L2741.51 418.841ZM2738.12 397.774L2745.72 398.413L2741.22 451.917L2733.62 451.278L2738.12 397.774ZM2769.06 403.363L2796.8 405.695L2794.64 431.458L2766.9 429.126L2769.06 403.363ZM2788.23 411.507L2776.55 410.525L2775.47 423.314L2787.15 424.296L2788.23 411.507ZM2805.78 402.53L2814.06 403.226L2811.24 436.774L2802.96 436.078L2805.78 402.53ZM2791.81 436.198C2803.8 437.206 2811.04 442.046 2810.45 449.151C2809.85 456.256 2801.9 459.757 2789.92 458.749C2777.87 457.736 2770.68 452.963 2771.28 445.858C2771.88 438.753 2779.77 435.185 2791.81 436.198ZM2791.27 442.624C2783.8 441.995 2779.78 443.213 2779.5 446.549C2779.22 449.823 2782.97 451.819 2790.45 452.447C2797.86 453.071 2801.96 451.735 2802.23 448.46C2802.51 445.124 2798.69 443.247 2791.27 442.624ZM2835.43 432.026L2887.2 436.379L2886.65 442.928L2834.88 438.575L2835.43 432.026ZM2857.96 425.272L2866.11 425.958L2865.18 437.079L2857.02 436.393L2857.96 425.272ZM2842.61 421.368L2882.27 424.703L2881.73 431.19L2842.06 427.855L2842.61 421.368ZM2843.72 408.147L2883.07 411.456L2882.53 417.881L2851.33 415.258L2850.41 426.193L2842.26 425.508L2843.72 408.147ZM2860.34 443.578C2872.7 444.617 2879.86 449.014 2879.29 455.749C2878.72 462.483 2870.93 465.623 2858.58 464.584C2846.22 463.545 2839 459.143 2839.56 452.408C2840.13 445.674 2847.98 442.539 2860.34 443.578ZM2859.82 449.756C2852.16 449.112 2848.15 450.206 2847.9 453.11C2847.66 456.075 2851.44 457.7 2859.1 458.344C2866.76 458.988 2870.76 458.018 2871.01 455.052C2871.26 452.149 2867.48 450.4 2859.82 449.756ZM2909.45 415.167C2918.16 415.899 2923.8 424.337 2922.75 436.817C2921.69 449.421 2914.72 456.799 2906.01 456.067C2897.3 455.334 2891.66 446.896 2892.72 434.293C2893.77 421.813 2900.74 414.434 2909.45 415.167ZM2908.82 422.642C2904.56 422.284 2901.34 426.555 2900.63 434.958C2899.91 443.484 2902.37 448.294 2906.64 448.653C2910.9 449.011 2914.19 444.683 2914.9 436.158C2915.61 427.755 2913.08 423.001 2908.82 422.642ZM2931.03 413L2939.31 413.696L2934.51 470.906L2926.23 470.21L2931.03 413ZM2935.65 435.102L2945.78 435.954L2945.21 442.75L2935.08 441.898L2935.65 435.102ZM2990.72 417.956L2998.93 418.647L2994.11 476.042L2985.89 475.351L2990.72 417.956ZM2951.25 452.279L2956.31 452.705C2966.45 453.557 2974.57 453.867 2983.78 453.086L2984.03 459.765C2974.62 460.653 2966.19 460.256 2955.75 459.378L2950.69 458.952L2951.25 452.279ZM2953.92 419.777L2980.91 422.047L2979.06 444.165L2960.46 442.601L2959.38 455.452L2951.04 454.751L2952.66 435.413L2971.2 436.971L2971.96 427.889L2953.37 426.326L2953.92 419.777Z" fill="black"/>
<rect x="2565.94" y="267.753" width="556.782" height="130.208" rx="65.1042" transform="rotate(-10.7399 2565.94 267.753)" fill="white"/>
<path d="M2680.21 335.077L2679.36 289.39L2686.29 288.119L2687.14 333.806L2680.21 335.077ZM2658.33 327.719L2658.21 320.578L2692.86 314.222L2692.98 321.363L2658.33 327.719ZM2664.62 337.938L2663.76 292.251L2670.69 290.979L2671.55 336.666L2664.62 337.938ZM2658.04 311.835L2657.94 304.69L2692.59 298.334L2692.69 305.478L2658.04 311.835ZM2728.77 273.473L2736.88 271.985L2744.61 314.186L2736.5 315.674L2728.77 273.473ZM2737.71 289.607L2747.53 287.806L2748.75 294.454L2738.93 296.255L2737.71 289.607ZM2693.49 285.995L2726.73 279.898L2727.89 286.24L2694.66 292.337L2693.49 285.995ZM2711.67 291.295C2719.78 289.808 2726.33 293.208 2727.52 299.672C2728.7 306.136 2723.77 311.579 2715.66 313.067C2707.49 314.566 2700.95 311.227 2699.77 304.762C2698.59 298.298 2703.5 292.794 2711.67 291.295ZM2712.8 297.455C2709.2 298.115 2707.02 300.281 2707.58 303.33C2708.13 306.379 2710.94 307.567 2714.53 306.907C2718.13 306.247 2720.33 304.142 2719.77 301.093C2719.21 298.044 2716.4 296.795 2712.8 297.455ZM2704.96 277.714L2713.07 276.226L2714.74 285.312L2706.63 286.8L2704.96 277.714ZM2709.45 327.634L2747.86 320.586L2749.05 327.05L2710.63 334.098L2709.45 327.634ZM2707.62 317.693L2715.73 316.205L2718.07 328.951L2709.96 330.439L2707.62 317.693ZM2791.74 269.044L2801.5 267.254L2802.7 273.84L2792.95 275.63L2791.74 269.044ZM2793.99 281.301L2803.74 279.511L2804.95 286.098L2795.19 287.888L2793.99 281.301ZM2764.8 269.951C2773.52 268.351 2781.22 272.864 2782.68 280.853C2784.14 288.781 2778.54 295.733 2769.82 297.333C2761.1 298.933 2753.4 294.419 2751.95 286.492C2750.48 278.503 2756.08 271.551 2764.8 269.951ZM2766.04 276.72C2761.77 277.503 2759.08 280.707 2759.88 285.037C2760.68 289.428 2764.31 291.347 2768.58 290.564C2772.85 289.78 2775.56 286.698 2774.76 282.308C2773.96 277.978 2770.31 275.937 2766.04 276.72ZM2784.85 263.121L2792.96 261.633L2799 294.564L2790.89 296.052L2784.85 263.121ZM2780.81 299.162C2792.46 297.026 2800.67 299.869 2801.94 306.821C2803.23 313.834 2796.55 319.346 2784.9 321.482C2773.19 323.63 2764.99 320.848 2763.7 313.835C2762.43 306.883 2769.1 301.31 2780.81 299.162ZM2781.98 305.566C2774.79 306.886 2771.16 309.126 2771.75 312.358C2772.36 315.652 2776.54 316.46 2783.74 315.14C2790.93 313.82 2794.49 311.591 2793.89 308.298C2793.3 305.065 2789.18 304.246 2781.98 305.566ZM2845.4 252.013L2853.09 250.603L2863.44 307.074L2855.76 308.484L2845.4 252.013ZM2841.82 275.11L2851.21 273.387L2852.41 279.913L2843.02 281.636L2841.82 275.11ZM2832.96 255.304L2840.46 253.928L2850.14 306.74L2842.64 308.116L2832.96 255.304ZM2812.99 296.284L2816.95 295.557C2823.9 294.282 2829.65 292.975 2836.14 290.525L2837.96 296.999C2831.37 299.594 2825.43 300.873 2818.17 302.204L2814.21 302.932L2812.99 296.284ZM2807.39 265.731L2828.25 261.905L2829.44 268.431L2816.63 270.78L2821.62 297.979L2813.57 299.455L2807.39 265.731ZM2861.61 254.145L2894.85 248.048L2896.02 254.452L2862.79 260.549L2861.61 254.145ZM2879.76 259.263C2887.87 257.775 2894.37 260.932 2895.51 267.152C2896.65 273.372 2891.68 278.571 2883.57 280.059C2875.4 281.558 2868.91 278.462 2867.77 272.242C2866.63 266.022 2871.59 260.762 2879.76 259.263ZM2880.88 265.362C2877.22 266.033 2875.05 267.944 2875.57 270.81C2876.09 273.615 2878.79 274.632 2882.45 273.96C2886.05 273.3 2888.28 271.378 2887.77 268.573C2887.24 265.706 2884.47 264.702 2880.88 265.362ZM2897.05 242.538L2905.16 241.05L2911.66 276.482L2903.55 277.97L2897.05 242.538ZM2905.58 256.039L2915.34 254.249L2916.54 260.836L2906.79 262.626L2905.58 256.039ZM2874.39 285.713L2912.08 278.799L2915.51 297.522L2907.4 299.009L2905.16 286.752L2875.58 292.177L2874.39 285.713ZM2873.21 246.596L2881.32 245.108L2882.96 254.012L2874.85 255.5L2873.21 246.596ZM2922.68 242.754L2958.41 236.198L2959.61 242.724L2923.87 249.279L2922.68 242.754ZM2924.77 282.019L2975.81 272.656L2977.02 279.242L2925.98 288.605L2924.77 282.019ZM2932.18 262.254L2940.23 260.777L2943.87 280.658L2935.82 282.135L2932.18 262.254ZM2956.04 236.635L2964.21 235.135L2965.22 240.685C2966.48 247.515 2967.91 255.321 2968 267.155L2959.8 267.839C2959.72 256.759 2958.27 248.831 2957.05 242.184L2956.04 236.635ZM2946.14 259.692L2954.13 258.227L2957.77 278.107L2949.79 279.573L2946.14 259.692Z" fill="black"/>
<g filter="url(#filter1_b_175_621)">
<rect x="2671.9" y="157.925" width="371.197" height="129.011" rx="64.5054" transform="rotate(-19.1755 2671.9 157.925)" fill="white" fill-opacity="0.26"/>
<rect x="2672.53" y="158.233" width="370.197" height="128.011" rx="64.0054" transform="rotate(-19.1755 2672.53 158.233)" stroke="white" stroke-opacity="0.25"/>
</g>
<path d="M2787.72 209.902L2780.36 164.802L2787.04 162.556L2794.4 207.655L2787.72 209.902ZM2765.02 205.739L2763.88 198.688L2797.27 187.455L2798.41 194.505L2765.02 205.739ZM2772.7 214.957L2765.34 169.857L2772.02 167.611L2779.37 212.71L2772.7 214.957ZM2762.47 190.058L2761.35 183.001L2794.74 171.767L2795.86 178.825L2762.47 190.058ZM2809.86 202.455L2795.49 159.714L2823.78 150.194L2826.29 157.644L2807.03 164.124L2810.45 174.309L2827.83 168.46L2830.34 175.911L2812.96 181.759L2818.89 199.415L2809.86 202.455ZM2876.32 156.306C2877.89 160.967 2878.33 165.229 2877.67 169.093C2877.01 172.952 2875.46 176.255 2873.01 179C2870.56 181.727 2867.46 183.725 2863.69 184.994C2859.89 186.271 2856.19 186.555 2852.59 185.846C2848.99 185.136 2845.77 183.442 2842.92 180.762C2840.06 178.082 2837.86 174.419 2836.29 169.772C2834.73 165.111 2834.27 160.851 2834.93 156.992C2835.58 153.132 2837.13 149.839 2839.57 147.112C2842.01 144.371 2845.13 142.362 2848.93 141.084C2852.7 139.816 2856.38 139.536 2859.98 140.246C2863.59 140.937 2866.82 142.622 2869.67 145.302C2872.54 147.977 2874.75 151.645 2876.32 156.306ZM2867.16 159.388C2866.14 156.369 2864.83 153.975 2863.23 152.206C2861.65 150.433 2859.86 149.284 2857.87 148.76C2855.88 148.237 2853.8 148.342 2851.61 149.077C2849.43 149.812 2847.7 150.989 2846.44 152.608C2845.17 154.227 2844.43 156.225 2844.22 158.602C2844.03 160.975 2844.44 163.671 2845.46 166.69C2846.47 169.709 2847.77 172.105 2849.36 173.879C2850.96 175.647 2852.75 176.794 2854.74 177.317C2856.73 177.841 2858.82 177.735 2861 177C2863.18 176.266 2864.91 175.089 2866.18 173.47C2867.44 171.851 2868.18 169.855 2868.37 167.483C2868.58 165.105 2868.17 162.407 2867.16 159.388ZM2890.2 175.424L2875.83 132.683L2892.69 127.01C2895.92 125.925 2898.87 125.575 2901.54 125.962C2904.21 126.331 2906.5 127.364 2908.41 129.063C2910.32 130.742 2911.75 132.995 2912.7 135.819C2913.65 138.657 2913.86 141.305 2913.33 143.762C2912.78 146.205 2911.53 148.36 2909.58 150.227C2907.63 152.089 2905.02 153.573 2901.73 154.677L2890.44 158.476L2888 151.213L2897.83 147.906C2899.56 147.326 2900.91 146.607 2901.89 145.75C2902.87 144.893 2903.48 143.898 2903.72 142.765C2903.97 141.627 2903.86 140.355 2903.39 138.95C2902.92 137.531 2902.23 136.43 2901.33 135.648C2900.45 134.862 2899.34 134.412 2898.02 134.3C2896.71 134.169 2895.18 134.396 2893.44 134.981L2887.35 137.031L2899.23 172.384L2890.2 175.424ZM2906.74 148.209L2923.9 164.085L2913.92 167.441L2896.99 151.487L2906.74 148.209ZM2923.43 116.669L2937.79 159.409L2928.76 162.45L2914.39 119.709L2923.43 116.669ZM2945.23 156.908L2930.86 114.168L2959.16 104.647L2961.66 112.098L2942.4 118.578L2945.82 128.762L2963.21 122.914L2965.71 130.364L2948.33 136.213L2954.26 153.868L2945.23 156.908Z" fill="black"/>
<g filter="url(#filter2_i_175_621)">
<path d="M627.782 425.977C626.04 425.977 624.491 425.977 622.943 425.977C590.622 425.977 558.252 426.412 525.931 425.832C506.141 425.494 490.126 440.093 486.303 456.191C480.691 479.734 473.917 502.987 467.578 526.337C465.352 534.507 458.288 540.405 450.256 541.033C442.321 541.661 434.192 537.407 431.531 529.817C430.031 525.612 429.644 520.294 430.709 515.991C436.902 491.385 443.482 466.923 450.401 442.51C459.304 410.991 488.723 388.27 521.624 387.883C558.881 387.448 596.138 387.69 633.394 387.835C637.265 387.835 638.862 386.819 639.83 383C644.668 364.002 649.555 345.051 654.974 326.197C665.183 290.666 696.198 269.346 729.487 269.056C740.035 268.96 748.6 277.275 748.987 287.717C749.374 298.304 741.342 306.86 730.068 307.295C717.681 307.779 706.746 312.081 699.731 322.137C695.086 328.808 692.424 337.075 690.005 345.003C685.941 358.345 682.796 371.978 679.263 385.514C679.118 386.046 679.167 386.626 679.07 387.738C680.763 387.738 682.312 387.738 683.812 387.738C697.408 387.738 710.956 387.69 724.552 387.738C735.826 387.835 744.487 396.198 744.438 406.833C744.438 417.42 735.681 425.88 724.455 425.977C707.424 426.074 690.392 425.977 673.36 425.977C671.764 425.977 670.215 425.977 668.183 425.977C665.861 434.824 663.683 443.574 661.216 452.276C657.345 466.005 654.49 480.169 649.168 493.27C638.765 518.844 619.169 534.265 591.88 539.534C584.816 540.888 577.655 542.532 570.59 539.534C562.171 535.909 557.575 527.787 558.929 518.94C560.236 510.577 567.639 503.326 576.3 502.842C587.815 502.214 598.557 499.603 606.057 490.321C609.879 485.632 613.266 480.073 615.056 474.32C619.798 459.189 623.524 443.767 627.636 428.491C627.83 427.814 627.733 427.089 627.83 425.977H627.782Z" fill="white"/>
<path d="M271.424 387.689H313.907C308.246 391.315 302.875 394.506 297.843 398.083C288.94 404.464 281.73 412.538 276.215 421.965C274.328 425.203 272.295 426.17 268.715 426.025C261.118 425.735 261.215 425.977 259.231 433.325C254.441 451.115 250.135 469.099 244.619 486.647C235.474 515.75 215.249 533.105 185.492 539.389C178.186 540.936 170.735 542.435 163.38 539.293C155.59 535.957 151.09 528.029 152.155 519.279C153.122 511.205 159.848 504.147 167.832 502.939C171.799 502.31 175.912 502.262 179.831 501.392C193.766 498.298 203.443 489.935 207.604 476.302C212.636 459.769 216.894 443.042 221.588 425.929C206.733 425.929 192.46 426.025 178.186 425.929C168.17 425.832 160.477 419.354 158.88 410.024C156.897 398.277 165.267 387.931 177.218 387.786C193.814 387.593 210.411 387.593 227.055 387.786C230.732 387.786 232.281 386.819 233.248 383.097C238.377 363.276 243.361 343.456 249.216 323.829C258.941 291.294 287.779 269.83 321.745 269.008C332.922 268.718 341.583 276.501 341.97 287.136C342.357 298.449 334.954 306.715 323.342 307.199C314.536 307.537 306.697 310.196 299.585 315.369C293.778 319.574 289.279 324.795 287.246 331.66C281.876 350.03 276.844 368.497 271.424 387.689Z" fill="white"/>
<path d="M347.873 387.738C390.452 387.689 424.902 421.868 424.999 464.216C425.096 506.419 390.452 541.081 348.163 541.129C305.584 541.129 270.795 506.613 270.795 464.264C270.795 421.916 305.197 387.786 347.873 387.738ZM347.728 502.552C369.453 502.697 386.291 486.212 386.533 464.554C386.775 443.574 369.695 426.364 348.599 425.977C325.326 425.59 309.407 444.637 309.213 464.119C308.971 485.39 326.1 502.407 347.776 502.552H347.728Z" fill="white"/>
<path d="M558.929 374.105C548.188 374.105 539.527 365.597 539.527 355.058C539.527 344.616 548.381 335.914 558.978 335.914C569.623 335.914 578.38 344.616 578.38 355.058C578.38 365.597 569.671 374.105 558.929 374.105Z" fill="white"/>
<path d="M555.397 442.801C550.172 461.993 545.091 480.315 540.156 498.637C537.688 507.822 535.414 517.055 532.946 526.24C530.527 535.039 522.64 541.13 513.931 541.13C505.415 541.13 497.915 535.522 495.545 526.772C494.77 523.872 494.722 520.391 495.496 517.442C501.641 493.899 508.076 470.404 514.318 446.861C515.092 443.913 516.205 442.656 519.495 442.704C531.156 442.946 542.817 442.801 555.397 442.801Z" fill="white"/>
<path d="M489.545 388.076C479.916 393.007 471.11 399.001 464.046 407.075C459.498 412.247 455.772 418.048 451.466 423.415C450.498 424.623 448.659 425.832 447.159 425.88C439.66 426.122 432.16 426.073 424.66 425.88C423.451 425.88 421.661 425.252 421.128 424.333C412.129 408.235 399.016 396.584 381.452 388.028C418.274 388.028 453.885 388.028 489.545 388.028V388.076Z" fill="white"/>
</g>
<defs>
<filter id="filter0_b_175_621" x="2406.23" y="299.189" width="709.577" height="254.402" filterUnits="userSpaceOnUse" color-interpolation-filters="sRGB">
<feFlood flood-opacity="0" result="BackgroundImageFix"/>
<feGaussianBlur in="BackgroundImageFix" stdDeviation="20.1"/>
<feComposite in2="SourceAlpha" operator="in" result="effect1_backgroundBlur_175_621"/>
<feBlend mode="normal" in="SourceGraphic" in2="effect1_backgroundBlur_175_621" result="shape"/>
</filter>
<filter id="filter1_b_175_621" x="2649.29" y="13.3911" width="438.195" height="288.995" filterUnits="userSpaceOnUse" color-interpolation-filters="sRGB">
<feFlood flood-opacity="0" result="BackgroundImageFix"/>
<feGaussianBlur in="BackgroundImageFix" stdDeviation="20.1"/>
<feComposite in2="SourceAlpha" operator="in" result="effect1_backgroundBlur_175_621"/>
<feBlend mode="normal" in="SourceGraphic" in2="effect1_backgroundBlur_175_621" result="shape"/>
</filter>
<filter id="filter2_i_175_621" x="152" y="269" width="597" height="277.221" filterUnits="userSpaceOnUse" color-interpolation-filters="sRGB">
<feFlood flood-opacity="0" result="BackgroundImageFix"/>
<feBlend mode="normal" in="SourceGraphic" in2="BackgroundImageFix" result="shape"/>
<feColorMatrix in="SourceAlpha" type="matrix" values="0 0 0 0 0 0 0 0 0 0 0 0 0 0 0 0 0 0 127 0" result="hardAlpha"/>
<feOffset dy="7"/>
<feGaussianBlur stdDeviation="2.5"/>
<feComposite in2="hardAlpha" operator="arithmetic" k2="-1" k3="1"/>
<feColorMatrix type="matrix" values="0 0 0 0 0 0 0 0 0 0 0 0 0 0 0 0 0 0 0.25 0"/>
<feBlend mode="normal" in2="shape" result="effect1_innerShadow_175_621"/>
</filter>
</defs>
</svg>
