<svg width="3240" height="810" viewBox="0 0 3240 810" fill="none" xmlns="http://www.w3.org/2000/svg">
<rect width="3240" height="810" fill="#1D40BA"/>
<g filter="url(#filter0_i_175_621)">
<path d="M627.782 425.977C626.04 425.977 624.491 425.977 622.943 425.977C590.622 425.977 558.252 426.412 525.931 425.832C506.141 425.494 490.126 440.093 486.303 456.191C480.691 479.734 473.917 502.987 467.578 526.337C465.352 534.507 458.288 540.405 450.256 541.033C442.321 541.661 434.192 537.407 431.531 529.817C430.031 525.612 429.644 520.294 430.709 515.991C436.902 491.385 443.482 466.923 450.401 442.51C459.304 410.991 488.723 388.27 521.624 387.883C558.881 387.448 596.138 387.69 633.394 387.835C637.265 387.835 638.862 386.819 639.83 383C644.668 364.002 649.555 345.051 654.974 326.197C665.183 290.666 696.198 269.346 729.487 269.056C740.035 268.96 748.6 277.275 748.987 287.717C749.374 298.304 741.342 306.86 730.068 307.295C717.681 307.779 706.746 312.081 699.73 322.137C695.086 328.808 692.424 337.075 690.005 345.003C685.941 358.345 682.796 371.978 679.264 385.514C679.118 386.046 679.167 386.626 679.07 387.738C680.763 387.738 682.312 387.738 683.812 387.738C697.408 387.738 710.956 387.69 724.552 387.738C735.826 387.835 744.487 396.198 744.438 406.833C744.438 417.42 735.681 425.88 724.455 425.977C707.424 426.074 690.392 425.977 673.36 425.977C671.764 425.977 670.215 425.977 668.183 425.977C665.861 434.824 663.683 443.574 661.216 452.276C657.345 466.005 654.49 480.169 649.168 493.27C638.765 518.844 619.169 534.265 591.88 539.534C584.816 540.888 577.655 542.532 570.59 539.534C562.171 535.909 557.575 527.787 558.929 518.94C560.236 510.577 567.639 503.326 576.3 502.842C587.815 502.214 598.557 499.603 606.057 490.321C609.879 485.632 613.266 480.073 615.056 474.32C619.798 459.189 623.524 443.767 627.636 428.491C627.83 427.814 627.733 427.089 627.83 425.977H627.782Z" fill="white"/>
<path d="M271.424 387.689H313.907C308.246 391.315 302.875 394.506 297.843 398.083C288.94 404.464 281.73 412.538 276.215 421.965C274.328 425.203 272.295 426.17 268.715 426.025C261.118 425.735 261.215 425.977 259.231 433.325C254.441 451.115 250.135 469.099 244.619 486.647C235.474 515.75 215.249 533.105 185.492 539.389C178.186 540.936 170.735 542.435 163.38 539.293C155.59 535.957 151.09 528.029 152.155 519.279C153.122 511.205 159.848 504.147 167.832 502.939C171.799 502.31 175.912 502.262 179.831 501.392C193.766 498.298 203.443 489.935 207.604 476.302C212.636 459.769 216.894 443.042 221.588 425.929C206.733 425.929 192.46 426.025 178.186 425.929C168.17 425.832 160.477 419.354 158.88 410.024C156.897 398.277 165.267 387.931 177.218 387.786C193.814 387.593 210.411 387.593 227.055 387.786C230.732 387.786 232.281 386.819 233.248 383.097C238.377 363.276 243.361 343.456 249.216 323.829C258.941 291.294 287.779 269.83 321.745 269.008C332.922 268.718 341.583 276.501 341.97 287.136C342.357 298.449 334.954 306.715 323.342 307.199C314.536 307.537 306.697 310.196 299.585 315.369C293.778 319.574 289.279 324.795 287.246 331.66C281.876 350.03 276.844 368.497 271.424 387.689Z" fill="white"/>
<path d="M347.873 387.738C390.452 387.689 424.902 421.868 424.999 464.216C425.096 506.419 390.452 541.081 348.163 541.129C305.584 541.129 270.795 506.613 270.795 464.264C270.795 421.916 305.197 387.786 347.873 387.738ZM347.728 502.552C369.453 502.697 386.291 486.212 386.533 464.554C386.775 443.574 369.695 426.364 348.599 425.977C325.326 425.59 309.407 444.637 309.213 464.119C308.971 485.39 326.1 502.407 347.776 502.552H347.728Z" fill="white"/>
<path d="M558.929 374.105C548.188 374.105 539.527 365.597 539.527 355.058C539.527 344.616 548.381 335.914 558.978 335.914C569.623 335.914 578.38 344.616 578.38 355.058C578.38 365.597 569.671 374.105 558.929 374.105Z" fill="white"/>
<path d="M555.397 442.801C550.172 461.993 545.091 480.315 540.156 498.637C537.688 507.822 535.414 517.055 532.946 526.24C530.527 535.039 522.64 541.13 513.931 541.13C505.415 541.13 497.915 535.522 495.545 526.772C494.77 523.872 494.722 520.391 495.496 517.442C501.641 493.899 508.076 470.404 514.318 446.861C515.092 443.913 516.205 442.656 519.495 442.704C531.156 442.946 542.817 442.801 555.397 442.801Z" fill="white"/>
<path d="M489.545 388.076C479.916 393.007 471.11 399.001 464.046 407.075C459.498 412.247 455.772 418.048 451.466 423.415C450.498 424.623 448.659 425.832 447.159 425.88C439.66 426.122 432.16 426.073 424.66 425.88C423.451 425.88 421.661 425.252 421.128 424.333C412.129 408.235 399.016 396.584 381.452 388.028C418.274 388.028 453.885 388.028 489.545 388.028V388.076Z" fill="white"/>
</g>
<defs>
<filter id="filter0_i_175_621" x="152" y="269" width="597" height="277.221" filterUnits="userSpaceOnUse" color-interpolation-filters="sRGB">
<feFlood flood-opacity="0" result="BackgroundImageFix"/>
<feBlend mode="normal" in="SourceGraphic" in2="BackgroundImageFix" result="shape"/>
<feColorMatrix in="SourceAlpha" type="matrix" values="0 0 0 0 0 0 0 0 0 0 0 0 0 0 0 0 0 0 127 0" result="hardAlpha"/>
<feOffset dy="7"/>
<feGaussianBlur stdDeviation="2.5"/>
<feComposite in2="hardAlpha" operator="arithmetic" k2="-1" k3="1"/>
<feColorMatrix type="matrix" values="0 0 0 0 0 0 0 0 0 0 0 0 0 0 0 0 0 0 0.25 0"/>
<feBlend mode="normal" in2="shape" result="effect1_innerShadow_175_621"/>
</filter>
</defs>
</svg>
