<svg width="1950" height="572" viewBox="0 0 1950 572" fill="none" xmlns="http://www.w3.org/2000/svg">
<path d="M774.25 404.125C768.625 403.917 763.833 401.938 759.875 398.188C755.917 394.229 753.833 389.438 753.625 383.812V306C753.833 291.208 755.917 277.25 759.875 264.125C764.042 251 770.812 239.958 780.188 231C789.771 221.833 801.854 216.833 816.438 216H937.062C942.688 216.208 947.375 218.292 951.125 222.25C955.083 226 957.167 230.688 957.375 236.312C957.375 242.146 955.396 247.146 951.438 251.312C947.688 255.479 942.896 257.667 937.062 257.875H827.062C819.146 258.292 812.583 261.312 807.375 266.938C802.167 272.562 798.833 279.021 797.375 286.312C796.125 293.396 795.604 301.208 795.812 309.75V383.812C795.604 389.646 793.417 394.542 789.25 398.5C785.083 402.25 780.083 404.125 774.25 404.125ZM810.5 321.938C810.5 316.104 812.583 311.208 816.75 307.25C820.708 303.083 825.604 301 831.438 301H937.062C942.896 301 947.792 303.083 951.75 307.25C955.917 311.208 958 316.104 958 321.938C958 327.771 956.021 332.771 952.062 336.938C947.896 340.896 942.896 342.875 937.062 342.875H831.438C825.604 342.875 820.604 340.896 816.438 336.938C812.479 332.771 810.5 327.771 810.5 321.938ZM1154.25 216C1164.88 216.208 1174.35 219.542 1182.69 226C1191.02 232.458 1197.69 240.167 1202.69 249.125C1207.9 258.083 1211.75 267.562 1214.25 277.562C1216.75 287.562 1218 297.771 1218 308.188C1218 321.938 1215.81 335.479 1211.44 348.812C1207.27 361.938 1200.29 373.604 1190.5 383.812C1180.92 394.021 1168.83 399.542 1154.25 400.375H1045.19C1030.6 399.75 1018.42 394.333 1008.62 384.125C998.833 373.917 991.854 362.146 987.688 348.812C983.729 335.479 981.75 321.938 981.75 308.188C981.75 294.438 983.833 281 988 267.875C992.167 254.542 999.042 242.771 1008.62 232.562C1018.42 222.146 1030.6 216.625 1045.19 216H1051.12H1148.31H1154.25ZM1143.62 358.5C1151.54 358.083 1158.1 355.167 1163.31 349.75C1168.73 344.125 1172.58 337.667 1174.88 330.375C1177.17 323.083 1178.31 315.688 1178.31 308.188C1178.31 300.688 1177.06 293.396 1174.56 286.312C1172.27 279.021 1168.52 272.562 1163.31 266.938C1158.1 261.312 1151.54 258.292 1143.62 257.875H1054.88C1046.96 258.292 1040.4 261.312 1035.19 266.938C1029.98 272.562 1026.12 279.021 1023.62 286.312C1021.33 293.396 1020.19 300.688 1020.19 308.188C1020.19 315.688 1021.33 323.083 1023.62 330.375C1025.92 337.667 1029.67 344.125 1034.88 349.75C1040.29 355.167 1046.96 358.083 1054.88 358.5H1143.62ZM1294.25 384.438C1293 396.938 1286.12 403.708 1273.62 404.75C1267.79 404.75 1262.69 402.875 1258.31 399.125C1254.15 395.167 1252.06 390.271 1252.06 384.438V236.312C1252.27 230.479 1254.46 225.688 1258.62 221.938C1262.79 217.979 1267.79 216 1273.62 216H1288.94H1327.38H1404.56C1405.81 216 1407.06 216.104 1408.31 216.312H1410.19C1424.77 216.729 1436.75 220.062 1446.12 226.312C1455.5 232.562 1462.27 239.75 1466.44 247.875C1470.6 255.792 1472.69 263.812 1472.69 271.938C1472.69 280.271 1470.6 288.5 1466.44 296.625C1462.48 304.542 1455.71 311.625 1446.12 317.875C1436.75 324.125 1424.77 327.458 1410.19 327.875H1355.19C1356.85 338.292 1360.29 346 1365.5 351C1370.5 356 1376.85 358.5 1384.56 358.5H1452.06C1457.9 358.708 1462.69 360.896 1466.44 365.062C1470.4 369.229 1472.38 374.229 1472.38 380.062C1472.17 385.688 1470.08 390.479 1466.12 394.438C1462.38 398.188 1457.69 400.167 1452.06 400.375H1378.94C1363.52 400.583 1349.56 394.542 1337.06 382.25C1324.56 369.958 1316.96 355.375 1314.25 338.5C1310.5 319.75 1308.62 309.229 1308.62 306.938C1308.62 301.104 1310.6 296.208 1314.56 292.25C1318.73 288.083 1323.73 286 1329.56 286H1412.06C1416.02 285.792 1419.25 284.958 1421.75 283.5C1424.46 281.833 1426.44 280.062 1427.69 278.188C1428.94 276.104 1429.56 274.021 1429.56 271.938C1429.56 269.854 1428.94 267.875 1427.69 266C1426.44 263.917 1424.46 262.146 1421.75 260.688C1419.25 259.021 1416.02 258.083 1412.06 257.875H1327.38H1302.38C1296.96 258.083 1294.25 260.792 1294.25 266V384.438ZM1499.88 379.438C1499.88 373.604 1501.85 368.708 1505.81 364.75C1509.98 360.583 1514.98 358.5 1520.81 358.5H1580.81V257.875H1520.81C1514.98 257.875 1510.08 255.792 1506.12 251.625C1501.96 247.667 1499.88 242.771 1499.88 236.938C1499.88 231.104 1501.85 226.208 1505.81 222.25C1509.98 218.083 1514.98 216 1520.81 216H1682.69C1688.52 216 1693.52 217.979 1697.69 221.938C1701.65 226.104 1703.62 231.104 1703.62 236.938C1703.62 242.771 1701.54 247.771 1697.38 251.938C1693.42 255.896 1688.52 257.875 1682.69 257.875H1623V358.5H1682.69C1688.52 358.5 1693.52 360.479 1697.69 364.438C1701.65 368.604 1703.62 373.604 1703.62 379.438C1703.62 385.271 1701.54 390.271 1697.38 394.438C1693.42 398.396 1688.52 400.375 1682.69 400.375H1520.81C1514.98 400.375 1510.08 398.292 1506.12 394.125C1501.96 390.167 1499.88 385.271 1499.88 379.438ZM1757.38 404.125C1751.75 403.917 1746.96 401.938 1743 398.188C1739.04 394.229 1736.96 389.438 1736.75 383.812V306C1736.96 291.208 1739.04 277.25 1743 264.125C1747.17 251 1753.94 239.958 1763.31 231C1772.9 221.833 1784.98 216.833 1799.56 216H1920.19C1925.81 216.208 1930.5 218.292 1934.25 222.25C1938.21 226 1940.29 230.688 1940.5 236.312C1940.5 242.146 1938.52 247.146 1934.56 251.312C1930.81 255.479 1926.02 257.667 1920.19 257.875H1810.19C1802.27 258.292 1795.71 261.312 1790.5 266.938C1785.29 272.562 1781.96 279.021 1780.5 286.312C1779.25 293.396 1778.73 301.208 1778.94 309.75V383.812C1778.73 389.646 1776.54 394.542 1772.38 398.5C1768.21 402.25 1763.21 404.125 1757.38 404.125ZM1793.62 321.938C1793.62 316.104 1795.71 311.208 1799.88 307.25C1803.83 303.083 1808.73 301 1814.56 301H1920.19C1926.02 301 1930.92 303.083 1934.88 307.25C1939.04 311.208 1941.12 316.104 1941.12 321.938C1941.12 327.771 1939.15 332.771 1935.19 336.938C1931.02 340.896 1926.02 342.875 1920.19 342.875H1814.56C1808.73 342.875 1803.73 340.896 1799.56 336.938C1795.6 332.771 1793.62 327.771 1793.62 321.938Z" fill="black"/>
<g clip-path="url(#clip0_12_6)">
<path d="M293.1 298.07C304.75 298.34 315.74 299.55 326.72 300.73C392.33 307.76 446.51 336.92 487.66 387.99C521.69 430.22 542.73 478.79 547.89 533.47C548.86 543.79 549.36 554.13 549.4 564.49C549.43 571.3 548.85 570.19 543.76 570.22C501.79 570.47 459.83 570.7 417.86 570.9C384.24 571.06 350.62 571.33 317.01 571.24C273.39 571.12 230.89 564.91 190.19 548.24C92.52 508.24 22.35 421.57 4.83998 317.52C-17.2 186.54 49.39 61.03 165.47 4.77004C167.76 3.66004 170.01 2.46005 172.37 1.51005C176.14 4.66108e-05 177.44 0.560045 179.43 4.11004C185.89 15.66 189.85 28.07 192.15 41.04C194.63 55.02 195.69 69.15 196.52 83.31C196.87 89.16 197.1 88.89 202.27 89.7C221.59 92.71 239.24 100.27 255.8 110.44C280.66 125.7 301.17 145.48 316.9 170.09C319.22 173.72 322.09 176.52 325.77 178.7C339.22 186.66 352.6 194.74 366.02 202.74C369.19 204.63 371.96 206.88 373.92 210.08C375.26 212.27 375.49 214.35 374.31 216.75C362.07 241.5 344.63 261.95 322.54 278.33C314.25 284.48 305.12 289.49 296.38 295.03C295.34 295.69 293.98 295.97 293.13 298.09L293.1 298.07ZM361.36 218.37C360.5 217.71 359.58 217.81 358.68 217.8C335.43 217.69 312.17 217.63 288.92 217.46C220.25 216.98 151.59 215.77 82.91 216.02C62.94 216.09 46.37 223.56 32.95 237.79C17.92 253.73 9.03999 272.34 11.48 294.99C12.14 301.13 12.85 307.27 13.84 313.36C33.06 431.42 121.56 526.11 238.03 553.33C239.62 553.7 241.22 554.03 242.82 554.4C245.25 554.97 246.2 553.83 246.15 551.53C246.13 550.8 246.15 550.08 246.15 549.35C245.53 473.77 244.9 398.2 244.27 322.62C244.26 321.17 244.23 319.71 244.08 318.27C243.72 314.97 243.25 314.53 240.01 314.72C237.11 314.89 234.23 315.3 231.33 315.5C229.15 315.65 226.96 315.6 224.86 314.88C222.79 314.18 221.37 312.85 221.47 310.51C221.55 308.42 222.89 307.19 224.77 306.66C226.16 306.27 227.62 306.05 229.06 305.97C250.13 304.72 269.62 298.18 288.18 288.46C299.15 282.72 309.4 275.75 319.32 268.47C335.59 256.54 348.71 241.48 359.21 224.21C360.29 222.43 361.94 220.73 361.38 218.35L361.36 218.37Z" fill="black"/>
</g>
<defs>
<clipPath id="clip0_12_6">
<rect width="550" height="572" fill="white"/>
</clipPath>
</defs>
</svg>
