<svg width="175" height="58" viewBox="0 0 175 58" fill="none" xmlns="http://www.w3.org/2000/svg">
<circle cx="29" cy="29" r="29" fill="#9D89F9"/>
<path d="M37.8761 31.125V35.025H21.1261V31.125H23.6761V26.05H21.3011V22.15H37.7011V26.05H35.3261V31.125H37.8761ZM27.8761 31.125H31.1261V26.05H27.8761V31.125Z" fill="black"/>
<circle cx="88" cy="29" r="29" fill="#50C8DC"/>
<path d="M96.8761 31.6V35.25H80.4011V26.7H92.5261V25.4H80.3511V21.75H96.6761V30.25H84.5511V31.6H96.8761Z" fill="black"/>
<circle cx="146" cy="29" r="29" fill="#1E4CF4"/>
<path d="M154.876 31.125V35.025H138.126V31.125H140.676V26.05H138.301V22.15H154.701V26.05H152.326V31.125H154.876ZM144.876 31.125H148.126V26.05H144.876V31.125Z" fill="black"/>
</svg>
